<svg width="82" height="80" viewBox="0 0 82 80" fill="none" xmlns="http://www.w3.org/2000/svg">
<path d="M0.567993 40C0.567993 62.0571 18.7032 80 40.9977 80C63.2869 80 81.4213 62.0571 81.4213 40C81.4213 17.9429 63.2869 0 40.9977 0C18.7032 0 0.567993 17.9429 0.567993 40Z" fill="white"/>
<path d="M54.2924 43.1121C56.752 43.1196 59.2115 43.1272 61.6711 43.1362C62.3384 43.1385 62.956 43.2983 63.5154 43.6799C64.5356 44.3758 64.9752 45.3538 64.9677 46.5662C64.9609 47.5954 64.9677 48.6247 64.9677 49.6539C64.9677 52.9421 64.9722 56.2304 64.9639 59.5186C64.9631 59.968 64.887 60.4166 64.8727 60.8668C64.8304 62.1689 63.3895 63.5103 61.9478 63.496C61.27 63.4892 60.5921 63.5051 59.915 63.5058C56.5514 63.5073 53.1877 63.5081 49.8241 63.5073C49.4222 63.5073 49.0203 63.4817 48.6192 63.4983C46.9377 63.5661 45.812 62.2263 45.5587 60.9987C45.4229 60.3412 45.4162 59.6573 45.3521 58.9855L45.3709 58.9358C46.9732 58.9418 48.589 59.1461 50.1717 58.803C51.9791 58.411 53.3189 57.3802 53.9206 55.5812C54.1891 54.7789 54.3007 53.9344 54.2939 53.0695C54.2698 50.0294 54.2856 46.9892 54.2826 43.9483C54.2826 43.6731 54.2592 43.3971 54.2471 43.1219L54.2924 43.1113V43.1121Z" fill="#93DF80"/>
<path d="M41.242 28.5278C41.2269 25.7146 41.2744 22.8999 41.1786 20.0897C41.0972 17.7025 42.4099 15.9419 45.2201 16.0015C48.9608 16.0814 52.7044 16.0248 56.4466 16.0331C56.9231 16.0339 57.3989 16.0874 57.8754 16.098C59.382 16.1312 60.8417 17.6769 60.8372 19.1789C60.8357 19.7564 60.8734 20.3333 60.8741 20.9108C60.8764 24.3016 60.8787 27.6917 60.8689 31.0824C60.8666 31.9352 60.8711 32.7925 60.7897 33.64C60.6381 35.231 59.4928 36.3801 57.9094 36.5234C56.9865 36.6071 56.053 36.5837 55.1248 36.6108C54.8488 36.6191 54.5736 36.635 54.2977 36.6478C54.2916 36.5965 54.2864 36.5452 54.2811 36.4932C54.2871 36.2927 54.2939 36.0928 54.2999 35.8923C54.4696 35.9262 54.643 35.9993 54.8089 35.9865C55.7273 35.9179 56.6434 35.7724 57.561 35.7581C58.8474 35.7385 59.7733 34.8238 60.0191 33.8067C60.1707 33.1808 60.3003 32.5316 60.3049 31.8922C60.3305 27.7761 60.3463 23.66 60.2943 19.5446C60.2838 18.7136 59.9444 17.9325 59.2183 17.3368C58.4756 16.7276 57.6251 16.6122 56.7625 16.6047C52.8477 16.573 48.9321 16.5813 45.0173 16.6032C44.5551 16.6054 44.0831 16.7427 43.6329 16.8761C42.5532 17.1958 41.8316 18.918 41.8369 19.865C41.8391 20.2375 41.9145 20.61 41.9168 20.9825C41.9266 22.5636 41.9191 24.1448 41.9213 25.7259C41.9228 26.5252 41.9718 27.3282 41.5051 28.0491C41.4342 28.1584 41.4787 28.3431 41.4697 28.4932L41.242 28.5263V28.5278Z" fill="#7271CD"/>
<path d="M54.2811 36.4954C54.2864 36.5467 54.2924 36.5987 54.2977 36.65C54.2962 38.8042 54.2939 40.9592 54.2924 43.1134L54.2471 43.1232C53.6447 43.1202 53.0415 43.1126 52.4383 43.1141C51.0313 43.1179 49.6243 43.1209 48.2181 43.1322C47.0086 43.142 45.7638 44.218 45.5157 45.4191C45.3129 46.3994 45.3536 47.3894 45.3611 48.3847C45.3898 51.9021 45.3709 55.4196 45.3702 58.9363L45.3513 58.9861C42.1151 58.9793 38.8797 58.9702 35.6434 58.9665C34.063 58.9649 32.4826 58.9853 30.9022 58.9702C30.3533 58.9649 29.8029 58.9046 29.2577 58.8307C26.7906 58.4975 25.1846 56.2852 25.1544 54.1973C25.1514 53.9968 25.1333 53.797 25.1227 53.5964C25.1438 53.5745 25.1657 53.5527 25.1876 53.5308C25.2366 53.5406 25.2856 53.5496 25.3346 53.5587C25.3972 53.7412 25.447 53.9297 25.5254 54.1046C25.6362 54.3519 25.79 54.5811 25.8858 54.8337C26.0366 55.2288 26.1022 55.6639 26.296 56.0341C26.7393 56.8824 27.2611 57.6334 28.2624 57.9787C29.0134 58.2373 29.7803 58.3504 30.5328 58.3429C33.3369 58.3142 36.1426 58.4944 38.9483 58.2336C40.589 58.0812 42.2463 58.1129 43.8968 58.0639C44.5581 58.0443 44.8258 57.7148 44.7308 57.0513C44.6848 56.7316 44.6388 56.4081 44.638 56.0869C44.6312 53.0754 44.6456 50.0631 44.626 47.0516C44.6199 46.1241 44.8416 45.2736 45.2503 44.454C45.5783 43.7958 46.0789 43.3237 46.7591 43.0576C48.5973 42.3398 50.4597 42.3126 52.332 42.9098C52.9329 43.1013 53.426 42.9633 53.5225 42.1271C53.5761 41.6627 53.5678 41.1899 53.5746 40.7201C53.5806 40.3054 53.5399 39.8892 53.5708 39.4768C53.6409 38.5343 53.742 37.594 53.8302 36.6523C53.9795 36.5995 54.1295 36.5459 54.2788 36.4932L54.2811 36.4954Z" fill="#6A4996"/>
<path d="M25.1242 53.5975C24.8498 53.5794 24.5745 53.5454 24.3001 53.5454C22.4663 53.5424 20.6333 53.5469 18.7996 53.5485C18.3472 53.5485 17.8955 53.5545 17.4431 53.5409C15.3726 53.4798 14.0372 52.1407 14.0124 50.0506C13.9875 47.9914 14.0078 45.9314 14.0078 43.8722C14.0078 41.4111 14.0078 38.9493 14.0056 36.4882C14.0056 35.8239 14.1096 35.1853 14.4716 34.6152C15.1238 33.5883 16.0422 33.0137 17.2802 33.0115C19.6162 33.0069 21.9513 33.013 24.2873 33.0002C24.5753 32.9986 24.8633 32.9082 25.1506 32.8584L25.1996 32.9036C25.1461 33.0959 25.0926 33.2889 25.039 33.482C24.1923 33.531 23.3448 33.6192 22.498 33.6192C21.6256 33.6192 20.7532 33.5272 19.8808 33.4865C19.5302 33.4699 19.1773 33.4933 18.8267 33.482C18.0139 33.4548 17.2388 33.6275 16.481 33.9035C15.4638 34.2737 14.7732 35.1491 14.7898 36.2364C14.8071 37.3485 14.4195 38.4584 14.7686 39.5706C14.783 39.6158 14.7686 39.6701 14.7656 39.7206C14.7189 40.4928 14.6261 41.2649 14.6329 42.0362C14.6608 44.9339 14.4972 47.8346 14.7784 50.7277C14.8538 51.5043 15.0898 52.2478 15.8733 52.5539C16.4425 52.7771 17.0842 52.9166 17.6934 52.9181C19.1178 52.9226 20.5406 52.986 21.9717 52.8208C22.9753 52.7047 24.0136 52.8857 25.0368 52.9347L25.1898 53.5326C25.168 53.5545 25.1461 53.5756 25.125 53.5982L25.1242 53.5975Z" fill="#983391"/>
<path d="M41.2419 28.5273C41.3181 28.516 41.3935 28.5055 41.4697 28.4941C41.5699 28.51 41.671 28.5258 41.7713 28.5416C41.5692 28.8312 41.3671 29.1207 41.165 29.4103C40.2866 29.4057 39.4059 29.4344 38.529 29.3876C37.3347 29.3243 36.1441 29.1637 34.9497 29.12C33.6204 29.0717 32.2843 29.172 30.958 29.0921C29.3037 28.9925 27.9389 29.6583 26.6187 30.5089C26.3208 30.7011 26.0992 30.9424 26.0652 31.3511C26.0441 31.6044 25.8594 31.8457 25.7395 32.0878C25.609 32.3517 25.4688 32.6118 25.3331 32.8727C25.2878 32.8765 25.2433 32.8863 25.1996 32.9006L25.1506 32.8553C25.3466 31.5004 26.0162 30.4003 27.0696 29.5663C27.6901 29.0755 28.4087 28.6977 29.2298 28.6276C29.778 28.5809 30.3292 28.5424 30.8781 28.5432C33.9326 28.5469 36.9871 28.565 40.0416 28.5733C40.4412 28.5741 40.8408 28.5424 41.2404 28.5266L41.2419 28.5273Z" fill="#6A4996"/>
<path d="M45.3709 58.9356C45.3709 55.4182 45.3897 51.9007 45.3618 48.384C45.3536 47.3887 45.3136 46.3979 45.5164 45.4185C45.7645 44.2181 47.0094 43.1414 48.2188 43.1316C49.6258 43.1203 51.0328 43.1165 52.439 43.1135C53.0422 43.112 53.6447 43.1195 54.2479 43.1225C54.2599 43.3977 54.2825 43.6737 54.2833 43.9489C54.2856 46.9891 54.2705 50.03 54.2946 53.0702C54.3014 53.935 54.1898 54.7803 53.9214 55.5818C53.3197 57.3809 51.9798 58.4116 50.1724 58.8037C48.5905 59.1468 46.9739 58.9424 45.3717 58.9364L45.3709 58.9356Z" fill="#75BA6A"/>
<path d="M41.7713 28.5426C41.671 28.5267 41.5699 28.5109 41.4697 28.4951C41.4787 28.345 41.4342 28.161 41.5051 28.051C41.9718 27.3301 41.9228 26.5271 41.9213 25.7279C41.9183 24.1467 41.9258 22.5655 41.9168 20.9844C41.9145 20.6119 41.8391 20.2394 41.8369 19.8669C41.8308 18.9206 42.5532 17.1977 43.6329 16.878C44.0831 16.7446 44.5543 16.6081 45.0173 16.6051C48.9321 16.584 52.8477 16.5749 56.7625 16.6066C57.6251 16.6134 58.4756 16.7295 59.2183 17.3387C59.9444 17.9344 60.2837 18.7156 60.2943 19.5465C60.3471 23.6619 60.3305 27.778 60.3048 31.8942C60.3011 32.5336 60.1706 33.1828 60.0191 33.8086C59.7733 34.825 58.8474 35.7404 57.561 35.76C56.6426 35.7743 55.7265 35.9191 54.8089 35.9884C54.6422 36.0012 54.4696 35.9281 54.2992 35.8942C54.2441 34.7436 54.278 33.5794 54.1091 32.4453C53.9342 31.2744 53.2843 30.3386 52.3184 29.5861C51.2786 28.7763 50.082 28.5659 48.8575 28.5381C46.4967 28.4853 44.1336 28.535 41.7713 28.5418V28.5426Z" fill="#7271CD"/>
<path d="M41.7713 28.5428C44.1336 28.5353 46.4967 28.4855 48.8575 28.5391C50.0827 28.5662 51.2786 28.7766 52.3184 29.5871C53.2843 30.3396 53.9342 31.2746 54.1092 32.4463C54.278 33.5804 54.2441 34.7446 54.2992 35.8952C54.2931 36.0958 54.2871 36.2956 54.2803 36.4961C54.131 36.5489 53.981 36.6025 53.8317 36.6552C53.1538 36.6537 52.4752 36.6665 51.7974 36.6469C49.2428 36.5738 46.6852 36.7902 44.1298 36.5142C42.75 36.3649 41.6363 35.4164 41.3483 34.0614C41.2141 33.4318 41.1945 32.7721 41.1741 32.1244C41.1454 31.2211 41.165 30.3163 41.1643 29.4122C41.2208 28.5428 41.2208 28.8565 41.2208 28.4795L41.7713 28.5428Z" fill="#4E2E8C"/>
<path d="M41.1658 29.4108C41.1666 30.3148 41.147 31.2196 41.1756 32.1229C41.196 32.7706 41.2156 33.4296 41.3498 34.06C41.6378 35.415 42.7515 36.3643 44.1313 36.5128C46.6859 36.7888 49.2435 36.5724 51.7989 36.6455C52.4767 36.6651 53.1546 36.6515 53.8332 36.6538C53.745 37.5948 53.6439 38.5358 53.5738 39.4783C53.5429 39.89 53.5836 40.307 53.5776 40.7217C53.5708 41.1907 53.5791 41.6634 53.5256 42.1287C53.429 42.9656 52.9359 43.1036 52.335 42.9113C50.4628 42.3134 48.5996 42.3405 46.7621 43.0591C46.082 43.3245 45.5821 43.7965 45.2533 44.4555C44.8446 45.2752 44.6237 46.1257 44.629 47.0531C44.6486 50.0646 44.6335 53.0769 44.641 56.0884C44.6418 56.4104 44.6878 56.7339 44.7338 57.0528C44.8296 57.7156 44.5619 58.0458 43.8999 58.0654C42.2501 58.1144 40.592 58.0828 38.9513 58.2351C36.1456 58.496 33.3399 58.3158 30.5358 58.3444C29.7833 58.352 29.0157 58.2389 28.2654 57.9802C27.2641 57.6349 26.7423 56.8839 26.299 56.0356C26.1052 55.6654 26.0396 55.2311 25.8888 54.8352C25.793 54.5834 25.6392 54.3534 25.5284 54.1061C25.45 53.9304 25.4002 53.7427 25.3376 53.5595C26.9437 53.5527 28.549 53.5391 30.155 53.5414C31.2204 53.5429 32.1101 53.1832 32.791 52.3448C33.3505 51.6556 33.6121 50.8465 33.6159 49.9832C33.6348 45.4667 33.6446 40.9501 33.6136 36.4336C33.6053 35.2332 33.1673 34.1821 32.0581 33.5344C31.4851 33.1997 30.866 33.0293 30.1995 33.0308C28.8694 33.0323 27.5393 33.0376 26.21 33.021C25.9182 33.0172 25.6272 32.926 25.3354 32.8754C25.4711 32.6138 25.6113 32.3544 25.7418 32.0905C25.8617 31.8477 26.0464 31.6064 26.0675 31.3539C26.1014 30.9452 26.3231 30.7039 26.6209 30.5116C27.9412 29.6611 29.306 28.9953 30.9603 29.0948C32.2866 29.1748 33.6227 29.0745 34.952 29.1227C36.1464 29.1665 37.3369 29.3271 38.5313 29.3904C39.4082 29.4364 40.2881 29.4077 41.1673 29.413L41.1658 29.4108Z" fill="#6A4996"/>
<path d="M25.3338 32.875C28.7043 33.1917 33.4394 31.6663 33.6121 36.4339C33.643 40.9505 33.6332 45.467 33.6144 49.9835C33.6106 50.8461 33.349 51.6559 32.7895 52.3451C32.1086 53.1835 31.2181 53.5432 30.1535 53.5417C28.5007 53.5145 26.8373 53.6035 25.1891 53.5319C24.8965 52.7583 25.0631 51.6966 25.0096 50.7978C24.9651 47.818 24.5949 44.161 24.7834 41.1842C24.8897 38.1976 24.7291 35.8714 25.1227 32.9278C25.1664 32.9135 25.2878 32.8788 25.3338 32.875Z" fill="#55217F"/>
<path d="M25.0398 33.4803C25.0835 36.2883 25.1423 39.0955 25.1634 41.9034C25.171 42.8519 25.042 43.802 25.0488 44.7513C25.0639 46.7803 25.1423 48.8094 25.1627 50.8392C25.1695 51.5366 25.0805 52.2356 25.0353 52.9331C24.0128 52.8848 22.9745 52.7038 21.9702 52.8192C20.5391 52.9843 19.1163 52.921 17.6919 52.9165C17.082 52.915 16.441 52.7755 15.8718 52.5523C15.0883 52.2454 14.8523 51.5019 14.7769 50.7261C14.4957 47.8337 14.6593 44.9323 14.6314 42.0346C14.6239 41.2632 14.7174 40.4911 14.7641 39.719C14.7671 39.6693 14.7815 39.6142 14.7671 39.569C14.418 38.4561 14.8056 37.3469 14.7882 36.2347C14.7717 35.1475 15.4623 34.2728 16.4795 33.9018C17.2373 33.6259 18.0124 33.4532 18.8252 33.4803C19.1766 33.4924 19.5287 33.469 19.8793 33.4849C20.7525 33.5256 21.6241 33.6168 22.4965 33.6176C23.3433 33.6176 24.1908 33.5301 25.0375 33.4803H25.0398Z" fill="#983391"/>
</svg>
