<svg width="61" height="26" viewBox="0 0 61 26" fill="none" xmlns="http://www.w3.org/2000/svg">
<path d="M11.5292 3.33689C12.2474 2.43857 12.7346 1.23251 12.6062 0C11.5549 0.0523027 10.272 0.693635 9.52928 1.59255C8.86234 2.36244 8.27211 3.61901 8.42604 4.79981C9.60601 4.90216 10.7851 4.20995 11.5292 3.33689Z" fill="black"/>
<path d="M12.5924 5.03022C10.8785 4.92811 9.42132 6.00288 8.60283 6.00288C7.78397 6.00288 6.53062 5.08169 5.17503 5.10647C3.41068 5.13244 1.77357 6.13 0.878232 7.7166C-0.963323 10.8906 0.392258 15.5988 2.18306 18.1838C3.05267 19.4627 4.10086 20.8709 5.48182 20.8203C6.78665 20.769 7.29812 19.9753 8.88412 19.9753C10.469 19.9753 10.9298 20.8203 12.311 20.7947C13.7434 20.769 14.6388 19.5151 15.5085 18.2349C16.5061 16.777 16.9145 15.3693 16.9402 15.292C16.9144 15.2664 14.1781 14.2167 14.1528 11.0691C14.1269 8.43358 16.3011 7.17987 16.4034 7.10219C15.1758 5.28649 13.2574 5.08169 12.5924 5.03022Z" fill="black"/>
<path d="M27.5159 1.46332C31.2409 1.46332 33.8347 4.03103 33.8347 7.76943C33.8347 11.5212 31.1874 14.1022 27.4225 14.1022H23.2982V20.661H20.3184V1.46332H27.5159ZM23.2981 11.601H26.7172C29.3116 11.601 30.7881 10.2042 30.7881 7.78277C30.7881 5.3616 29.3116 3.9779 26.7305 3.9779H23.2981V11.601Z" fill="black"/>
<path d="M34.6123 16.6837C34.6123 14.2356 36.4882 12.7323 39.8145 12.5461L43.6458 12.32V11.2424C43.6458 9.68587 42.5947 8.75455 40.8389 8.75455C39.1755 8.75455 38.1378 9.55267 37.8853 10.8034H35.1713C35.331 8.27549 37.486 6.41296 40.9452 6.41296C44.3376 6.41296 46.5061 8.20901 46.5061 11.0161V20.6615H43.7521V18.3599H43.6858C42.8743 19.9166 41.1048 20.9009 39.2689 20.9009C36.5282 20.9009 34.6123 19.1979 34.6123 16.6837ZM43.6457 15.4199V14.3157L40.1999 14.5285C38.4837 14.6483 37.5125 15.4066 37.5125 16.604C37.5125 17.8278 38.5236 18.6262 40.0669 18.6262C42.0757 18.6259 43.6457 17.2424 43.6457 15.4199Z" fill="black"/>
<path d="M49.1064 25.81V23.4817C49.3189 23.5349 49.7977 23.5349 50.0373 23.5349C51.3676 23.5349 52.0862 22.9762 52.525 21.5394C52.525 21.5127 52.778 20.6879 52.778 20.6745L47.7227 6.66541H50.8354L54.3747 18.0537H54.4276L57.967 6.66541H60.9999L55.7577 21.3928C54.5608 24.7856 53.1771 25.8765 50.2769 25.8765C50.0373 25.8765 49.3188 25.8498 49.1064 25.81Z" fill="black"/>
</svg>
