<svg width="36" height="36" viewBox="0 0 36 36" fill="none" xmlns="http://www.w3.org/2000/svg">
<path d="M21 12.7125C20.9903 12.5202 20.9071 12.3389 20.7675 12.2063C20.6278 12.0736 20.4425 11.9998 20.25 12H15.75C15.5574 11.9998 15.3721 12.0736 15.2325 12.2063C15.0928 12.3389 15.0096 12.5202 15 12.7125L14.25 27.7125C14.2449 27.8141 14.2605 27.9157 14.2959 28.011C14.3313 28.1064 14.3858 28.1936 14.4559 28.2672C14.5261 28.3409 14.6105 28.3995 14.704 28.4395C14.7975 28.4796 14.8982 28.5001 15 28.5H21C21.1017 28.5001 21.2024 28.4796 21.2959 28.4395C21.3894 28.3995 21.4738 28.3409 21.544 28.2672C21.6142 28.1936 21.6686 28.1064 21.704 28.011C21.7394 27.9157 21.755 27.8141 21.75 27.7125L21 12.7125Z" fill="#F7D74F"/>
<path d="M28.5 12.7125C28.4903 12.5202 28.4071 12.3389 28.2675 12.2063C28.1278 12.0736 27.9425 11.9998 27.75 12H23.25C23.0574 11.9998 22.8721 12.0736 22.7325 12.2063C22.5928 12.3389 22.5096 12.5202 22.5 12.7125L21.75 27.7125C21.7449 27.8141 21.7605 27.9157 21.7959 28.011C21.8313 28.1064 21.8858 28.1936 21.9559 28.2672C22.0261 28.3409 22.1105 28.3995 22.204 28.4395C22.2975 28.4796 22.3982 28.5001 22.5 28.5H28.5C28.6017 28.5001 28.7024 28.4796 28.7959 28.4395C28.8894 28.3995 28.9738 28.3409 29.044 28.2672C29.1142 28.1936 29.1686 28.1064 29.204 28.011C29.2394 27.9157 29.255 27.8141 29.25 27.7125L28.5 12.7125ZM13.5 12.7125C13.4903 12.5202 13.4071 12.3389 13.2675 12.2063C13.1278 12.0736 12.9425 11.9998 12.75 12H8.24996C8.05738 11.9998 7.87208 12.0736 7.73246 12.2063C7.59284 12.3389 7.50959 12.5202 7.49996 12.7125L6.74996 27.7125C6.74488 27.8141 6.76051 27.9157 6.79592 28.011C6.83133 28.1064 6.88576 28.1936 6.95592 28.2672C7.02608 28.3409 7.11049 28.3995 7.20402 28.4395C7.29754 28.4796 7.39823 28.5001 7.49996 28.5H13.5C13.6017 28.5001 13.7024 28.4796 13.7959 28.4395C13.8894 28.3995 13.9738 28.3409 14.044 28.2672C14.1142 28.1936 14.1686 28.1064 14.204 28.011C14.2394 27.9157 14.255 27.8141 14.25 27.7125L13.5 12.7125Z" fill="#F7D74F"/>
<path d="M30 27H6C4.75736 27 3.75 28.0074 3.75 29.25V30.75C3.75 31.9926 4.75736 33 6 33H30C31.2426 33 32.25 31.9926 32.25 30.75V29.25C32.25 28.0074 31.2426 27 30 27Z" fill="#5E87CA"/>
<path d="M32.3249 6.7035C32.1654 6.44619 31.9551 6.2241 31.7068 6.05079C31.4586 5.87747 31.1776 5.75658 30.8811 5.6955L18.1544 3.01575C18.0525 2.99475 17.9473 2.99475 17.8454 3.01575L5.11938 5.6955C4.82328 5.75778 4.54278 5.87915 4.29467 6.05234C4.04655 6.22553 3.83592 6.44699 3.67537 6.70346C3.51482 6.95994 3.40765 7.24616 3.36027 7.54501C3.31289 7.84386 3.32628 8.14919 3.39963 8.44275L3.95388 10.659C4.15591 11.4708 4.62394 12.1917 5.28333 12.7066C5.94272 13.2215 6.75552 13.5008 7.59213 13.5H28.4076C29.2441 13.5008 30.0569 13.2216 30.7162 12.7069C31.3756 12.1921 31.8437 11.4715 32.0459 10.6597L32.6001 8.44275C32.6747 8.14934 32.6887 7.84382 32.6414 7.54481C32.5941 7.2458 32.4864 6.95955 32.3249 6.7035Z" fill="#5E87CA"/>
<path d="M20.25 10.5C20.0511 10.5 19.8603 10.421 19.7197 10.2803C19.579 10.1397 19.5 9.94891 19.5 9.75C19.5 9.35218 19.342 8.97064 19.0607 8.68934C18.7794 8.40804 18.3978 8.25 18 8.25C17.6022 8.25 17.2206 8.40804 16.9393 8.68934C16.658 8.97064 16.5 9.35218 16.5 9.75C16.5 9.94891 16.421 10.1397 16.2803 10.2803C16.1397 10.421 15.9489 10.5 15.75 10.5C15.5511 10.5 15.3603 10.421 15.2197 10.2803C15.079 10.1397 15 9.94891 15 9.75C15 8.95435 15.3161 8.19129 15.8787 7.62868C16.4413 7.06607 17.2044 6.75 18 6.75C18.7956 6.75 19.5587 7.06607 20.1213 7.62868C20.6839 8.19129 21 8.95435 21 9.75C21 9.94891 20.921 10.1397 20.7803 10.2803C20.6397 10.421 20.4489 10.5 20.25 10.5Z" fill="#F7D74F"/>
</svg>
