<svg width="29" height="24" viewBox="0 0 29 24" fill="none" xmlns="http://www.w3.org/2000/svg">
<g id="photo-camera-interface-symbol-for-button">
<path id="Shape" fill-rule="evenodd" clip-rule="evenodd" d="M29 7.23895V20.7407C29 22.5406 27.5642 24 25.7933 24H3.20672C1.43581 24 0 22.5406 0 20.7407V7.23895C0 5.43899 1.43581 3.97963 3.20672 3.97963H7.15099V2.8519C7.15099 1.27684 8.40642 0 9.95687 0H19.0431C20.5936 0 21.849 1.27684 21.849 2.8519V3.97881H25.7933C27.5642 3.97963 29 5.43899 29 7.23895ZM19.177 13.989C19.177 16.6103 17.079 18.7427 14.5 18.7427C11.921 18.7427 9.8238 16.6103 9.8238 13.989C9.8238 11.3677 11.921 9.23528 14.5 9.23528C17.079 9.23528 19.177 11.3685 19.177 13.989ZM14.5 6.79079C18.405 6.79079 21.582 10.02 21.582 13.989C21.582 17.958 18.405 21.1872 14.5 21.1872C10.5958 21.1872 7.41875 17.958 7.41875 13.989C7.41875 10.02 10.5958 6.79079 14.5 6.79079Z" fill="white"/>
</g>
</svg>
