<?xml version="1.0" encoding="utf-8"?>
<svg width="36" height="36" viewBox="10.425 -0.016 25.575 22.317" fill="none" xmlns="http://www.w3.org/2000/svg">
  <defs/>
  <path fill-rule="evenodd" clip-rule="evenodd" d="M12.022 8.20208L12.562 15.4021C12.7487 18.3663 15.1894 20.6852 18.1593 20.72H26.0102C28.9806 20.6859 31.4221 18.3669 31.6089 15.4021L32.1489 8.20208C32.288 6.6228 31.7633 5.05692 30.7009 3.88024C29.6383 2.70355 28.1339 2.02231 26.5488 2H17.6207C16.0357 2.02271 14.5318 2.70413 13.4696 3.88075C12.4074 5.05739 11.8829 6.62305 12.022 8.20208Z" stroke="white" stroke-opacity="0.5" stroke-width="2" stroke-linecap="round" stroke-linejoin="round"/>
  <path d="M26.4046 7.75977C26.4046 9.30316 25.5813 10.7293 24.2446 11.501C22.908 12.2727 21.2613 12.2727 19.9246 11.501C18.588 10.7293 17.7646 9.30316 17.7646 7.75977" stroke="white" stroke-opacity="0.5" stroke-width="2" stroke-linecap="round" stroke-linejoin="round"/>
</svg>