<svg width="28" height="28" viewBox="0 0 28 28" fill="none" xmlns="http://www.w3.org/2000/svg">
<path d="M5.83325 10.4998C5.83325 9.21117 6.87792 8.1665 8.16659 8.1665H19.8333C21.122 8.1665 22.1666 9.21117 22.1666 10.4998V20.9998C22.1666 22.9329 20.5996 24.4998 18.6666 24.4998H9.33325C7.40026 24.4998 5.83325 22.9329 5.83325 20.9998V10.4998Z" stroke="black" stroke-width="1.7" stroke-linecap="round" stroke-linejoin="round"/>
<path d="M17.5 8.16667V7C17.5 5.06701 15.933 3.5 14 3.5C12.0669 3.5 10.5 5.06701 10.5 7V8.16667" stroke="black" stroke-width="1.7" stroke-linecap="round" stroke-linejoin="round"/>
<path d="M10.5 12.8335V14.0002C10.5 15.9332 12.0669 17.5002 14 17.5002C15.933 17.5002 17.5 15.9332 17.5 14.0002V12.8335" stroke="black" stroke-width="1.7" stroke-linecap="round" stroke-linejoin="round"/>
</svg>
