<svg width="38" height="38" viewBox="0 0 38 38" fill="none" xmlns="http://www.w3.org/2000/svg">
<path d="M9.85636 7.61731C9.55774 7.32889 9.15778 7.1693 8.74264 7.17291C8.32749 7.17652 7.93037 7.34304 7.63681 7.6366C7.34325 7.93016 7.17673 8.32728 7.17312 8.74243C7.16952 9.15757 7.32911 9.55753 7.61752 9.85615L16.7613 18.9999L7.61594 28.1436C7.46472 28.2897 7.34409 28.4644 7.26111 28.6576C7.17813 28.8508 7.13446 29.0585 7.13263 29.2688C7.1308 29.479 7.17086 29.6875 7.25047 29.8821C7.33008 30.0767 7.44765 30.2534 7.59632 30.4021C7.74498 30.5508 7.92176 30.6683 8.11635 30.7479C8.31093 30.8276 8.51943 30.8676 8.72966 30.8658C8.93989 30.864 9.14766 30.8203 9.34083 30.7373C9.534 30.6543 9.70872 30.5337 9.85477 30.3825L19.0001 21.2387L28.1439 30.3825C28.4425 30.6709 28.8424 30.8305 29.2576 30.8269C29.6727 30.8233 30.0698 30.6568 30.3634 30.3632C30.657 30.0696 30.8235 29.6725 30.8271 29.2574C30.8307 28.8422 30.6711 28.4423 30.3827 28.1436L21.2389 18.9999L30.3827 9.85615C30.6711 9.55753 30.8307 9.15757 30.8271 8.74243C30.8235 8.32728 30.657 7.93016 30.3634 7.6366C30.0698 7.34304 29.6727 7.17652 29.2576 7.17291C28.8424 7.1693 28.4425 7.32889 28.1439 7.61731L19.0001 16.7611L9.85636 7.61731Z" fill="#004C5F"/>
</svg>
