<svg width="22" height="18" viewBox="0 0 22 18" fill="none" xmlns="http://www.w3.org/2000/svg">
<path fill-rule="evenodd" clip-rule="evenodd" d="M5.70593 0.818359H4.29309C3.49896 0.818359 2.85278 1.45677 2.85278 2.24153V3.63684H1.44049C0.646179 3.63684 0 4.27525 0 5.06001V16.5763C0 17.3611 0.646179 17.9995 1.44049 17.9995H16.8538C17.6481 17.9995 18.2943 17.3611 18.2943 16.5763V15.1809H19.7067C20.501 15.1809 21.1472 14.5424 21.1472 13.7579V12.3626V2.99952H11.4706L10.4706 0.999516L5.70593 0.818359ZM16.8538 16.6047H1.44049C1.42474 16.6047 1.41174 16.5921 1.41174 16.5763V5.06001C1.41174 5.04427 1.42474 5.03161 1.44049 5.03161H6.43048C6.43524 5.03161 6.43982 5.03324 6.44385 5.03541C6.4444 5.03577 6.44513 5.03559 6.44568 5.03595C6.44661 5.03656 6.4473 5.03746 6.448 5.03836C6.44853 5.03905 6.44907 5.03974 6.44971 5.04029L6.45154 5.04202C6.45339 5.0437 6.4552 5.04536 6.4563 5.04753L7.30792 6.75399C7.55237 7.24352 8.04749 7.5478 8.59991 7.5478H16.8538C16.8576 7.5478 16.8615 7.54852 16.8649 7.54997C16.8752 7.55431 16.8823 7.56444 16.8823 7.5762C16.8823 12.0658 16.8825 15.8209 16.8825 16.4757L16.8825 16.5763C16.8825 16.5921 16.8697 16.6047 16.8538 16.6047ZM19.7069 13.7861C19.7227 13.7861 19.7355 13.7734 19.7355 13.7579V4.75772C19.7355 4.74198 19.7227 4.72932 19.7069 4.72932H11.4527C10.9005 4.72932 10.4055 4.42522 10.1609 3.93569L9.30908 2.22923C9.30414 2.2191 9.29425 2.21313 9.28326 2.21313H4.29309C4.27734 2.21313 4.26453 2.22579 4.26453 2.24153V3.63684H6.43066C6.98328 3.63684 7.47821 3.94148 7.72247 4.43047L8.57428 6.13693C8.57904 6.14652 8.58929 6.15285 8.59991 6.15285H16.8536C17.6479 6.15285 18.2943 6.79126 18.2943 7.5762V13.7861H19.7069Z" fill="#EFBBC2"/>
</svg>
