<svg width="16" height="17" viewBox="0 0 16 17" fill="none" xmlns="http://www.w3.org/2000/svg">
<path fill-rule="evenodd" clip-rule="evenodd" d="M15.5118 16.0039H14.2237V0.498047C14.2237 0.222992 14.0051 0 13.7355 0H2.55746C2.28782 0 2.06922 0.222992 2.06922 0.498047V16.0039H0.781201C0.511567 16.0039 0.292969 16.2269 0.292969 16.502C0.292969 16.777 0.511567 17 0.781201 17H15.5118C15.7814 17 16 16.777 16 16.502C16 16.2269 15.7814 16.0039 15.5118 16.0039ZM6.48223 16.0039V12.6085H9.8107V16.0039H6.48223ZM10.7872 12.1105V16.0039H13.2472V0.996094H3.04569V16.0039H5.50576V12.1105C5.50576 11.8354 5.72436 11.6124 5.994 11.6124H10.2989C10.5686 11.6124 10.7872 11.8354 10.7872 12.1105Z" fill="#C1C1C1"/>
<path fill-rule="evenodd" clip-rule="evenodd" d="M4.70308 2.20215H7.09568C7.36531 2.20215 7.58391 2.42514 7.58391 2.7002V5.14089C7.58391 5.41595 7.36531 5.63894 7.09568 5.63894H4.70308C4.43344 5.63894 4.21484 5.41595 4.21484 5.14089V2.7002C4.21484 2.42514 4.43344 2.20215 4.70308 2.20215ZM5.19131 4.64284H6.60744V3.19824H5.19131V4.64284Z" fill="#C1C1C1"/>
<path fill-rule="evenodd" clip-rule="evenodd" d="M9.19526 2.20215H11.5879C11.8575 2.20215 12.0761 2.42514 12.0761 2.7002V5.14089C12.0761 5.41595 11.8575 5.63894 11.5879 5.63894H9.19526C8.92563 5.63894 8.70703 5.41595 8.70703 5.14089V2.7002C8.70703 2.42514 8.92563 2.20215 9.19526 2.20215ZM9.6835 4.64284H11.0996V3.19824H9.6835V4.64284Z" fill="#C1C1C1"/>
<path fill-rule="evenodd" clip-rule="evenodd" d="M4.70308 6.83789H7.09568C7.36531 6.83789 7.58391 7.06088 7.58391 7.33594V9.77663C7.58391 10.0517 7.36531 10.2747 7.09568 10.2747H4.70308C4.43344 10.2747 4.21484 10.0517 4.21484 9.77663V7.33594C4.21484 7.06088 4.43344 6.83789 4.70308 6.83789ZM5.19131 9.27859H6.60744V7.83398H5.19131V9.27859Z" fill="#C1C1C1"/>
<path fill-rule="evenodd" clip-rule="evenodd" d="M9.19526 6.83789H11.5879C11.8575 6.83789 12.0761 7.06088 12.0761 7.33594V9.77663C12.0761 10.0517 11.8575 10.2747 11.5879 10.2747H9.19526C8.92563 10.2747 8.70703 10.0517 8.70703 9.77663V7.33594C8.70703 7.06088 8.92563 6.83789 9.19526 6.83789ZM9.6835 9.27859H11.0996V7.83398H9.6835V9.27859Z" fill="#C1C1C1"/>
</svg>
