<svg width="24" height="24" viewBox="0 0 24 24" fill="none" xmlns="http://www.w3.org/2000/svg">
<path fill-rule="evenodd" clip-rule="evenodd" d="M23 9.98386C23 10.3312 22.7159 10.6129 22.3654 10.6129C21.3156 10.6129 20.4615 11.4594 20.4615 12.5C20.4615 13.5406 21.3156 14.3871 22.3654 14.3871C22.7158 14.3871 23 14.6687 23 15.0161V18.371C23 18.7183 22.7159 19 22.3654 19H1.63461C1.28415 19 1 18.7184 1 18.371V15.0161C1 14.6687 1.28415 14.3871 1.63461 14.3871C2.68442 14.3871 3.53846 13.5406 3.53846 12.5C3.53846 11.4594 2.68438 10.6129 1.63461 10.6129C1.28415 10.6129 1 10.3313 1 9.98386V6.62902C1 6.28161 1.28415 6 1.63461 6H22.3654C22.7158 6 23 6.28161 23 6.62902V9.98386ZM21.7308 17.742V15.582C20.2842 15.2897 19.1923 14.0188 19.1923 12.5C19.1923 10.9812 20.2842 9.7103 21.7307 9.41804V7.25805H8.40382V9.14516C8.40382 9.49253 8.11966 9.77419 7.76921 9.77419C7.41876 9.77419 7.13461 9.49258 7.13461 9.14516V7.25805H2.26921V9.41804C3.71575 9.71026 4.80768 10.9812 4.80768 12.5C4.80768 14.0188 3.71575 15.2897 2.26921 15.582V17.742H7.13465V15.8548C7.13465 15.5075 7.4188 15.2258 7.76925 15.2258C8.11971 15.2258 8.40386 15.5074 8.40386 15.8548V17.742H21.7308Z" fill="black"/>
<path d="M7.5 11C7.22385 11 7 11.2878 7 11.6428V13.3572C7 13.7122 7.22388 14 7.5 14C7.77612 14 8 13.7122 8 13.3572V11.6428C8.00003 11.2878 7.77615 11 7.5 11Z" fill="black"/>
</svg>
