<svg width="10" height="14" viewBox="0 0 10 14" fill="none" xmlns="http://www.w3.org/2000/svg">
<path fill-rule="evenodd" clip-rule="evenodd" d="M8.7436 2.11068H7.10718V1.23917C7.10718 0.984649 6.90085 0.77832 6.64633 0.77832H3.35809C3.10357 0.77832 2.89724 0.984649 2.89724 1.23917V2.11068H1.26081C0.577756 2.11147 0.0242248 2.665 0.0234375 3.34806V4.12454C0.0234375 4.37906 0.229766 4.58539 0.484286 4.58539H0.68245V11.4663C0.683542 12.4351 1.4686 13.2201 2.43736 13.2212H7.56706C8.53586 13.2202 9.32102 12.4352 9.32211 11.4664V4.58534H9.52027C9.77479 4.58534 9.98112 4.37901 9.98112 4.12449V3.34801C9.98031 2.66499 9.42681 2.11149 8.74379 2.11068H8.7436ZM3.81894 1.70002H6.18548V2.11077H3.81894V1.70002ZM0.945134 3.34801C0.947418 3.17463 1.08744 3.03465 1.26081 3.03242H8.7436C8.91699 3.0347 9.05698 3.17472 9.05924 3.3481V3.66378H0.945134V3.34801ZM8.40041 11.4663C8.39993 11.9263 8.02709 12.2991 7.56706 12.2995H2.43736C1.97735 12.2991 1.60452 11.9263 1.60401 11.4663V4.58534H8.40041V11.4663ZM4.54136 11.0073V5.87756C4.54136 5.62304 4.74769 5.41671 5.00221 5.41671C5.25673 5.41671 5.46306 5.62304 5.46306 5.87756V11.0073C5.46306 11.2618 5.25673 11.4682 5.00221 11.4682C4.74769 11.4682 4.54136 11.2618 4.54136 11.0073ZM2.61184 11.0073V5.87756C2.61184 5.62304 2.81817 5.41671 3.07269 5.41671C3.3272 5.41671 3.53353 5.62304 3.53353 5.87756V11.0073C3.53353 11.2618 3.3272 11.4682 3.07269 11.4682C2.81817 11.4682 2.61184 11.2618 2.61184 11.0073ZM6.47089 11.0073V5.87756C6.47089 5.62304 6.67722 5.41671 6.93173 5.41671C7.18625 5.41671 7.39258 5.62304 7.39258 5.87756V11.0073C7.39258 11.2618 7.18625 11.4682 6.93173 11.4682C6.67722 11.4682 6.47089 11.2618 6.47089 11.0073Z" fill="white"/>
</svg>
