<svg width="16" height="18" viewBox="0 0 16 18" fill="none" xmlns="http://www.w3.org/2000/svg">
<path d="M10.6675 1.8H5.3342C4.84328 1.8 4.44531 1.39706 4.44531 0.9C4.44531 0.402944 4.84328 0 5.3342 0H10.6675C11.1585 0 11.5564 0.402944 11.5564 0.9C11.5564 1.39706 11.1585 1.8 10.6675 1.8Z" fill="#E63946"/>
<path d="M10.6662 17.9996H5.3329C3.36922 17.9996 1.77734 16.3878 1.77734 14.3996V3.59961H14.2218V14.3996C14.2218 16.3878 12.6299 17.9996 10.6662 17.9996Z" fill="#E63946"/>
<path d="M15.1111 5.39961H0.888889C0.397969 5.39961 0 4.99667 0 4.49961C0 4.00255 0.397969 3.59961 0.888889 3.59961H15.1111C15.602 3.59961 16 4.00255 16 4.49961C16 4.99667 15.602 5.39961 15.1111 5.39961Z" fill="#C9273A"/>
<path d="M6.22287 14.4002C5.73195 14.4002 5.33398 13.9973 5.33398 13.5002V8.1002C5.33398 7.60314 5.73195 7.2002 6.22287 7.2002C6.71379 7.2002 7.11176 7.60314 7.11176 8.1002V13.5002C7.11176 13.9973 6.71379 14.4002 6.22287 14.4002Z" fill="#EDEBEA"/>
<path d="M9.77756 14.4002C9.28664 14.4002 8.88867 13.9973 8.88867 13.5002V8.1002C8.88867 7.60314 9.28664 7.2002 9.77756 7.2002C10.2685 7.2002 10.6664 7.60314 10.6664 8.1002V13.5002C10.6664 13.9973 10.2685 14.4002 9.77756 14.4002Z" fill="#EDEBEA"/>
</svg>
