<svg width="24" height="24" viewBox="0 0 24 24" fill="none" xmlns="http://www.w3.org/2000/svg">
<g id="ic / placeholder">
<g id="remove-user">
<g id="g1143">
<g id="g1145">
<path id="path1147" d="M15.5625 17.3609H19.3125" stroke="black" stroke-width="1.875" stroke-linecap="round" stroke-linejoin="round"/>
</g>
<g id="g1149">
<g id="g1151 Clipped">
<g id="g1151">
<g id="g1157">
<path id="path1159" fill-rule="evenodd" clip-rule="evenodd" d="M23.0625 17.4375C23.0625 20.5441 20.5441 23.0625 17.4375 23.0625C14.3309 23.0625 11.8125 20.5441 11.8125 17.4375C11.8125 14.3309 14.3309 11.8125 17.4375 11.8125C20.5441 11.8125 23.0625 14.3309 23.0625 17.4375Z" stroke="black" stroke-width="1.875" stroke-linecap="round" stroke-linejoin="round"/>
</g>
<g id="g1161">
<path id="path1163" fill-rule="evenodd" clip-rule="evenodd" d="M12 4.6875C12 6.75858 10.3211 8.4375 8.25 8.4375C6.17892 8.4375 4.5 6.75858 4.5 4.6875C4.5 2.61642 6.17892 0.9375 8.25 0.9375C10.3211 0.9375 12 2.61642 12 4.6875Z" stroke="black" stroke-width="1.875" stroke-linecap="round" stroke-linejoin="round"/>
</g>
<g id="g1165">
<path id="path1167" d="M8.25089 19.3125H2.8125C1.77698 19.3125 0.9375 18.473 0.9375 17.4375C0.9375 14.3309 3.45591 11.8125 6.5625 11.8125H9.9375" stroke="black" stroke-width="1.875" stroke-linecap="round" stroke-linejoin="round"/>
</g>
</g>
</g>
</g>
</g>
</g>
</g>
</svg>
