<svg width="20" height="20" viewBox="0 0 20 20" fill="none" xmlns="http://www.w3.org/2000/svg">
  <path fill-rule="evenodd" clip-rule="evenodd"
    d="M7.09763 13.6581H12.8212C13.6114 13.6581 14.2521 13.0188 14.2521 12.2303C14.2521 11.4418 13.6114 10.8026 12.8212 10.8026H10.5461L15.268 6.10533C15.8291 5.54548 15.8291 4.63779 15.268 4.07794C14.7069 3.51809 13.7972 3.51809 13.2361 4.07794L8.52852 8.78947V6.51937C8.52852 5.73085 7.88789 5.09163 7.09763 5.09163C6.30737 5.09163 5.66674 5.73085 5.66674 6.51937V12.2303C5.66901 12.4169 5.7079 12.6012 5.78122 12.7729C5.92641 13.1217 6.20426 13.399 6.55389 13.5438C6.72592 13.617 6.91065 13.6558 7.09763 13.6581ZM18.8839 7.76971C18.805 7.33249 18.3859 7.04185 17.9477 7.12055C17.5095 7.19925 17.2182 7.61749 17.2971 8.05471C17.3904 8.5297 17.4435 9.01167 17.4558 9.49554C17.4558 13.8678 13.9036 17.4122 9.52167 17.4122C5.13978 17.4122 1.58757 13.8678 1.58757 9.49554C1.58757 5.1233 5.13978 1.5789 9.52167 1.5789C9.76218 1.56686 10.0032 1.56686 10.2437 1.5789C10.6686 1.62115 11.0508 1.32025 11.1085 0.89807C11.1283 0.687924 11.0632 0.478584 10.9276 0.316555C10.7921 0.154526 10.5972 0.0532248 10.3865 0.0351562C10.1009 0.0351562 9.81523 0.0351562 9.52167 0.0351562C5.51196 0.0350489 1.93192 2.5416 0.568122 6.30395C-0.795678 10.0663 0.349089 14.278 3.43115 16.8373C6.51321 19.3965 10.8719 19.7547 14.3321 17.7332C17.7923 15.7116 19.6123 11.7436 18.8839 7.80929V7.76971Z"
    fill="url(#paint0_linear_0_3061)" />
  <defs>
    <linearGradient id="paint0_linear_0_3061" x1="-0.20643" y1="20.0097" x2="18.7267" y2="20.6433"
      gradientUnits="userSpaceOnUse">
      <stop stop-color="#286d8e" />
      <stop offset="1" stop-color="#19516c" />
    </linearGradient>
  </defs>
</svg>
