<svg width="24" height="23" viewBox="0 0 24 23" fill="none" xmlns="http://www.w3.org/2000/svg">
  <g id="upload">
    <path id="Shape" fill-rule="evenodd" clip-rule="evenodd"
      d="M20.3154 6.35608C21.299 6.77588 22.1566 7.45619 22.8006 8.32758C23.5811 9.38034 24.0026 10.6677 24 11.9909C23.9963 15.3539 21.3429 18.0792 18.0687 18.083H14.636C14.2217 18.083 13.8859 17.7381 13.8859 17.3126C13.8859 16.8872 14.2217 16.5422 14.636 16.5422H18.0687C20.5148 16.5394 22.4971 14.5034 22.4999 11.9909C22.4999 10.002 21.2005 8.20966 19.3403 7.63236C19.0076 7.52892 18.7877 7.20421 18.809 6.84782C18.9578 4.34673 17.3334 2.21942 14.8586 1.67448C11.7712 0.99452 8.4494 2.92591 7.45376 5.97975L7.14906 6.91383C7.04667 7.22791 6.7603 7.43962 6.43783 7.43962H5.92976C3.48249 7.43962 1.49858 9.47731 1.49858 11.9909C1.49858 14.5046 3.48249 16.5422 5.92976 16.5422H9.36249C9.77673 16.5422 10.1125 16.8872 10.1125 17.3126C10.1125 17.7381 9.77673 18.083 9.36249 18.083H5.92976C2.66081 18.0821 0.0088019 15.3648 4.33886e-05 12.0073C-0.00871512 8.64969 2.62908 5.91781 5.89798 5.89895L6.03111 5.49056C7.26161 1.71661 11.3626 -0.671091 15.1729 0.167901C16.7347 0.511924 18.1051 1.38366 19.0315 2.62257C19.8316 3.69711 20.281 5.00374 20.3154 6.35608ZM10.3458 18.992C10.2034 18.816 9.99202 18.7144 9.76922 18.7147H9.76912C9.47816 18.7149 9.21354 18.8879 9.0902 19.1585C8.96686 19.4292 9.00705 19.7487 9.19332 19.9783L11.42 22.7228C11.5625 22.8984 11.7736 23 11.9962 23C12.2189 23 12.43 22.8984 12.5725 22.7228L14.7992 19.9783C14.9727 19.7671 15.0228 19.4766 14.9305 19.217C14.8381 18.9574 14.6174 18.7685 14.3522 18.722C14.0869 18.6755 13.8177 18.7785 13.6468 18.992L12.7463 20.1018V12.7925C12.7463 12.367 12.4105 12.0221 11.9963 12.0221C11.5821 12.0221 11.2462 12.367 11.2462 12.7925V20.1018L10.3458 18.992Z"
      fill="#19516c" />
  </g>
</svg>
