<svg width="16" height="16" viewBox="0 0 16 16" fill="none" xmlns="http://www.w3.org/2000/svg">
  <path
    d="M12.436 10.3551C12.0062 10.3551 11.6588 10.7085 11.6588 11.1456V13.6287C11.6588 14.0651 11.3106 14.4192 10.8816 14.4192H2.33174C1.90269 14.4192 1.5545 14.065 1.5545 13.6287V3.35197C1.5545 2.91559 1.90272 2.56147 2.33174 2.56147H6.84757C7.27737 2.56147 7.62481 2.20811 7.62481 1.77097C7.62481 1.33383 7.27737 0.980469 6.84757 0.980469H2.33174C1.04617 0.980405 0 2.04446 0 3.35197V13.6287C0 14.9362 1.04617 16.0002 2.33174 16.0002H10.8815C12.1671 16.0002 13.2132 14.937 13.2132 13.6287V11.1457C13.2133 10.7085 12.8658 10.3551 12.436 10.3551Z"
    fill="#19516c" />
  <path fill-rule="evenodd" clip-rule="evenodd"
    d="M15.1304 0.879791C14.5661 0.305889 13.8292 0.0165388 13.087 0.000742743C12.3058 -0.0166424 11.52 0.271087 10.9293 0.872671L5.66732 6.22448C4.8994 7.00869 4.47656 8.049 4.47656 9.15412V10.9249C4.47656 11.362 4.82399 11.7154 5.2538 11.7154H6.99483C8.08144 11.7154 9.10429 11.2853 9.87609 10.5035L15.1311 5.1588C16.2892 3.9802 16.2892 2.05925 15.1304 0.879791ZM8.77789 9.38499C8.30143 9.86799 7.66719 10.1344 6.99489 10.1344H6.03107V9.15415C6.03107 8.47034 6.293 7.82528 6.76712 7.34148L10.236 3.8134L12.246 5.85767L8.77789 9.38499ZM13.345 4.7399L14.0313 4.04186C14.5847 3.47822 14.5847 2.56123 14.0313 1.99762C13.4779 1.43478 12.5763 1.43319 12.0213 1.99762L11.335 2.69564L13.345 4.7399Z"
    fill="#19516c" />
</svg>
