<svg width="24" height="24" viewBox="0 0 24 24" fill="none" xmlns="http://www.w3.org/2000/svg">
<path d="M12.4259 7.19091C12.0091 7.19742 11.5953 7.26365 11.1972 7.38756C11.3814 7.71138 11.4794 8.077 11.482 8.4495C11.482 8.73874 11.425 9.02515 11.3143 9.29237C11.2036 9.55959 11.0414 9.8024 10.8369 10.0069C10.6323 10.2114 10.3895 10.3737 10.1223 10.4844C9.85509 10.5951 9.56868 10.652 9.27944 10.652C8.90694 10.6494 8.54133 10.5514 8.21751 10.3673C7.96203 11.2533 7.9918 12.1973 8.30262 13.0655C8.61344 13.9337 9.18954 14.682 9.94931 15.2046C10.7091 15.7272 11.614 15.9974 12.536 15.9771C13.4579 15.9568 14.35 15.647 15.0861 15.0914C15.8221 14.5359 16.3647 13.7629 16.6369 12.8818C16.9092 12.0008 16.8974 11.0565 16.6031 10.1825C16.3089 9.30859 15.7471 8.54939 14.9974 8.01247C14.2477 7.47555 13.3481 7.18812 12.4259 7.19091ZM23.6164 11.0217C21.4834 6.86013 17.2609 4.04443 12.4259 4.04443C7.59097 4.04443 3.36722 6.8621 1.23548 11.0221C1.14551 11.2001 1.09863 11.3967 1.09863 11.5962C1.09863 11.7956 1.14551 11.9922 1.23548 12.1702C3.3684 16.3318 7.59097 19.1475 12.4259 19.1475C17.2609 19.1475 21.4846 16.3298 23.6164 12.1698C23.7063 11.9918 23.7532 11.7952 23.7532 11.5958C23.7532 11.3963 23.7063 11.1997 23.6164 11.0217ZM12.4259 17.2596C8.54592 17.2596 4.98883 15.0964 3.06791 11.596C4.98883 8.09552 8.54553 5.93232 12.4259 5.93232C16.3063 5.93232 19.863 8.09552 21.7839 11.596C19.8634 15.0964 16.3063 17.2596 12.4259 17.2596Z" fill="white"/>
</svg>
