<svg width="24" height="23" viewBox="0 0 24 23" fill="none" xmlns="http://www.w3.org/2000/svg">
<g id="excel">
<path id="Path" d="M23.25 19.9333H12.75C12.336 19.9333 12 19.5898 12 19.1667C12 18.7435 12 4.2572 12 3.83402C12 3.41083 12.336 3.06738 12.75 3.06738H23.25C23.664 3.06738 24 3.41083 24 3.83402V19.1667C24 19.5898 23.664 19.9333 23.25 19.9333Z" fill="#ECEFF1"/>
<g id="Group">
<path id="Path_2" d="M15.75 7.66705H12.75C12.336 7.66705 12 7.3236 12 6.90042C12 6.47724 12.336 6.13379 12.75 6.13379H15.75C16.164 6.13379 16.5 6.47724 16.5 6.90042C16.5 7.3236 16.164 7.66705 15.75 7.66705Z" fill="#388E3C"/>
<path id="Path_3" d="M15.75 10.7335H12.75C12.336 10.7335 12 10.39 12 9.96683C12 9.54365 12.336 9.2002 12.75 9.2002H15.75C16.164 9.2002 16.5 9.54365 16.5 9.96683C16.5 10.39 16.164 10.7335 15.75 10.7335Z" fill="#388E3C"/>
<path id="Path_4" d="M15.75 13.7999H12.75C12.336 13.7999 12 13.4564 12 13.0332C12 12.6101 12.336 12.2666 12.75 12.2666H15.75C16.164 12.2666 16.5 12.6101 16.5 13.0332C16.5 13.4564 16.164 13.7999 15.75 13.7999Z" fill="#388E3C"/>
<path id="Path_5" d="M15.75 16.8663H12.75C12.336 16.8663 12 16.5228 12 16.0996C12 15.6765 12.336 15.333 12.75 15.333H15.75C16.164 15.333 16.5 15.6765 16.5 16.0996C16.5 16.5228 16.164 16.8663 15.75 16.8663Z" fill="#388E3C"/>
<path id="Path_6" d="M20.25 7.66705H18.75C18.336 7.66705 18 7.3236 18 6.90042C18 6.47724 18.336 6.13379 18.75 6.13379H20.25C20.664 6.13379 21 6.47724 21 6.90042C21 7.3236 20.664 7.66705 20.25 7.66705Z" fill="#388E3C"/>
<path id="Path_7" d="M20.25 10.7335H18.75C18.336 10.7335 18 10.39 18 9.96683C18 9.54365 18.336 9.2002 18.75 9.2002H20.25C20.664 9.2002 21 9.54365 21 9.96683C21 10.39 20.664 10.7335 20.25 10.7335Z" fill="#388E3C"/>
<path id="Path_8" d="M20.25 13.7999H18.75C18.336 13.7999 18 13.4564 18 13.0332C18 12.6101 18.336 12.2666 18.75 12.2666H20.25C20.664 12.2666 21 12.6101 21 13.0332C21 13.4564 20.664 13.7999 20.25 13.7999Z" fill="#388E3C"/>
<path id="Path_9" d="M20.25 16.8663H18.75C18.336 16.8663 18 16.5228 18 16.0996C18 15.6765 18.336 15.333 18.75 15.333H20.25C20.664 15.333 21 15.6765 21 16.0996C21 16.5228 20.664 16.8663 20.25 16.8663Z" fill="#388E3C"/>
</g>
<path id="Path_10" d="M13.2285 0.177358C13.0575 0.0316983 12.828 -0.0311655 12.612 0.0148324L0.612 2.31473C0.2565 2.38219 0 2.69805 0 3.06756V19.9335C0 20.3015 0.2565 20.6188 0.612 20.6863L12.612 22.9862C12.657 22.9954 12.7035 23 12.75 23C12.924 23 13.0935 22.9387 13.2285 22.8237C13.401 22.678 13.5 22.4603 13.5 22.2334V0.767665C13.5 0.539209 13.401 0.323019 13.2285 0.177358Z" fill="#2E7D32"/>
<path id="Path_11" d="M10.3148 14.0625L7.94327 11.2919L10.3418 8.1395C10.5968 7.80525 10.5368 7.3238 10.2113 7.06315C9.88577 6.80249 9.41477 6.86382 9.15827 7.19654L6.93677 10.1159L5.06477 7.92944C4.79027 7.60746 4.31627 7.57833 4.00727 7.85738C3.69527 8.13643 3.66377 8.62095 3.93677 8.93833L5.99927 11.3486L3.90827 14.0962C3.65327 14.4305 3.71327 14.9119 4.03877 15.1726C4.17677 15.2814 4.34027 15.3336 4.50077 15.3336C4.72427 15.3336 4.94477 15.2324 5.09327 15.0377L7.00577 12.5231L9.18677 15.0699C9.33527 15.2446 9.54227 15.3336 9.75077 15.3336C9.92627 15.3336 10.1018 15.2707 10.2443 15.1435C10.5563 14.8644 10.5878 14.3799 10.3148 14.0625Z" fill="#FAFAFA"/>
</g>
</svg>
