<?xml version="1.0" encoding="utf-8"?>
<svg version="1.1" x="0px" y="0px" viewBox="4.213 14.475 91.172 68.303" style="enable-background:new 0 0 100 100;" xmlns="http://www.w3.org/2000/svg">
  <defs/>
  <path d="M49.11,70.69c6.53,0,11.85-5.32,11.85-11.85c0-6.54-5.32-11.86-11.85-11.86c-6.54,0-11.86,5.31-11.86,11.86  C37.26,65.37,42.57,70.69,49.11,70.69z M49.11,48.74c5.56,0,10.09,4.53,10.09,10.1c0,5.56-4.53,10.09-10.09,10.09  c-5.58,0-10.1-4.53-10.1-10.09C39.02,53.27,43.54,48.74,49.11,48.74z"/>
  <path d="M49.71,82.5c13.77,0,27.13-8.59,34.04-21.87c0.19-0.38,0.3-0.8,0.3-1.22v-0.2c0-0.36-0.07-0.71-0.21-1.03  c-5.91-13.97-19.78-23-35.32-23c-13.53,0-26.9,8.88-34.04,22.63c-0.19,0.38-0.3,0.8-0.3,1.22v0.2c0,0.35,0.07,0.7,0.21,1.02  C20.19,73.97,33.72,82.5,49.71,82.5z M48.51,40.46c13.04,0,24.69,7.32,30.01,18.75c-6.14,10.98-17.33,18.01-28.8,18.01  c-13.42,0-24.81-6.86-30.01-17.98C24.69,50.34,34.95,40.46,48.51,40.46z"/>
  <path d="M17.02,45.5c0.9-1.15,0.7-2.81-0.46-3.71l-5.84-4.55c-1.15-0.9-2.81-0.69-3.71,0.46c-0.9,1.15-0.69,2.81,0.46,3.71  l5.85,4.55c0.48,0.37,1.05,0.55,1.61,0.55C15.73,46.52,16.51,46.17,17.02,45.5z"/>
  <path d="M22.2,24.26c-1.26,0.74-1.67,2.36-0.93,3.62l3.78,6.38c0.49,0.83,1.37,1.3,2.28,1.3c0.45,0,0.92-0.13,1.34-0.38  c1.25-0.74,1.67-2.36,0.92-3.62l-3.78-6.38C25.08,23.94,23.46,23.52,22.2,24.26z"/>
  <path d="M40.4,17.54c-1.43,0.26-2.39,1.62-2.14,3.06l1.31,7.29c0.23,1.29,1.34,2.18,2.59,2.18c0.15,0,0.3-0.02,0.47-0.05  c1.43-0.26,2.39-1.63,2.14-3.06l-1.31-7.3C43.2,18.24,41.83,17.29,40.4,17.54z"/>
  <path d="M56.54,19.68l-1.31,7.3c-0.26,1.43,0.7,2.8,2.13,3.06c0.16,0.03,0.31,0.05,0.47,0.05c1.26,0,2.37-0.9,2.6-2.18l1.3-7.29  c0.26-1.44-0.69-2.81-2.13-3.06C58.17,17.29,56.8,18.24,56.54,19.68z"/>
  <path d="M74.18,25.19l-3.77,6.38c-0.75,1.26-0.34,2.88,0.92,3.62c0.42,0.25,0.88,0.38,1.34,0.38c0.91,0,1.78-0.47,2.28-1.3  l3.78-6.38c0.75-1.26,0.33-2.88-0.93-3.62C76.55,23.52,74.93,23.94,74.18,25.19z"/>
  <path d="M89.28,37.24l-5.84,4.55c-1.15,0.9-1.36,2.56-0.46,3.71c0.52,0.66,1.3,1.02,2.08,1.02c0.56,0,1.14-0.18,1.62-0.55l5.85-4.55  c1.14-0.9,1.35-2.56,0.46-3.71C92.09,36.55,90.43,36.34,89.28,37.24z"/>
  <text x="0" y="115" fill="#000000" font-size="5px" font-weight="bold" font-family="'Helvetica Neue', Helvetica, Arial-Unicode, Arial, Sans-serif" style="white-space: pre;">Created by kiddo</text>
  <text x="0" y="120" fill="#000000" font-size="5px" font-weight="bold" font-family="'Helvetica Neue', Helvetica, Arial-Unicode, Arial, Sans-serif" style="white-space: pre;">from the Noun Project</text>
</svg>