<svg width="17" height="9" viewBox="0 0 17 9" fill="none" xmlns="http://www.w3.org/2000/svg">
<path d="M16.9095 5.89122C16.9524 5.9725 16.9802 6.06223 16.9914 6.15529C17.0026 6.24835 16.997 6.34291 16.9748 6.43357C16.9526 6.52423 16.9142 6.60922 16.862 6.68369C16.8098 6.75815 16.7446 6.82063 16.6703 6.86757C16.596 6.9145 16.5139 6.94496 16.4289 6.95721C16.3438 6.96947 16.2573 6.96327 16.1744 6.93898C16.0915 6.91469 16.0138 6.87278 15.9457 6.81565C15.8777 6.75851 15.8205 6.68727 15.7776 6.60599L14.276 3.76136C13.3913 4.40943 12.4184 4.9003 11.3934 5.21576L11.8682 8.16099C11.8983 8.34768 11.8593 8.5398 11.7599 8.69509C11.6605 8.85038 11.5088 8.95614 11.3381 8.98909C11.3004 8.99633 11.2621 8.99998 11.2238 9C11.0703 8.99975 10.9218 8.94043 10.8042 8.83243C10.6867 8.72443 10.6077 8.57464 10.581 8.40931L10.1139 5.51207C9.04429 5.68296 7.95766 5.68255 6.88819 5.51084L6.42115 8.40808C6.39448 8.57344 6.31545 8.72325 6.19792 8.83127C6.08039 8.93929 5.93185 8.99862 5.77833 8.99887C5.74004 8.99884 5.70182 8.99519 5.6641 8.98796C5.49341 8.95503 5.34166 8.84931 5.24224 8.69403C5.14281 8.53875 5.10385 8.34663 5.13392 8.15994L5.60889 5.21349C4.58512 4.89753 3.61344 4.40657 2.72982 3.75879L1.2194 6.62012C1.17648 6.7014 1.11936 6.77265 1.05127 6.82978C0.98319 6.88692 0.905483 6.92883 0.822591 6.95312C0.739698 6.97741 0.653244 6.9836 0.568162 6.97135C0.483081 6.9591 0.401039 6.92863 0.326722 6.8817C0.252404 6.83477 0.187267 6.77229 0.135027 6.69782C0.0827878 6.62335 0.0444701 6.53836 0.0222617 6.4477C5.33816e-05 6.35704 -0.00561058 6.26248 0.00559312 6.16943C0.0167968 6.07637 0.0446488 5.98664 0.0875589 5.90535L1.68027 2.88814C1.12477 2.36527 0.613956 1.78814 0.15417 1.16392C0.0452518 1.01647 -0.0056506 0.82773 0.0126611 0.639229C0.0309728 0.450729 0.116999 0.277905 0.251814 0.158777C0.386629 0.0396486 0.55919 -0.0160253 0.731536 0.00400288C0.903882 0.024031 1.06189 0.11812 1.17081 0.265572C1.68115 0.960134 2.26357 1.58747 2.90634 2.13494C2.91147 2.13896 2.91615 2.14336 2.92114 2.14751C4.5161 3.50469 6.48398 4.23174 8.50469 4.2104C10.5249 4.23172 12.4923 3.50501 14.0871 2.14842C14.0914 2.14489 14.0954 2.14114 14.0998 2.13773C14.7438 1.58959 15.3273 0.961303 15.8385 0.265572C15.9475 0.11828 16.1054 0.0243355 16.2777 0.00438665C16.45 -0.0155622 16.6224 0.0401175 16.7572 0.159188C16.8919 0.278258 16.9779 0.450974 16.9963 0.639376C17.0147 0.827778 16.9639 1.01645 16.8551 1.16392C16.3944 1.78936 15.8826 2.36753 15.3258 2.89124L16.9095 5.89122Z" fill="black"/>
</svg>
