<svg width="442" height="460" viewBox="0 0 442 460" fill="none" xmlns="http://www.w3.org/2000/svg">
<path d="M221 442C333.113 442 424 347.083 424 230C424 112.916 333.113 18 221 18C108.886 18 18 112.916 18 230C18 263.914 25.6251 295.966 39.1822 324.393C42.7851 331.947 43.9842 340.581 41.8955 348.733L29.8047 395.926C24.5559 416.412 42.5023 435.152 62.119 429.672L107.308 417.046C115.114 414.864 123.382 416.117 130.615 419.878C157.834 434.037 188.526 442 221 442Z" stroke="#522B85" stroke-width="35"/>
<path d="M221.569 176.798L210.657 187.94C213.53 190.999 217.462 192.724 221.569 192.724C225.676 192.724 229.608 190.999 232.481 187.94L221.569 176.798ZM191.321 280.223C179.478 269.716 167.59 257.547 158.779 244.964C149.787 232.121 145.21 220.568 145.21 210.955H114.667C114.667 230.399 123.517 248.616 134.111 263.747C144.885 279.133 158.74 293.135 171.53 304.483L191.321 280.223ZM145.21 210.955C145.21 187.434 155.28 175.048 165.64 171.008C176.171 166.902 192.962 169.093 210.657 187.94L232.481 165.656C208.944 140.589 179.919 131.436 154.943 141.174C129.796 150.98 114.667 177.63 114.667 210.955H145.21ZM271.607 304.483C284.397 293.135 298.253 279.133 309.027 263.747C319.621 248.616 328.471 230.399 328.471 210.955H297.927C297.927 220.568 293.35 232.123 284.36 244.964C275.547 257.549 263.66 269.716 251.817 280.223L271.607 304.483ZM328.471 210.955C328.471 177.629 313.342 150.98 288.194 141.174C263.218 131.436 234.193 140.589 210.657 165.656L232.481 187.94C250.176 169.093 266.966 166.902 277.498 171.008C287.858 175.048 297.927 187.434 297.927 210.955H328.471ZM171.53 304.483C187.403 318.563 200.042 330.6 221.569 330.6V298.749C213.139 298.749 209.001 295.906 191.321 280.223L171.53 304.483ZM251.817 280.223C234.136 295.906 229.999 298.749 221.569 298.749V330.6C243.096 330.6 255.735 318.563 271.607 304.483L251.817 280.223Z" fill="#522B85"/>
</svg>
