<svg width="24" height="24" viewBox="0 0 24 24" fill="none" xmlns="http://www.w3.org/2000/svg">
<g id="ic / ic_password">
<g id="forgot">
<circle id="Oval" cx="13" cy="16" r="1" fill="black"/>
<path id="Shape" fill-rule="evenodd" clip-rule="evenodd" d="M6.16393 20.4375H16.0116C16.4485 20.4375 16.8026 20.7873 16.8026 21.2188C16.8026 21.6502 16.4485 22 16.0116 22H6.16393C4.41934 22 3 20.5981 3 18.875V12.4688C3 10.7456 4.41934 9.34375 6.16393 9.34375H7.11164V6.58852C7.11164 4.0584 9.24065 2 11.8575 2C14.4744 2 16.6034 4.0584 16.6034 6.58852V9.34375H17.5541C17.8837 9.34375 18.1691 9.37918 18.4267 9.45207C18.8466 9.57094 19.0895 10.0035 18.9692 10.4183C18.8489 10.833 18.4109 11.073 17.991 10.9541C17.8771 10.9219 17.7342 10.9062 17.5541 10.9062H6.16393C5.29163 10.9062 4.58196 11.6071 4.58196 12.4687V18.875C4.58196 19.7365 5.29163 20.4375 6.16393 20.4375ZM11.8575 3.5625C10.1129 3.5625 8.6936 4.91996 8.6936 6.58852V9.34375H15.0215V6.58852C15.0215 4.91996 13.6021 3.5625 11.8575 3.5625Z" fill="black"/>
<circle id="Oval_2" cx="10" cy="16" r="1" fill="black"/>
<path id="Path" d="M21.9993 14.6423C21.9808 13.1825 20.6423 12 18.9997 12C17.3457 12 16 13.1991 16 14.673C16 15.0887 16.3782 15.4257 16.8447 15.4257C17.3112 15.4257 17.6894 15.0887 17.6894 14.673C17.6894 14.0292 18.2772 13.5054 18.9998 13.5054C19.7223 13.5054 20.3101 14.0292 20.3101 14.673C20.3101 14.6798 20.3102 14.6866 20.3104 14.6934C20.3017 15.1543 19.991 15.567 19.5137 15.7485C18.6884 16.0626 18.1551 16.7879 18.1551 17.5964V18.2473C18.1551 18.663 18.5332 19 18.9998 19C19.4663 19 19.8445 18.663 19.8445 18.2473V17.5964C19.8445 17.3917 19.9751 17.2098 20.1771 17.133C21.2848 16.7116 22.0003 15.746 22 14.6728C22 14.6626 21.9997 14.6524 21.9993 14.6423Z" fill="black"/>
<circle id="Oval_3" cx="19" cy="21" r="1" fill="black"/>
<circle id="Oval_4" cx="7" cy="16" r="1" fill="black"/>
</g>
</g>
</svg>
