<svg width="114" height="114" viewBox="0 0 114 114" fill="none" xmlns="http://www.w3.org/2000/svg">
  <g clip-path="url(#clip0_91_1352)">
  <path d="M101.49 113.924H12.5088C10.1776 113.924 8.28882 112.035 8.28882 109.704V41.6627H105.711V109.704C105.711 112.035 103.82 113.924 101.49 113.924Z" fill="#FFC73B"/>
  <path d="M8.28882 41.6627H105.711V55.8214H8.28882V41.6627Z" fill="#EFB025"/>
  <path d="M114 26.9022V44.4432C114 46.3169 112.48 47.8343 110.606 47.8343H3.39105C1.51762 47.8343 0 46.3169 0 44.4432V26.9024C0 25.0287 1.51762 23.5111 3.39105 23.5111H110.606C112.48 23.5111 114 25.0287 114 26.9022Z" fill="#FFC73B"/>
  <path d="M53.1245 31.5756C52.3848 32.4366 51.6596 33.3099 50.9491 34.1951C48.3164 37.472 45.8964 40.9143 43.7041 44.5008C43.0327 45.5996 42.3823 46.711 41.7532 47.8346H18.6326C19.9839 44.7688 21.4641 41.7615 23.0692 38.8206C25.9871 33.471 29.3106 28.3529 33.0106 23.5112C33.8972 22.3503 34.8051 21.2058 35.7337 20.0783C36.2903 19.3981 36.8565 18.7274 37.4305 18.0594L43.7598 23.5112C44.0869 23.7913 44.4139 24.0747 44.7401 24.3557C47.231 26.5006 49.7221 28.6443 52.212 30.7918C52.5173 31.051 52.8199 31.3146 53.1245 31.5756ZM87.6213 47.8346H64.4991C63.871 46.7105 63.2206 45.599 62.5482 44.5008C60.3549 40.9148 57.9349 37.4726 55.3029 34.1951C54.5909 33.3102 53.8647 32.4368 53.1245 31.5753C53.4295 31.3146 53.7323 31.0528 54.0376 30.7918C56.5304 28.6443 59.0213 26.4979 61.5115 24.3557C61.8383 24.0747 62.1654 23.7913 62.4925 23.5112C64.6026 21.6934 66.7134 19.8774 68.8217 18.0594C69.3954 18.725 69.9609 19.3974 70.5184 20.0765C71.4479 21.2039 72.3559 22.349 73.2417 23.5112C76.9417 28.3533 80.2657 33.4713 83.1848 38.8206C84.7899 41.7615 86.27 44.7688 87.6213 47.8346Z" fill="#EFB025"/>
  <path d="M56.9983 31.5771C56.2579 32.4375 55.5325 33.3106 54.8223 34.196C52.1895 37.4733 49.7695 40.9159 47.577 44.5027C40.6106 55.89 36.0213 68.5696 34.0856 81.7776C31.1641 77.9027 28.468 73.7106 26.0422 69.2278C21.7752 72.011 17.6046 75.1943 13.589 78.776C15.6419 64.7726 20.1634 51.2447 26.9432 38.8212C30.5616 32.1871 34.8019 25.9115 39.6068 20.0791C40.1645 19.3996 40.7301 18.7266 41.3035 18.0603C43.7407 20.1591 46.1761 22.2578 48.6139 24.3566C51.1041 26.5012 53.595 28.6452 56.0861 30.7927C56.3904 31.0519 56.693 31.3155 56.9983 31.5771ZM100.409 78.7758C96.3937 75.1943 92.2232 72.011 87.9562 69.2278C85.5306 73.7106 82.8342 77.9025 79.9127 81.7774C77.9773 68.5692 73.388 55.8896 66.4211 44.5025C64.2281 40.9162 61.8082 37.4736 59.1761 34.196C58.4643 33.3114 57.7384 32.4383 56.9985 31.5771C57.3026 31.3155 57.6055 31.0536 57.9107 30.7927C60.4034 28.6452 62.8944 26.4988 65.3853 24.3566C67.8223 22.2551 70.2603 20.1591 72.6946 18.0603C73.2683 18.7258 73.834 19.3982 74.3915 20.0773C79.1974 25.9102 83.4386 32.1864 87.0578 38.8212C93.836 51.2452 98.3565 64.773 100.409 78.776L100.409 78.7758Z" fill="#FF4440"/>
  <path d="M47.9232 31.5771H66.0759V47.8346H47.9232V31.5771Z" fill="#FF4440"/>
  <path d="M87.0577 38.8212L66.4212 44.5025C64.2282 40.9162 61.8082 37.4737 59.176 34.196L57.9106 30.7927L56.9982 28.3381L65.3852 24.3566L74.3916 20.0771C79.1975 25.9101 83.4385 32.1863 87.0577 38.8212Z" fill="#EA2F2F"/>
  <path d="M56.9983 28.3381L56.086 30.7927L54.8222 34.196C52.1895 37.4732 49.7695 40.9159 47.577 44.5027L26.9432 38.8212C30.5616 32.187 34.8018 25.9115 39.6068 20.0791L48.6139 24.3563L56.9983 28.3381Z" fill="#EA2F2F"/>
  <path d="M89.934 0.78885L56.9991 16.4296L63.3256 33.4445L98.4793 23.7685C103.077 22.503 105.602 17.5689 103.94 13.0993L101.039 5.29764C99.3777 0.828037 94.2419 -1.25692 89.934 0.78885ZM24.0642 0.78885L56.9991 16.4296L50.6725 33.4445L15.5198 23.7685C10.9224 22.503 8.39657 17.5689 10.0587 13.0993L12.9592 5.29764C14.6214 0.828037 19.7563 -1.25692 24.0642 0.78885Z" fill="#FF4440"/>
  <path d="M64.8633 23.2676C64.5583 23.2681 64.2581 23.1916 63.9905 23.0452C63.7229 22.8988 63.4966 22.6872 63.3326 22.43C63.2041 22.2292 63.1164 22.0052 63.0746 21.7705C63.0327 21.5359 63.0375 21.2953 63.0886 21.0626C63.1398 20.8298 63.2362 20.6094 63.3726 20.4139C63.5089 20.2184 63.6824 20.0517 63.8832 19.9233C64.1328 19.7643 70.0646 15.9894 76.8748 13.2349C86.6923 9.26364 93.2487 9.47672 96.359 13.8682C96.4969 14.0627 96.5951 14.2825 96.648 14.515C96.7009 14.7475 96.7075 14.9882 96.6673 15.2233C96.6272 15.4583 96.5411 15.6831 96.414 15.8849C96.2869 16.0867 96.1212 16.2614 95.9266 16.3991C95.7321 16.5369 95.5123 16.635 95.2799 16.6879C95.0475 16.7407 94.807 16.7472 94.572 16.7071C94.3371 16.667 94.1123 16.581 93.9106 16.454C93.7089 16.327 93.5342 16.1615 93.3965 15.9669C89.1799 10.0144 71.6483 19.2703 65.8392 22.9824C65.5479 23.1688 65.2092 23.2678 64.8633 23.2676ZM48.9557 23.2676C48.6098 23.2678 48.2711 23.1688 47.9798 22.9824C42.1707 19.2703 24.6392 10.0144 20.4227 15.9667C20.1444 16.3597 19.7213 16.6259 19.2466 16.707C18.772 16.788 18.2845 16.6772 17.8916 16.3989C17.4988 16.1204 17.2327 15.6974 17.1518 15.2227C17.0709 14.7481 17.1819 14.2608 17.4603 13.8679C20.5706 9.47672 27.1258 9.26341 36.9445 13.2347C43.7546 15.9885 49.6862 19.7641 49.9358 19.9233C50.3412 20.1827 50.627 20.5924 50.7304 21.0624C50.8338 21.5324 50.7464 22.0242 50.4873 22.4297C50.323 22.6868 50.0965 22.8983 49.8288 23.0447C49.5611 23.1911 49.2608 23.2679 48.9557 23.2676Z" fill="#EA2F2F"/>
  <path d="M62.1636 10.5813H51.8346C49.0077 10.5813 46.7159 12.8731 46.7159 15.7008V30.7065C46.7159 33.5343 49.0077 35.8258 51.8346 35.8258H62.1636C64.9905 35.8258 67.2823 33.534 67.2823 30.7065V15.7008C67.2823 12.8731 64.9905 10.5813 62.1636 10.5813Z" fill="#EA2F2F"/>
  <path d="M47.9232 47.8346H66.0759V113.924H47.9232V47.8346Z" fill="#FF4440"/>
  <path d="M47.9232 47.8346H66.0759V55.8215H47.9232V47.8346Z" fill="#EA2F2F"/>
  </g>
  <defs>
  <clipPath id="clip0_91_1352">
  <rect width="114" height="114" fill="white"/>
  </clipPath>
  </defs>
</svg>
  