<svg width="20" height="20" viewBox="0 0 20 20" fill="none" xmlns="http://www.w3.org/2000/svg">
<g opacity="0.8" clip-path="url(#clip0_1_1004)">
<path opacity="0.5" d="M17.5002 5.65639H17.5H17.0309C17.4625 5.09095 17.72 4.38179 17.72 3.61264C17.72 3.35443 17.6908 3.10332 17.6363 2.86198C17.6346 2.85431 17.6322 2.84696 17.6292 2.83999C17.3326 1.74811 16.4483 0.918437 15.343 0.705519L15.343 0.705507L15.3413 0.705208L15.3238 0.702083L15.3239 0.70202L15.3199 0.701442C15.1843 0.6817 15.0295 0.671387 14.8731 0.671387C13.6558 0.671387 12.5913 1.32891 12.0166 2.30681L12.0165 2.30677L12.0145 2.3106L12.0097 2.31949L10.0006 5.20926L7.99094 2.31764C7.40594 1.32676 6.34286 0.671387 5.12563 0.671387C4.96909 0.671387 4.81588 0.682431 4.66542 0.703184C4.65653 0.70441 4.64798 0.706545 4.63987 0.709481C3.52148 0.937548 2.64364 1.77864 2.3658 2.86093L2.36575 2.86092L2.36495 2.86448L2.36072 2.8832C2.36069 2.88331 2.36067 2.88341 2.36065 2.88352C2.30969 3.1038 2.28062 3.35566 2.28062 3.61326C2.28062 4.38151 2.53752 5.08932 2.9698 5.65639H2.5H2.49984C1.48218 5.65773 0.657591 6.48232 0.65625 7.49997V7.50014L0.656249 9.37514L0.656251 9.37554C0.658841 10.1831 1.18104 10.8677 1.90625 11.1131L1.90625 17.5001L1.90625 17.5003C1.90759 18.518 2.73218 19.3425 3.74984 19.3439H3.75H16.25H16.2502C17.2678 19.3425 18.0924 18.518 18.0938 17.5003V17.5001V11.1123C18.823 10.8612 19.3405 10.1796 19.3438 9.37626V9.37576V7.50014V7.49997C19.3424 6.48232 18.5178 5.65773 17.5002 5.65639ZM12.987 2.99144L12.9875 2.99178L12.9935 2.98108C13.37 2.3068 14.0781 1.85951 14.89 1.85951C14.9642 1.85951 15.0377 1.86349 15.1107 1.87061C15.7873 2.00177 16.318 2.50733 16.4849 3.15765L16.4866 3.16468C16.5032 3.27512 16.5131 3.40313 16.5131 3.53326C16.5131 4.41351 16.073 5.1906 15.3997 5.65701H11.1359L12.987 2.99144ZM3.4875 3.53264C3.4875 3.40856 3.49641 3.28705 3.51327 3.16753C3.68353 2.50489 4.21387 2.00186 4.87668 1.87264L4.88365 1.87154C4.94897 1.86421 5.02629 1.86014 5.105 1.86014C5.91861 1.86014 6.62727 2.30726 6.9998 2.96954L7.00573 2.98022L7.00518 2.98052L7.01236 2.99085L8.86464 5.65576H4.60129C3.92369 5.18319 3.4875 4.4083 3.4875 3.53264ZM1.84375 9.37496V7.50032C1.84375 7.50029 1.84375 7.50026 1.84375 7.50024C1.84432 7.13792 2.13785 6.84441 2.50018 6.84389H9.40625V10.0314H2.50018C2.13785 10.0309 1.84432 9.73735 1.84375 9.37503C1.84375 9.37501 1.84375 9.37498 1.84375 9.37496ZM3.09375 17.5L3.09375 11.2189H9.40625V18.1564H3.75018C3.38788 18.1559 3.09436 17.8624 3.09375 17.5001C3.09375 17.5001 3.09375 17.5 3.09375 17.5ZM16.9062 17.5C16.9057 17.8623 16.6122 18.1559 16.2498 18.1564H10.5938V11.2189H16.9062V17.5ZM18.1562 9.37496C18.1557 9.73731 17.8622 10.0309 17.4998 10.0314H10.5938V6.84389H17.4998C17.8622 6.84441 18.1557 7.13796 18.1562 7.50032V9.37496Z" fill="white" stroke="white" stroke-width="0.25" stroke-linejoin="round"/>
</g>
<defs>
<clipPath id="clip0_1_1004">
<rect width="20" height="20" fill="white"/>
</clipPath>
</defs>
</svg>
