<svg width="16" height="16" viewBox="0 0 16 16" fill="none" xmlns="http://www.w3.org/2000/svg">
  <path fill-rule="evenodd" clip-rule="evenodd"
    d="M0 13.328C0 14.784 1.2 16 2.64 16H13.36C14.8 16 15.92 14.864 16 13.328V7.488C16 6.752 15.68 6.016 15.12 5.536L9.76 0.672C8.72 -0.224 7.28 -0.224 6.24 0.672L0.88 5.536C0.32 6.032 0 6.752 0 7.488V13.328ZM7.28 1.888C7.52 1.728 7.76 1.648 8 1.648C8.24 1.648 8.48 1.728 8.64 1.888L14 6.752C14.0073 6.76366 14.0146 6.77529 14.0218 6.78689C14.1742 7.03003 14.32 7.26258 14.32 7.568V13.408C14.32 13.984 13.84 14.464 13.28 14.464H2.64C2.08 14.464 1.6 13.968 1.6 13.408V7.568C1.6 7.232 1.68 6.912 1.92 6.752L7.28 1.888Z"
    fill="black" />
</svg>
