<svg width="94" height="57" viewBox="0 0 94 57" fill="none" xmlns="http://www.w3.org/2000/svg">
<path d="M44.1348 37.5063V34.4485C44.1348 33.668 44.7722 33.0352 45.5584 33.0352H48.4326C48.8102 33.0352 49.1723 33.1841 49.4393 33.4492C49.7063 33.7142 49.8563 34.0737 49.8563 34.4485V37.5063C49.8539 37.8308 49.9821 38.1428 50.2124 38.3731C50.4427 38.6034 50.7561 38.7329 51.0829 38.7329H53.0438C53.9596 38.7353 54.8388 38.3758 55.4872 37.7337C56.1356 37.0917 56.5 36.2199 56.5 35.3107V26.5998C56.5 25.8654 56.1721 25.1688 55.6046 24.6976L48.934 19.4088C47.7737 18.4815 46.1111 18.5114 44.9854 19.4799L38.467 24.6976C37.8727 25.1549 37.5176 25.8535 37.5 26.5998V35.3018C37.5 37.1968 39.0474 38.7329 40.9562 38.7329H42.8723C43.5512 38.7329 44.103 38.1891 44.1079 37.5151L44.1348 37.5063Z" fill="white"/>
<rect x="46" y="36" width="2" height="5" rx="1" fill="#ED1B2E"/>
</svg>
