<svg width="22" height="17" viewBox="0 0 22 17" fill="none" xmlns="http://www.w3.org/2000/svg">
<g id="id-card">
<g id="Shape">
<path fill-rule="evenodd" clip-rule="evenodd" d="M3.08333 16H18.9167C20.065 16 21 15.065 21 13.9167V3.08333C21 1.935 20.065 1 18.9167 1H3.08333C1.935 1 1 1.935 1 3.08333V13.9167C1 15.065 1.935 16 3.08333 16ZM1.83333 3.08333C1.83333 2.39417 2.39417 1.83333 3.08333 1.83333H18.9167C19.6058 1.83333 20.1667 2.39417 20.1667 3.08333V13.9167C20.1667 14.6058 19.6058 15.1667 18.9167 15.1667H3.08333C2.39417 15.1667 1.83333 14.6058 1.83333 13.9167V3.08333Z" fill="#C1C1C1"/>
<path d="M18.9167 15.75H3.08333V16.25H18.9167V15.75ZM20.75 13.9167C20.75 14.9269 19.9269 15.75 18.9167 15.75V16.25C20.2031 16.25 21.25 15.2031 21.25 13.9167H20.75ZM20.75 3.08333V13.9167H21.25V3.08333H20.75ZM18.9167 1.25C19.9269 1.25 20.75 2.07307 20.75 3.08333H21.25C21.25 1.79693 20.2031 0.75 18.9167 0.75V1.25ZM3.08333 1.25H18.9167V0.75H3.08333V1.25ZM1.25 3.08333C1.25 2.07307 2.07307 1.25 3.08333 1.25V0.75C1.79693 0.75 0.75 1.79693 0.75 3.08333H1.25ZM1.25 13.9167V3.08333H0.75V13.9167H1.25ZM3.08333 15.75C2.07307 15.75 1.25 14.9269 1.25 13.9167H0.75C0.75 15.2031 1.79693 16.25 3.08333 16.25V15.75ZM3.08333 1.58333C2.2561 1.58333 1.58333 2.2561 1.58333 3.08333H2.08333C2.08333 2.53224 2.53224 2.08333 3.08333 2.08333V1.58333ZM18.9167 1.58333H3.08333V2.08333H18.9167V1.58333ZM20.4167 3.08333C20.4167 2.2561 19.7439 1.58333 18.9167 1.58333V2.08333C19.4678 2.08333 19.9167 2.53224 19.9167 3.08333H20.4167ZM20.4167 13.9167V3.08333H19.9167V13.9167H20.4167ZM18.9167 15.4167C19.7439 15.4167 20.4167 14.7439 20.4167 13.9167H19.9167C19.9167 14.4678 19.4678 14.9167 18.9167 14.9167V15.4167ZM3.08333 15.4167H18.9167V14.9167H3.08333V15.4167ZM1.58333 13.9167C1.58333 14.7439 2.2561 15.4167 3.08333 15.4167V14.9167C2.53224 14.9167 2.08333 14.4678 2.08333 13.9167H1.58333ZM1.58333 3.08333V13.9167H2.08333V3.08333H1.58333Z" fill="#C1C1C1"/>
</g>
<g id="Shape_2">
<path fill-rule="evenodd" clip-rule="evenodd" d="M5.16797 6.41634C5.16797 7.56467 6.10297 8.49967 7.2513 8.49967C8.39964 8.49967 9.33464 7.56467 9.33464 6.41634C9.33464 5.26801 8.39964 4.33301 7.2513 4.33301C6.10297 4.33301 5.16797 5.26801 5.16797 6.41634ZM6.0013 6.41634C6.0013 5.72717 6.56214 5.16634 7.2513 5.16634C7.94047 5.16634 8.5013 5.72717 8.5013 6.41634C8.5013 7.10551 7.94047 7.66634 7.2513 7.66634C6.56214 7.66634 6.0013 7.10551 6.0013 6.41634Z" fill="#C1C1C1"/>
<path d="M7.2513 8.24967C6.24104 8.24967 5.41797 7.4266 5.41797 6.41634H4.91797C4.91797 7.70275 5.9649 8.74967 7.2513 8.74967V8.24967ZM9.08464 6.41634C9.08464 7.4266 8.26156 8.24967 7.2513 8.24967V8.74967C8.53771 8.74967 9.58464 7.70275 9.58464 6.41634H9.08464ZM7.2513 4.58301C8.26156 4.58301 9.08464 5.40608 9.08464 6.41634H9.58464C9.58464 5.12994 8.53771 4.08301 7.2513 4.08301V4.58301ZM5.41797 6.41634C5.41797 5.40608 6.24104 4.58301 7.2513 4.58301V4.08301C5.9649 4.08301 4.91797 5.12994 4.91797 6.41634H5.41797ZM7.2513 4.91634C6.42406 4.91634 5.7513 5.5891 5.7513 6.41634H6.2513C6.2513 5.86525 6.70021 5.41634 7.2513 5.41634V4.91634ZM8.7513 6.41634C8.7513 5.5891 8.07854 4.91634 7.2513 4.91634V5.41634C7.8024 5.41634 8.2513 5.86525 8.2513 6.41634H8.7513ZM7.2513 7.91634C8.07854 7.91634 8.7513 7.24358 8.7513 6.41634H8.2513C8.2513 6.96744 7.8024 7.41634 7.2513 7.41634V7.91634ZM5.7513 6.41634C5.7513 7.24358 6.42406 7.91634 7.2513 7.91634V7.41634C6.70021 7.41634 6.2513 6.96744 6.2513 6.41634H5.7513Z" fill="#C1C1C1"/>
</g>
<path id="Path" d="M10.5833 12.6663C10.3533 12.6663 10.1667 12.4797 10.1667 12.2497V11.4163C10.1667 10.7272 9.60583 10.1663 8.91667 10.1663H5.58333C4.89417 10.1663 4.33333 10.7272 4.33333 11.4163V12.2497C4.33333 12.4797 4.14667 12.6663 3.91667 12.6663C3.68667 12.6663 3.5 12.4797 3.5 12.2497V11.4163C3.5 10.268 4.435 9.33301 5.58333 9.33301H8.91667C10.065 9.33301 11 10.268 11 11.4163V12.2497C11 12.4797 10.8133 12.6663 10.5833 12.6663Z" fill="#C1C1C1" stroke="#C1C1C1" stroke-width="0.5"/>
<path id="Path_2" d="M18.0846 6.00033H13.0846C12.8546 6.00033 12.668 5.81366 12.668 5.58366C12.668 5.35366 12.8546 5.16699 13.0846 5.16699H18.0846C18.3146 5.16699 18.5013 5.35366 18.5013 5.58366C18.5013 5.81366 18.3146 6.00033 18.0846 6.00033Z" fill="#C1C1C1" stroke="#C1C1C1" stroke-width="0.5"/>
<path id="Path_3" d="M18.0846 9.33333H13.0846C12.8546 9.33333 12.668 9.14667 12.668 8.91667C12.668 8.68667 12.8546 8.5 13.0846 8.5H18.0846C18.3146 8.5 18.5013 8.68667 18.5013 8.91667C18.5013 9.14667 18.3146 9.33333 18.0846 9.33333Z" fill="#C1C1C1" stroke="#C1C1C1" stroke-width="0.5"/>
<path id="Path_4" d="M18.0846 12.6663H13.0846C12.8546 12.6663 12.668 12.4797 12.668 12.2497C12.668 12.0197 12.8546 11.833 13.0846 11.833H18.0846C18.3146 11.833 18.5013 12.0197 18.5013 12.2497C18.5013 12.4797 18.3146 12.6663 18.0846 12.6663Z" fill="#C1C1C1" stroke="#C1C1C1" stroke-width="0.5"/>
</g>
</svg>
