<svg width="12" height="15" viewBox="0 0 12 15" fill="none" xmlns="http://www.w3.org/2000/svg">
  <path id="Shape" fill-rule="evenodd" clip-rule="evenodd"
    d="M0.000648805 5.68447C0.00583475 2.54919 2.57806 0 5.73913 0C8.9002 0 11.4724 2.54919 11.4776 5.68447C11.4814 5.84537 11.4885 7.13915 10.8718 8.85202C10.283 10.4877 8.98506 12.8526 6.14552 14.8293C6.02341 14.914 5.88151 14.9565 5.73913 14.9565C5.59675 14.9565 5.45485 14.914 5.33274 14.8293C2.4932 12.8526 1.1953 10.4877 0.606461 8.85202C-0.0101945 7.13915 -0.00312279 5.84537 0.000648805 5.68447ZM3.35501 5.69336C3.35501 6.99789 4.42426 8.0592 5.73913 8.0592C7.054 8.0592 8.12325 6.99789 8.12325 5.69336C8.12325 4.38929 7.054 3.32799 5.73913 3.32799C4.42426 3.32799 3.35501 4.38929 3.35501 5.69336Z"
    fill="#19516c" />
</svg>
