<svg width="20" height="20" viewBox="0 0 20 20" fill="none" xmlns="http://www.w3.org/2000/svg">
<path d="M6.65552 10.9826H15.3764L13.3678 13.0427L14.7447 14.423L19.1576 9.99916L14.7447 5.57275L13.3196 6.95304L15.3746 9.01312H6.65552V10.9826Z" fill="#FA3636"/>
<path d="M9.58814 17.615C8.33871 17.6167 7.10812 17.3096 6.00535 16.7208C4.90258 16.132 3.96165 15.2797 3.26589 14.2394C2.57014 13.199 2.14102 12.0027 2.01654 10.7564C1.89206 9.51014 2.07606 8.25231 2.55225 7.09432C3.02843 5.93634 3.78211 4.91393 4.74654 4.11764C5.71097 3.32135 6.85639 2.77574 8.08137 2.52914C9.30635 2.28255 10.5731 2.34256 11.7694 2.70388C12.9657 3.06519 14.0547 3.71665 14.9399 4.60058L16.3332 3.2039C15.9384 2.81396 15.5124 2.45706 15.0595 2.13677C13.5679 1.08933 11.8091 0.490334 9.98969 0.41014C8.17027 0.329946 6.36581 0.771882 4.78824 1.68404C3.21066 2.5962 1.9255 3.9407 1.08368 5.55962C0.241864 7.17855 -0.121642 9.00467 0.035858 10.8235C0.193358 12.6423 0.865323 14.3784 1.97283 15.8276C3.08033 17.2769 4.57739 18.3793 6.28815 19.0053C7.99892 19.6313 9.85236 19.7549 11.6308 19.3616C13.4092 18.9684 15.0387 18.0745 16.328 16.7851L14.9399 15.3936C14.2385 16.0999 13.4044 16.6599 12.4858 17.0412C11.5672 17.4225 10.5824 17.6175 9.58814 17.615Z" fill="#FA3636"/>
<path d="M18.4241 10.0359L18.3854 9.99722L18.4241 9.9585L18.4628 9.99722L18.4241 10.0359Z" fill="#FA3636"/>
</svg>
