<svg width="16" height="23" viewBox="0 0 16 23" fill="none" xmlns="http://www.w3.org/2000/svg">
<g id="manager">
<path id="Shape" fill-rule="evenodd" clip-rule="evenodd" d="M13.0482 10.9149C12.7505 10.8184 11.9294 10.5663 11.7741 10.5186L11.7498 10.5111C11.3935 10.4019 11.015 10.5938 10.8875 10.9483L9.1219 15.8589L8.70653 12.9433L9.5016 11.5475C9.62697 11.3275 9.62697 11.0563 9.5016 10.8363C9.37623 10.6162 9.14467 10.4807 8.89393 10.4807H7.1063C6.85556 10.4807 6.624 10.6163 6.49863 10.8363C6.37326 11.0564 6.37326 11.3275 6.49863 11.5475L7.29385 12.9437L6.88528 15.8785L5.11262 10.9483C4.98511 10.5938 4.60656 10.4017 4.25032 10.5111C4.21059 10.5233 3.27434 10.8104 2.95194 10.9149C1.18631 11.4878 0 13.1526 0 15.0577V22.289C0 22.6817 0.314148 23.0002 0.701638 23.0002H15.2984C15.6859 23.0002 16 22.6817 16 22.289V15.0577C16.0001 13.1526 14.8138 11.4878 13.0482 10.9149ZM1.40335 21.5777V15.0577C1.40335 13.7736 2.19758 12.6532 3.37969 12.2697C3.51537 12.2256 3.77306 12.1452 4.02166 12.0683L7.34076 21.2997C7.3798 21.4081 7.44314 21.5027 7.52312 21.5778H1.40335V21.5777ZM8.47688 21.5777H14.5968V15.0576C14.5968 13.7734 13.8026 12.6531 12.6205 12.2696C12.4849 12.2255 12.227 12.1452 11.9785 12.0682L8.65931 21.2995C8.62027 21.408 8.55694 21.5025 8.47688 21.5777Z" fill="#C1C1C1"/>
<path id="Shape_2" fill-rule="evenodd" clip-rule="evenodd" d="M12.3501 4.41021C12.3501 6.84202 10.3983 8.82049 7.99922 8.82049C5.60017 8.82049 3.64844 6.84202 3.64844 4.41021C3.64844 1.97839 5.6001 0 7.99922 0C10.3983 0 12.3501 1.97839 12.3501 4.41021ZM10.9468 4.41021C10.9468 2.7628 9.62443 1.42252 7.99922 1.42252C6.37401 1.42252 5.05179 2.76272 5.05179 4.41021C5.05179 6.05769 6.37393 7.39805 7.99922 7.39805C9.62451 7.39805 10.9468 6.05762 10.9468 4.41021Z" fill="#C1C1C1"/>
</g>
</svg>
