<svg width="101" height="27" viewBox="0 0 101 27" fill="none" xmlns="http://www.w3.org/2000/svg">
<path d="M42.4 12.72C42.4 19.7194 36.7466 25.44 29.68 25.44C22.6806 25.44 16.96 19.7194 16.96 12.72C16.96 5.72064 22.6133 2.86102e-06 29.6127 2.86102e-06C36.7466 2.86102e-06 42.4 5.72064 42.4 12.72Z" fill="#FFB600"/>
<path d="M29.68 2.86102e-06C36.6793 2.86102e-06 42.4 5.72064 42.4 12.72C42.4 19.7194 36.7466 25.44 29.68 25.44C22.6806 25.44 16.96 19.7194 16.96 12.72" fill="#F7981D"/>
<path d="M29.6797 2.86102e-06C36.6791 2.86102e-06 42.3997 5.72064 42.3997 12.72C42.3997 19.7194 36.7464 25.44 29.6797 25.44" fill="#FF8500"/>
<path d="M12.5854 0C5.65333 0.0673016 0 5.72064 0 12.72C0 19.7194 5.65333 25.44 12.72 25.44C16.0178 25.44 18.979 24.1613 21.2673 22.1422C21.7384 21.7384 22.1422 21.2673 22.546 20.7962H19.9213C19.5848 20.3924 19.2483 19.9213 18.979 19.5175H23.4883C23.7575 19.1137 24.0267 18.6425 24.2286 18.1714H18.2387C18.0368 17.7676 17.8349 17.2965 17.7003 16.8254H24.6997C25.1035 15.5467 25.3727 14.2006 25.3727 12.7873C25.3727 11.8451 25.2381 10.9702 25.1035 10.0952H17.2965C17.3638 9.62413 17.4984 9.22032 17.633 8.74921H24.6324C24.4978 8.2781 24.2959 7.80698 24.094 7.40318H18.1714C18.3733 6.93206 18.6425 6.52825 18.9117 6.05714H23.4209C23.1517 5.58603 22.8152 5.11492 22.4114 4.71111H19.9213C20.3251 4.24 20.7289 3.83619 21.2 3.43238C18.979 1.34603 15.9505 0.134603 12.6527 0.134603C12.6527 -1.30373e-07 12.6527 0 12.5854 0Z" fill="#FF5050"/>
<path d="M0 12.72C0 19.7193 5.65333 25.44 12.72 25.44C16.0178 25.44 18.979 24.1612 21.2673 22.1422C21.7384 21.7384 22.1422 21.2673 22.546 20.7962H19.9213C19.5848 20.3923 19.2483 19.9212 18.979 19.5174H23.4883C23.7575 19.1136 24.0267 18.6425 24.2286 18.1714H18.2387C18.0368 17.7676 17.8349 17.2965 17.7003 16.8254H24.6997C25.1035 15.5466 25.3727 14.2006 25.3727 12.7873C25.3727 11.845 25.2381 10.9701 25.1035 10.0952H17.2965C17.3638 9.6241 17.4984 9.22029 17.633 8.74918H24.6324C24.4978 8.27806 24.2959 7.80695 24.094 7.40314H18.1714C18.3733 6.93203 18.6425 6.52822 18.9117 6.05711H23.4209C23.1517 5.586 22.8152 5.11489 22.4114 4.71108H19.9213C20.3251 4.23997 20.7289 3.83616 21.2 3.43235C18.979 1.346 15.9505 0.134573 12.6527 0.134573H12.5854" fill="#E52836"/>
<path d="M12.7201 25.44C16.0178 25.44 18.9791 24.1612 21.2674 22.1422C21.7385 21.7384 22.1423 21.2673 22.5461 20.7962H19.9213C19.5848 20.3923 19.2483 19.9212 18.9791 19.5174H23.4883C23.7575 19.1136 24.0267 18.6425 24.2286 18.1714H18.2388C18.0369 17.7676 17.835 17.2965 17.7004 16.8254H24.6997C25.1035 15.5466 25.3728 14.2006 25.3728 12.7873C25.3728 11.845 25.2381 10.9701 25.1035 10.0952H17.2966C17.3639 9.6241 17.4985 9.22029 17.6331 8.74918H24.6324C24.4978 8.27806 24.2959 7.80695 24.094 7.40314H18.1715C18.3734 6.93203 18.6426 6.52822 18.9118 6.05711H23.421C23.1518 5.586 22.8153 5.11489 22.4115 4.71108H19.9213C20.3251 4.23997 20.7289 3.83616 21.2001 3.43235C18.9791 1.346 15.9505 0.134573 12.6527 0.134573H12.5854" fill="#CB2026"/>
<path d="M17.2296 15.9504L17.4315 14.8063C17.3642 14.8063 17.2296 14.8736 17.095 14.8736C16.6239 14.8736 16.5566 14.6044 16.6239 14.4698L17.0277 12.1142H17.768L17.9699 10.8355H17.2969L17.4315 10.0279H16.0855C16.0855 10.0279 15.2778 14.4698 15.2778 15.0082C15.2778 15.8158 15.7489 16.1523 16.3547 16.1523C16.7585 16.1523 17.095 16.0177 17.2296 15.9504Z" fill="white"/>
<path d="M17.7007 13.7969C17.7007 15.6813 18.9794 16.1524 20.0562 16.1524C21.0658 16.1524 21.4696 15.9505 21.4696 15.9505L21.7388 14.6718C21.7388 14.6718 20.9985 15.0083 20.3254 15.0083C18.8448 15.0083 19.114 13.9315 19.114 13.9315H21.8734C21.8734 13.9315 22.0753 13.0565 22.0753 12.72C22.0753 11.8451 21.6042 10.7683 20.1235 10.7683C18.7102 10.6337 17.7007 12.1143 17.7007 13.7969ZM20.0562 11.8451C20.7966 11.8451 20.662 12.72 20.662 12.7873H19.1813C19.1813 12.72 19.3159 11.8451 20.0562 11.8451Z" fill="white"/>
<path d="M28.6034 15.9506L28.8726 14.4699C28.8726 14.4699 28.1996 14.8064 27.7285 14.8064C26.7863 14.8064 26.3825 14.0661 26.3825 13.2585C26.3825 11.6433 27.1901 10.7683 28.1323 10.7683C28.8053 10.7683 29.3438 11.1722 29.3438 11.1722L29.5457 9.75882C29.5457 9.75882 28.738 9.42232 27.9977 9.42232C26.4498 9.42232 24.9019 10.7683 24.9019 13.3258C24.9019 15.0083 25.7095 16.1525 27.3247 16.1525C27.8631 16.1525 28.6034 15.9506 28.6034 15.9506Z" fill="white"/>
<path d="M9.82602 10.6336C8.88379 10.6336 8.21078 10.9028 8.21078 10.9028L8.00887 12.0469C8.00887 12.0469 8.61459 11.7777 9.48951 11.7777C9.96062 11.7777 10.3644 11.845 10.3644 12.2488C10.3644 12.5181 10.2971 12.5854 10.2971 12.5854C10.2971 12.5854 9.89332 12.5854 9.69141 12.5854C8.54728 12.5854 7.26855 13.0565 7.26855 14.6044C7.26855 15.8158 8.07617 16.085 8.54728 16.085C9.48951 16.085 9.89332 15.4793 9.96062 15.4793L9.89332 16.0177H11.1047L11.6432 12.3162C11.6432 10.7009 10.2971 10.6336 9.82602 10.6336ZM10.0952 13.6622C10.0952 13.8641 9.96062 14.9409 9.153 14.9409C8.74919 14.9409 8.61459 14.6044 8.61459 14.4025C8.61459 14.066 8.81649 13.5949 9.82602 13.5949C10.0279 13.6622 10.0952 13.6622 10.0952 13.6622Z" fill="white"/>
<path d="M12.9224 16.0851C13.259 16.0851 14.9415 16.1524 14.9415 14.3352C14.9415 12.6527 13.3263 12.9892 13.3263 12.3162C13.3263 11.9797 13.5955 11.8451 14.0666 11.8451C14.2685 11.8451 15.0088 11.9124 15.0088 11.9124L15.2107 10.7009C15.2107 10.7009 14.7396 10.5663 13.932 10.5663C12.9224 10.5663 11.9129 10.9701 11.9129 12.3162C11.9129 13.8641 13.5955 13.7295 13.5955 14.3352C13.5955 14.739 13.1244 14.8063 12.7878 14.8063C12.1821 14.8063 11.5764 14.6044 11.5764 14.6044L11.3745 15.8158C11.4418 15.9505 11.7783 16.0851 12.9224 16.0851Z" fill="white"/>
<path d="M39.7756 9.55689L39.5064 11.374C39.5064 11.374 38.968 10.701 38.2277 10.701C37.0163 10.701 35.9395 12.1816 35.9395 13.9315C35.9395 15.0083 36.4779 16.1524 37.622 16.1524C38.4296 16.1524 38.9007 15.614 38.9007 15.614L38.8334 16.0851H40.1795L41.189 9.62419L39.7756 9.55689ZM39.1699 13.1239C39.1699 13.8642 38.8334 14.8064 38.0931 14.8064C37.622 14.8064 37.3528 14.4026 37.3528 13.7296C37.3528 12.6528 37.8239 11.9797 38.4296 11.9797C38.9007 11.9797 39.1699 12.3163 39.1699 13.1239Z" fill="white"/>
<path d="M2.49064 16.0178L3.29826 11.1721L3.43287 16.0178H4.37509L6.12493 11.1721L5.38461 16.0178H6.79795L7.87477 9.55689H5.65382L4.30779 13.5277L4.24049 9.55689H2.28874L1.21191 16.0178H2.49064Z" fill="white"/>
<path d="M23.3537 16.0177C23.7575 13.7968 23.8248 11.9796 24.767 12.3161C24.9016 11.4412 25.1035 11.1047 25.2381 10.7682C25.2381 10.7682 25.1708 10.7682 24.9689 10.7682C24.3632 10.7682 23.8921 11.5758 23.8921 11.5758L24.0267 10.8355H22.748L21.873 16.085H23.3537V16.0177Z" fill="white"/>
<path d="M31.6995 10.6336C30.7573 10.6336 30.0843 10.9028 30.0843 10.9028L29.8824 12.0469C29.8824 12.0469 30.4881 11.7777 31.363 11.7777C31.8342 11.7777 32.238 11.845 32.238 12.2488C32.238 12.5181 32.1707 12.5854 32.1707 12.5854C32.1707 12.5854 31.7669 12.5854 31.5649 12.5854C30.4208 12.5854 29.1421 13.0565 29.1421 14.6044C29.1421 15.8158 29.9497 16.085 30.4208 16.085C31.363 16.085 31.7669 15.4793 31.8342 15.4793L31.7669 16.0177H32.9783L33.5167 12.3162C33.584 10.7009 32.1707 10.6336 31.6995 10.6336ZM32.0361 13.6622C32.0361 13.8641 31.9015 14.9409 31.0938 14.9409C30.69 14.9409 30.5554 14.6044 30.5554 14.4025C30.5554 14.066 30.7573 13.5949 31.7669 13.5949C31.9688 13.6622 31.9688 13.6622 32.0361 13.6622Z" fill="white"/>
<path d="M34.6608 16.0177C35.0646 13.7968 35.1319 11.9796 36.0741 12.3161C36.2087 11.4412 36.4107 11.1047 36.5453 10.7682C36.5453 10.7682 36.478 10.7682 36.2761 10.7682C35.6703 10.7682 35.1992 11.5758 35.1992 11.5758L35.3338 10.8355H34.0551L33.1802 16.085H34.6608V16.0177Z" fill="white"/>
<path d="M15.1431 15.0082C15.1431 15.8158 15.6142 16.1523 16.2199 16.1523C16.691 16.1523 17.0948 16.0177 17.2294 15.9504L17.4313 14.8063C17.364 14.8063 17.2294 14.8736 17.0948 14.8736C16.6237 14.8736 16.5564 14.6044 16.6237 14.4698L17.0275 12.1142H17.7678L17.9697 10.8355H17.2967L17.4313 10.0279" fill="#DCE5E5"/>
<path d="M18.3735 13.7969C18.3735 15.6813 18.9792 16.1524 20.0561 16.1524C21.0656 16.1524 21.4694 15.9505 21.4694 15.9505L21.7386 14.6718C21.7386 14.6718 20.9983 15.0083 20.3253 15.0083C18.8446 15.0083 19.1139 13.9315 19.1139 13.9315H21.8732C21.8732 13.9315 22.0751 13.0565 22.0751 12.72C22.0751 11.8451 21.604 10.7683 20.1234 10.7683C18.71 10.6337 18.3735 12.1143 18.3735 13.7969ZM20.0561 11.8451C20.7964 11.8451 20.931 12.72 20.931 12.7873H19.1812C19.1812 12.72 19.3158 11.8451 20.0561 11.8451Z" fill="#DCE5E5"/>
<path d="M28.6033 15.9506L28.8725 14.4699C28.8725 14.4699 28.1995 14.8064 27.7284 14.8064C26.7861 14.8064 26.3823 14.0661 26.3823 13.2585C26.3823 11.6433 27.1899 10.7683 28.1322 10.7683C28.8052 10.7683 29.3436 11.1722 29.3436 11.1722L29.5455 9.75882C29.5455 9.75882 28.7379 9.42232 27.9976 9.42232C26.4496 9.42232 25.5747 10.7683 25.5747 13.3258C25.5747 15.0083 25.7093 16.1525 27.3245 16.1525C27.863 16.1525 28.6033 15.9506 28.6033 15.9506Z" fill="#DCE5E5"/>
<path d="M8.00887 12.1142C8.00887 12.1142 8.61459 11.845 9.48951 11.845C9.96062 11.845 10.3644 11.9123 10.3644 12.3161C10.3644 12.5853 10.2971 12.6526 10.2971 12.6526C10.2971 12.6526 9.89332 12.6526 9.69141 12.6526C8.54728 12.6526 7.26855 13.1237 7.26855 14.6717C7.26855 15.8831 8.07617 16.1523 8.54728 16.1523C9.48951 16.1523 9.89332 15.5466 9.96062 15.5466L9.89332 16.085H11.1047L11.6432 12.3834C11.6432 10.8355 10.2971 10.7682 9.75871 10.7682M10.7682 13.6622C10.7682 13.8641 9.96062 14.9409 9.153 14.9409C8.74919 14.9409 8.61459 14.6044 8.61459 14.4025C8.61459 14.066 8.81649 13.5948 9.82602 13.5948C10.0279 13.6621 10.7682 13.6622 10.7682 13.6622Z" fill="#DCE5E5"/>
<path d="M11.4419 15.9505C11.4419 15.9505 11.8457 16.0851 12.9898 16.0851C13.3263 16.0851 15.0089 16.1524 15.0089 14.3352C15.0089 12.6527 13.3936 12.9892 13.3936 12.3162C13.3936 11.9797 13.6628 11.8451 14.134 11.8451C14.3359 11.8451 15.0762 11.9124 15.0762 11.9124L15.2781 10.7009C15.2781 10.7009 14.807 10.5663 13.9994 10.5663C12.9898 10.5663 12.6533 10.9701 12.6533 12.3162C12.6533 13.8641 13.6628 13.7295 13.6628 14.3352C13.6628 14.739 13.1917 14.8063 12.8552 14.8063" fill="#DCE5E5"/>
<path d="M39.5063 11.374C39.5063 11.374 38.9679 10.701 38.2275 10.701C37.0161 10.701 36.6123 12.1816 36.6123 13.9315C36.6123 15.0083 36.4777 16.1524 37.6218 16.1524C38.4294 16.1524 38.9006 15.614 38.9006 15.614L38.8333 16.0851H40.1793L41.1888 9.62417M39.439 13.1239C39.439 13.8642 38.8333 14.8064 38.0929 14.8064C37.6218 14.8064 37.3526 14.4026 37.3526 13.7296C37.3526 12.6527 37.8237 11.9797 38.4294 11.9797C38.9006 11.9797 39.439 12.3162 39.439 13.1239Z" fill="#DCE5E5"/>
<path d="M2.49064 16.0178L3.29826 11.1721L3.43287 16.0178H4.37509L6.12493 11.1721L5.38461 16.0178H6.79795L7.87477 9.55689H6.19223L4.30779 13.5277L4.24049 9.55689H3.50017L1.21191 16.0178H2.49064Z" fill="#DCE5E5"/>
<path d="M21.9409 16.0177H23.3543C23.7581 13.7968 23.8254 11.9796 24.7676 12.3161C24.9022 11.4412 25.1041 11.1047 25.2387 10.7682C25.2387 10.7682 25.1714 10.7682 24.9695 10.7682C24.3638 10.7682 23.8927 11.5758 23.8927 11.5758L24.0273 10.8355" fill="#DCE5E5"/>
<path d="M29.8824 12.1142C29.8824 12.1142 30.4881 11.845 31.363 11.845C31.8342 11.845 32.238 11.9123 32.238 12.3161C32.238 12.5853 32.1707 12.6526 32.1707 12.6526C32.1707 12.6526 31.7669 12.6526 31.5649 12.6526C30.4208 12.6526 29.1421 13.1237 29.1421 14.6717C29.1421 15.8831 29.9497 16.1523 30.4208 16.1523C31.363 16.1523 31.7669 15.5466 31.8342 15.5466L31.7669 16.085H32.9783L33.5167 12.3834C33.5167 10.8355 32.1707 10.7682 31.6322 10.7682M32.6418 13.6622C32.6418 13.8641 31.8342 14.9409 31.0265 14.9409C30.6227 14.9409 30.4881 14.6044 30.4881 14.4025C30.4881 14.066 30.69 13.5948 31.6995 13.5948C31.9688 13.6621 32.6418 13.6622 32.6418 13.6622Z" fill="#DCE5E5"/>
<path d="M33.2471 16.0177H34.6604C35.0642 13.7968 35.1315 11.9796 36.0737 12.3161C36.2083 11.4412 36.4102 11.1047 36.5448 10.7682C36.5448 10.7682 36.4775 10.7682 36.2756 10.7682C35.6699 10.7682 35.1988 11.5758 35.1988 11.5758L35.3334 10.8355" fill="#DCE5E5"/>
<path d="M100.8 25.1631C100.8 26.0322 100.096 26.736 99.2269 26.736H59.9725C59.1039 26.736 58.3999 26.0322 58.3999 25.1631V1.5728C58.3999 0.704254 59.1039 0 59.9725 0H99.227C100.096 0 100.8 0.704254 100.8 1.5728V25.1631H100.8Z" fill="#21246E"/>
<path d="M74.5152 7.74143L69.7976 18.9988H66.7184L64.3984 10.0157C64.2556 9.46171 64.1335 9.26018 63.7053 9.02496C63.0038 8.64564 61.8499 8.28983 60.8311 8.06827L60.9023 7.74151H65.8563C66.4882 7.74151 67.0562 8.16295 67.1991 8.88947L68.4257 15.405L71.4556 7.74151H74.5152V7.74143ZM86.5765 15.3216C86.5902 12.3521 82.4676 12.1905 82.4972 10.862C82.5053 10.4566 82.8896 10.0274 83.7314 9.91908C84.1493 9.86346 85.2996 9.82274 86.6033 10.4212L87.1143 8.03516C86.4129 7.78057 85.5112 7.53675 84.3906 7.53675C81.5124 7.53675 79.4861 9.06767 79.4691 11.2581C79.4502 12.878 80.9147 13.7819 82.0193 14.3214C83.1537 14.8734 83.5329 15.2259 83.5289 15.7209C83.5215 16.4764 82.6239 16.8067 81.7867 16.8215C80.3222 16.8443 79.4728 16.4257 78.7945 16.1098L78.2672 18.5779C78.9467 18.8899 80.2047 19.1608 81.5067 19.1768C84.5656 19.1767 86.5668 17.6621 86.5765 15.3216ZM94.1772 18.9987H96.8713L94.5205 7.74134H92.0335C91.4747 7.74134 91.0036 8.06727 90.7937 8.56652L86.4265 18.9986H89.4832L90.0899 17.3174H93.8264L94.1772 18.9987ZM90.9277 15.0102L92.4612 10.7833L93.3434 15.0102H90.9277ZM78.6769 7.74143L76.2675 18.9987H73.3548L75.7648 7.74134H78.6769V7.74143Z" fill="white"/>
</svg>
