<svg width="24" height="19" viewBox="0 0 24 19" fill="none" xmlns="http://www.w3.org/2000/svg">
<g id="list-3">
<path id="Path" d="M6.62133 0H1.62867C0.730594 0 0 0.725819 0 1.61803V6.57805C0 7.47026 0.730594 8.19608 1.62867 8.19608H6.62133C7.51941 8.19608 8.25 7.47026 8.25 6.57805V1.61803C8.25 0.725819 7.51941 0 6.62133 0Z" fill="white"/>
<path id="Path_2" d="M6.62133 10.8037H1.62867C0.730594 10.8037 0 11.5295 0 12.4217V17.3818C0 18.274 0.730594 18.9998 1.62867 18.9998H6.62133C7.51941 18.9998 8.25 18.274 8.25 17.3818V12.4217C8.25 11.5295 7.51941 10.8037 6.62133 10.8037Z" fill="white"/>
<path id="Path_3" d="M23.25 3.72555H11.25C10.8358 3.72555 10.5 3.39193 10.5 2.98045C10.5 2.56897 10.8358 2.23535 11.25 2.23535H23.25C23.6642 2.23535 24 2.56897 24 2.98045C24 3.39193 23.6642 3.72555 23.25 3.72555Z" fill="white"/>
<path id="Path_4" d="M19.125 6.51949H11.25C10.8358 6.51949 10.5 6.18588 10.5 5.77439C10.5 5.36291 10.8358 5.0293 11.25 5.0293H19.125C19.5392 5.0293 19.875 5.36291 19.875 5.77439C19.875 6.18588 19.5392 6.51949 19.125 6.51949Z" fill="white"/>
<path id="Path_5" d="M23.25 14.3432H11.25C10.8358 14.3432 10.5 14.0096 10.5 13.5981C10.5 13.1866 10.8358 12.853 11.25 12.853H23.25C23.6642 12.853 24 13.1866 24 13.5981C24 14.0096 23.6642 14.3432 23.25 14.3432Z" fill="white"/>
<path id="Path_6" d="M19.125 17.3237H11.25C10.8358 17.3237 10.5 16.9901 10.5 16.5786C10.5 16.1671 10.8358 15.8335 11.25 15.8335H19.125C19.5392 15.8335 19.875 16.1671 19.875 16.5786C19.875 16.9901 19.5392 17.3237 19.125 17.3237Z" fill="white"/>
</g>
</svg>
