<svg width="16" height="16" viewBox="0 0 16 16" fill="none" xmlns="http://www.w3.org/2000/svg">
<path d="M15.5379 12.5284C14.9256 11.916 13.4553 10.9955 12.7305 10.6497C11.8892 10.2457 11.581 10.254 10.9853 10.683C10.4897 11.0413 10.169 11.3745 9.59834 11.2495C9.02771 11.1287 7.90311 10.2748 6.81184 9.18762C5.72056 8.09626 4.87087 6.97158 4.75008 6.4009C4.62929 5.82606 4.9625 5.50949 5.31654 5.01379C5.74555 4.41813 5.75805 4.10988 5.34986 3.26845C5.00415 2.53949 4.08781 1.07323 3.47137 0.4609C2.85909 -0.151428 2.72164 -0.018132 2.38426 0.102667C2.38426 0.102667 1.88444 0.302611 1.38878 0.631686C0.776503 1.0399 0.43496 1.38148 0.19338 1.89383C-0.0440351 2.40619 -0.318936 3.36009 1.08056 5.85106C2.20932 7.86299 3.31726 9.38757 4.9625 11.0288L4.96667 11.0329L4.97083 11.0371C6.61607 12.6825 8.13636 13.7905 10.1481 14.9194C12.6389 16.319 13.5927 16.044 14.1051 15.8066C14.6174 15.5692 14.9589 15.2276 15.3671 14.6111C15.6961 14.1154 15.8961 13.6156 15.8961 13.6156C16.0169 13.2781 16.1543 13.1407 15.5379 12.5284Z" fill="#004C5F"/>
</svg>
