<svg width="106" height="101" viewBox="0 0 106 101" fill="none" xmlns="http://www.w3.org/2000/svg">
  <path d="M100.5 28V84.475C98.459 88.8968 95.285 92.7004 91.3 95.5H13C11.0127 95.4941 9.10849 94.702 7.70326 93.2968C6.29802 91.8915 5.50594 89.9873 5.5 88V28C5.5 27.337 5.76339 26.7011 6.23223 26.2322C6.70107 25.7634 7.33696 25.5 8 25.5H98C98.663 25.5 99.2989 25.7634 99.7678 26.2322C100.237 26.7011 100.5 27.337 100.5 28Z" fill="#FFD164"/>
  <path d="M98 0.5H8C3.85786 0.5 0.5 3.85786 0.5 8V23C0.5 27.1421 3.85786 30.5 8 30.5H98C102.142 30.5 105.5 27.1421 105.5 23V8C105.5 3.85786 102.142 0.5 98 0.5Z" fill="#FDB441"/>
  <path d="M103 73C102.994 79.7762 100.485 86.3112 95.9538 91.3498C91.4228 96.3883 85.1899 99.5749 78.4523 100.297C71.7148 101.02 64.9479 99.2274 59.4516 95.2642C53.9553 91.301 50.1172 85.4466 48.6748 78.8257C47.2323 72.2049 48.2872 65.2845 51.6367 59.3941C54.9863 53.5037 60.3942 49.0587 66.8217 46.913C73.2492 44.7673 80.2429 45.0723 86.4592 47.7694C92.6754 50.4664 97.6759 55.3653 100.5 61.525C102.15 65.1254 103.003 69.0396 103 73Z" fill="#49AAEE"/>
  <path d="M73 83C72.3371 82.9998 71.7013 82.7364 71.2325 82.2675L63.7325 74.7675C63.2771 74.296 63.0252 73.6645 63.0309 73.009C63.0366 72.3535 63.2995 71.7265 63.763 71.2629C64.2265 70.7994 64.8535 70.5365 65.509 70.5308C66.1645 70.5251 66.796 70.7771 67.2675 71.2325L73 76.965L86.2325 63.7325C86.704 63.2771 87.3356 63.0251 87.9911 63.0308C88.6465 63.0365 89.2736 63.2994 89.7371 63.7629C90.2006 64.2265 90.4635 64.8535 90.4692 65.509C90.4749 66.1645 90.2229 66.796 89.7675 67.2675L74.7675 82.2675C74.2988 82.7364 73.663 82.9998 73 83Z" fill="#F1F2F2"/>
</svg>
  