<svg width="120" height="120" viewBox="0 0 120 120" fill="none" xmlns="http://www.w3.org/2000/svg">
  <path d="M88.45 36.45C88.1698 37.1337 87.6916 37.718 87.0769 38.1278C86.4621 38.5377 85.7388 38.7543 85 38.75H30C29.2229 38.7493 28.465 38.5089 27.8296 38.0615C27.1943 37.614 26.7125 36.9814 26.45 36.25C26.209 35.5221 26.1897 34.7391 26.3944 34.0003C26.5992 33.2614 27.0188 32.6 27.6 32.1L50.6 12.95C53.2307 10.751 56.5903 9.61829 60.0154 9.77566C63.4405 9.93303 66.6821 11.369 69.1 13.8L69.7 14.4L87.65 32.35C88.1732 32.8781 88.5284 33.5492 88.6708 34.2789C88.8131 35.0085 88.7363 35.764 88.45 36.45Z" fill="#FFBE40"/>
  <path d="M70 20C70.0069 26.4272 68.7674 32.7947 66.35 38.75H30C29.2229 38.7493 28.465 38.5089 27.8296 38.0615C27.1943 37.614 26.7125 36.9814 26.45 36.25C26.209 35.5221 26.1897 34.7391 26.3944 34.0003C26.5992 33.2614 27.0188 32.6 27.6 32.1L50.6 12.95C53.2307 10.751 56.5903 9.61829 60.0154 9.77566C63.4405 9.93303 66.6821 11.369 69.1 13.8L69.7 14.4C69.901 16.2599 70.0011 18.1293 70 20Z" fill="#FFDF40"/>
  <path d="M90 31.25H20C12.4061 31.25 6.25 37.4061 6.25 45V100C6.25 107.594 12.4061 113.75 20 113.75H90C97.5939 113.75 103.75 107.594 103.75 100V45C103.75 37.4061 97.5939 31.25 90 31.25Z" fill="#59ABFF"/>
  <path d="M68.7 31.25C66.157 42.2624 59.958 52.0884 51.1138 59.1256C42.2697 66.1628 31.3022 69.9959 20 70C15.3465 70.0185 10.7149 69.3616 6.25 68.05V45C6.24869 43.1939 6.60345 41.4054 7.29398 39.7365C7.98452 38.0677 8.99729 36.5514 10.2744 35.2743C11.5514 33.9973 13.0677 32.9845 14.7366 32.294C16.4054 31.6034 18.194 31.2487 20 31.25H68.7Z" fill="#7BC7FF"/>
  <path d="M113.75 65V80C113.739 82.3174 112.814 84.5369 111.176 86.1756C109.537 87.8142 107.317 88.7395 105 88.75H85C82.6826 88.7395 80.4631 87.8142 78.8244 86.1756C77.1858 84.5369 76.2605 82.3174 76.25 80V65C76.2575 63.799 76.5096 62.612 76.991 61.5117C77.4724 60.4113 78.173 59.4206 79.05 58.6C80.6629 57.0894 82.7902 56.2493 85 56.25H105C107.317 56.2605 109.537 57.1858 111.176 58.8244C112.814 60.4631 113.739 62.6826 113.75 65Z" fill="#443D66"/>
  <path d="M113.75 65V79.6C106.818 78.7265 100.146 76.4056 94.1682 72.7878C88.1904 69.1701 83.0396 64.3364 79.05 58.6C80.663 57.0894 82.7902 56.2493 85 56.25H105C107.317 56.2605 109.537 57.1858 111.176 58.8244C112.814 60.4631 113.74 62.6826 113.75 65Z" fill="#5C5C8E"/>
</svg>
  