<svg width="22" height="24" viewBox="0 0 22 24" fill="none" xmlns="http://www.w3.org/2000/svg">
<path d="M18.9094 15.9989C18.8381 15.9052 18.7681 15.8114 18.6993 15.7209C17.754 14.4736 17.1821 13.7208 17.1821 10.1897C17.1821 8.36156 16.7812 6.86156 15.991 5.73656C15.4083 4.90547 14.6207 4.275 13.5826 3.80906C13.5692 3.80096 13.5573 3.79032 13.5474 3.77766C13.174 2.41359 12.1522 1.5 10.9997 1.5C9.84732 1.5 8.82595 2.41359 8.45255 3.77625C8.44259 3.78845 8.43082 3.79875 8.41775 3.80672C5.99517 4.89469 4.81783 6.98203 4.81783 10.1883C4.81783 13.7208 4.24677 14.4736 3.3006 15.7195C3.23185 15.81 3.16181 15.9019 3.09048 15.9975C2.90623 16.2399 2.7895 16.5348 2.75409 16.8473C2.71868 17.1598 2.76608 17.4769 2.89068 17.7609C3.1558 18.3703 3.72084 18.7486 4.3658 18.7486H17.6384C18.2804 18.7486 18.8415 18.3708 19.1075 17.7642C19.2327 17.4801 19.2805 17.1628 19.2454 16.8499C19.2103 16.537 19.0937 16.2417 18.9094 15.9989Z" fill="black"/>
<path d="M11.0003 22.5C11.6212 22.4995 12.2304 22.3156 12.7633 21.9679C13.2962 21.6202 13.7329 21.1217 14.027 20.5252C14.0409 20.4966 14.0478 20.4646 14.0469 20.4322C14.0461 20.3999 14.0376 20.3684 14.0223 20.3407C14.007 20.313 13.9854 20.2901 13.9596 20.2742C13.9337 20.2583 13.9046 20.25 13.8749 20.25H8.12658C8.0969 20.2499 8.0677 20.2582 8.04182 20.274C8.01594 20.2899 7.99427 20.3128 7.97891 20.3405C7.96355 20.3682 7.95502 20.3997 7.95417 20.4321C7.95332 20.4645 7.96017 20.4965 7.97404 20.5252C8.26818 21.1216 8.70479 21.6201 9.23758 21.9678C9.77038 22.3155 10.3795 22.4994 11.0003 22.5Z" fill="black"/>
</svg>
