<svg width="16" height="17" viewBox="0 0 16 17" fill="none" xmlns="http://www.w3.org/2000/svg">
  <path fill-rule="evenodd" clip-rule="evenodd"
    d="M0.0632019 12.5791C0.314592 13.665 1.26768 14.4374 2.37199 14.45H13.6344C14.2706 14.4456 14.8786 14.1843 15.3229 13.7245C15.7672 13.2646 16.0109 12.6444 15.9996 12.002C16.0071 11.0967 15.4999 10.2672 14.6949 9.8685C14.4617 9.75166 14.3148 9.5109 14.3162 9.248V6.375C14.3162 2.85418 11.4897 0 8.00318 0C4.51661 0 1.69019 2.85418 1.69019 6.375V9.248C1.6916 9.5109 1.54463 9.75166 1.31141 9.8685C0.327084 10.3742 -0.188188 11.4931 0.0632019 12.5791ZM3.37365 6.375C3.37829 3.79501 5.44828 1.70468 8.00318 1.7C10.5581 1.70468 12.6281 3.79501 12.6327 6.375V9.248C12.6252 10.1533 13.1325 10.9828 13.9374 11.3815C14.186 11.5123 14.3345 11.7791 14.3162 12.0615C14.3162 12.4417 14.0109 12.75 13.6344 12.75H2.41408C2.22339 12.7482 2.04195 12.6668 1.91281 12.5251C1.78366 12.3834 1.71832 12.1941 1.73228 12.002C1.73087 11.7391 1.87784 11.4983 2.11106 11.3815C2.89963 10.9708 3.38905 10.1438 3.37365 9.248V6.375Z"
    fill="black" />
  <path
    d="M10.5288 17H5.47845C5.01357 17 4.63672 16.6195 4.63672 16.15C4.63672 15.6806 5.01357 15.3 5.47845 15.3H10.5288C10.9937 15.3 11.3706 15.6806 11.3706 16.15C11.3706 16.6195 10.9937 17 10.5288 17Z"
    fill="black" />
</svg>
