<svg width="14" height="17" viewBox="0 0 14 17" fill="none" xmlns="http://www.w3.org/2000/svg">
  <ellipse cx="3.02275" cy="3.86525" rx="0.554004" ry="0.566667" fill="black" />
  <rect x="4.75" y="3.29858" width="5.4924" height="1.13333" rx="0.554004" fill="black" />
  <ellipse cx="3.02275" cy="6.13246" rx="0.554004" ry="0.566667" fill="black" />
  <rect x="4.75" y="5.5658" width="5.4924" height="1.13333" rx="0.554004" fill="black" />
  <ellipse cx="7.76885" cy="13.5281" rx="0.554004" ry="0.566667" fill="black" />
  <ellipse cx="10.7962" cy="13.5281" rx="0.554004" ry="0.566667" fill="black" />
  <rect x="2.46875" y="8.66089" width="3.27472" height="1.13333" rx="0.554004" fill="black" />
  <path fill-rule="evenodd" clip-rule="evenodd"
    d="M6.9485 17H11.606C12.4027 17 13.1124 16.4526 13.3317 15.6683L13.9295 13.5303C14.0863 12.971 13.9794 12.3845 13.637 11.9204C13.2946 11.4563 12.7722 11.1899 12.2038 11.1899H6.35018C5.78232 11.1899 5.2599 11.4563 4.91752 11.9204C4.5757 12.3845 4.46878 12.9715 4.62501 13.5303L5.22278 15.6689C5.44161 16.4526 6.15184 17 6.9485 17ZM5.80227 12.6026C5.93357 12.4253 6.13301 12.3233 6.35073 12.3233H6.35129H12.2049C12.4226 12.3233 12.6226 12.4247 12.7534 12.6026C12.8841 12.7806 12.9251 13.005 12.8653 13.2192L12.2675 15.3566C12.1838 15.6564 11.9124 15.8661 11.6071 15.8661H6.9485C6.6438 15.8661 6.37178 15.6564 6.28813 15.3572L5.69036 13.2192C5.63053 13.005 5.67097 12.78 5.80227 12.6026Z"
    fill="black" />
  <path fill-rule="evenodd" clip-rule="evenodd"
    d="M7.08984 12.3233H11.4637V10.0861C11.4637 8.85305 10.482 7.84949 9.2765 7.84949C8.07099 7.84949 7.08984 8.85249 7.08984 10.0861V12.3233ZM10.3557 11.19H8.19785V10.0861C8.19785 9.47809 8.6815 8.98282 9.2765 8.98282C9.8715 8.98282 10.3557 9.47809 10.3557 10.0861V11.19Z"
    fill="black" />
  <path
    d="M3.48081 14.7333H2.77002C1.24042 14.7333 0 13.4646 0 11.9V2.83333C0 1.26877 1.24042 0 2.77002 0H9.41807C10.9477 0 12.1881 1.26877 12.1881 2.83333V7.64093C12.1881 7.95373 11.9399 8.2076 11.6341 8.2076C11.3283 8.2076 11.0801 7.95373 11.0801 7.64093V2.83333C11.0801 1.89437 10.3361 1.13333 9.41807 1.13333H2.77002C1.85204 1.13333 1.10801 1.89437 1.10801 2.83333V11.9C1.10801 12.839 1.85204 13.6 2.77002 13.6H3.48081C3.78662 13.6 4.03481 13.8539 4.03481 14.1667C4.03481 14.4795 3.78662 14.7333 3.48081 14.7333Z"
    fill="black" />
</svg>
