<svg width="18" height="22" viewBox="0 0 18 22" fill="none" xmlns="http://www.w3.org/2000/svg">
<g id="lock-2">
<ellipse id="Oval" cx="8.99873" cy="15.1042" rx="1.16279" ry="1.14586" fill="#C1C1C1"/>
<path id="Shape" fill-rule="evenodd" clip-rule="evenodd" d="M14.665 8.20934H14.3366V5.25924C14.3366 2.35977 11.9427 0 8.9996 0C6.05648 0 3.66264 2.35977 3.66264 5.25924V8.20934H3.3342C1.49525 8.20934 0 9.68361 0 11.495V14.7687C0 18.7555 3.29164 22 7.33732 22H10.6627C14.7084 22 18 18.7555 18 14.7687V11.495C17.9992 9.68282 16.5031 8.20934 14.665 8.20934ZM5.1081 5.25924C5.1081 3.14478 6.85389 1.42441 8.9996 1.42441C11.1453 1.42441 12.8911 3.14478 12.8911 5.25924V8.20934H5.1081V5.25924ZM10.6619 20.5748C13.9101 20.5748 16.5537 17.9705 16.5537 14.7687H16.5545V11.495C16.5545 10.4678 15.7065 9.63296 14.665 9.63296H3.335C2.29266 9.63296 1.44546 10.4686 1.44546 11.495V14.7687C1.44546 17.9705 4.08905 20.5748 7.33732 20.5748H10.6619Z" fill="#C1C1C1"/>
</g>
</svg>
