<svg width="16" height="16" viewBox="0 0 16 16" fill="none" xmlns="http://www.w3.org/2000/svg">
<path fill-rule="evenodd" clip-rule="evenodd" d="M0.612331 11.0356C1.85688 14.0402 4.78874 15.9995 8.04107 15.9999C10.175 16.0054 12.2224 15.1571 13.727 13.644C16.7895 10.4909 16.7527 5.46331 13.6445 2.35531C10.5363 -0.752693 5.50839 -0.789437 2.35509 2.27281C0.0555918 4.57265 -0.632214 8.03102 0.612331 11.0356ZM1.56973 7.95842C1.56973 4.39031 4.47272 1.4875 8.04107 1.4875C11.6094 1.4875 14.5124 4.39031 14.5124 7.95842C14.5124 11.5265 11.6094 14.4293 8.04107 14.4293C4.47272 14.4293 1.56973 11.5265 1.56973 7.95842Z" fill="#13A841"/>
<path d="M6.62715 11.2567C6.19341 11.2567 5.8418 10.9051 5.8418 10.4714V5.44546C5.8418 5.01175 6.19341 4.66016 6.62715 4.66016C7.06089 4.66016 7.41251 5.01175 7.41251 5.44546V10.4714C7.41251 10.9051 7.06089 11.2567 6.62715 11.2567Z" fill="#13A841"/>
<path d="M9.45528 11.2567C9.02154 11.2567 8.66992 10.9051 8.66992 10.4714V5.44546C8.66992 5.01175 9.02154 4.66016 9.45528 4.66016C9.88902 4.66016 10.2406 5.01175 10.2406 5.44546V10.4714C10.2406 10.9051 9.88902 11.2567 9.45528 11.2567Z" fill="#13A841"/>
</svg>
