<svg width="17" height="20" viewBox="0 0 17 20" fill="none" xmlns="http://www.w3.org/2000/svg">
<g id="user-6">
<g id="Shape">
<path fill-rule="evenodd" clip-rule="evenodd" d="M12.1469 7.81167C11.2488 8.70142 10.15 9.15239 8.88085 9.15239C7.61201 9.15239 6.5132 8.70128 5.61498 7.81181C4.71705 6.9222 4.26172 5.83356 4.26172 4.57605C4.26172 3.31882 4.71705 2.23019 5.61498 1.34058C6.5129 0.450966 7.61157 0 8.88085 0C10.1498 0 11.2486 0.450966 12.1467 1.34043C13.0448 2.23033 13.5 3.31897 13.5 4.57605C13.5 5.83356 13.0446 6.92206 12.1469 7.81167ZM8.88085 1.11343C7.90698 1.11343 7.09874 1.44524 6.40975 2.12785C5.72061 2.8106 5.38556 3.6115 5.38556 4.57605C5.38556 5.54089 5.72061 6.34179 6.40975 7.0244C7.09904 7.70701 7.90727 8.03896 8.88085 8.03896C9.85456 8.03896 10.6629 7.70715 11.3521 7.0244C12.0411 6.34164 12.3761 5.54089 12.3761 4.57605C12.3761 3.6115 12.0411 2.8106 11.3521 2.12785C10.6629 1.44524 9.85456 1.11343 8.88085 1.11343Z" fill="#EFBBC2"/>
<path d="M12.1469 7.81167L12.3228 7.98927L12.3228 7.98925L12.1469 7.81167ZM5.61498 7.81181L5.43902 7.98941L5.43907 7.98945L5.61498 7.81181ZM5.61498 1.34058L5.43902 1.16298L5.61498 1.34058ZM12.1467 1.34043L12.3227 1.16285L12.3226 1.16281L12.1467 1.34043ZM6.40975 2.12785L6.5857 2.30544L6.40975 2.12785ZM6.40975 7.0244L6.23382 7.20201L6.23384 7.20203L6.40975 7.0244ZM11.3521 7.0244L11.528 7.202L11.5281 7.20198L11.3521 7.0244ZM11.3521 2.12785L11.5281 1.95027L11.528 1.95023L11.3521 2.12785ZM8.88085 9.40239C10.2156 9.40239 11.3777 8.92562 12.3228 7.98927L11.9709 7.63407C11.1199 8.47723 10.0844 8.90239 8.88085 8.90239V9.40239ZM5.43907 7.98945C6.38428 8.92546 7.5464 9.40239 8.88085 9.40239V8.90239C7.67763 8.90239 6.64211 8.4771 5.79088 7.63417L5.43907 7.98945ZM4.01172 4.57605C4.01172 5.90067 4.49399 7.05313 5.43902 7.98941L5.79093 7.63422C4.94011 6.79128 4.51172 5.76646 4.51172 4.57605H4.01172ZM5.43902 1.16298C4.49399 2.09925 4.01172 3.25171 4.01172 4.57605H4.51172C4.51172 3.38594 4.9401 2.36112 5.79093 1.51817L5.43902 1.16298ZM8.88085 -0.25C7.54598 -0.25 6.38399 0.226767 5.43902 1.16298L5.79093 1.51817C6.64182 0.675165 7.67716 0.25 8.88085 0.25V-0.25ZM12.3226 1.16281C11.3775 0.226766 10.2154 -0.25 8.88085 -0.25V0.25C10.0842 0.25 11.1197 0.675165 11.9708 1.51806L12.3226 1.16281ZM13.75 4.57605C13.75 3.25187 13.2678 2.09941 12.3227 1.16285L11.9707 1.51801C12.8217 2.36125 13.25 3.38607 13.25 4.57605H13.75ZM12.3228 7.98925C13.2677 7.05298 13.75 5.90067 13.75 4.57605H13.25C13.25 5.76646 12.8216 6.79114 11.9709 7.63409L12.3228 7.98925ZM6.5857 2.30544C7.22767 1.66943 7.97258 1.36343 8.88085 1.36343V0.863426C7.84138 0.863426 6.96982 1.22105 6.2338 1.95025L6.5857 2.30544ZM5.63556 4.57605C5.63556 3.67864 5.94365 2.94155 6.5857 2.30544L6.2338 1.95025C5.49758 2.67965 5.13556 3.54436 5.13556 4.57605H5.63556ZM6.58569 6.84678C5.94366 6.21084 5.63556 5.47377 5.63556 4.57605H5.13556C5.13556 5.60802 5.49757 6.47274 6.23382 7.20201L6.58569 6.84678ZM8.88085 7.78896C7.97292 7.78896 7.22797 7.48285 6.58567 6.84676L6.23384 7.20203C6.9701 7.93117 7.84162 8.28896 8.88085 8.28896V7.78896ZM11.1761 6.8468C10.534 7.48297 9.78896 7.78896 8.88085 7.78896V8.28896C9.92017 8.28896 10.7919 7.93134 11.528 7.202L11.1761 6.8468ZM12.1261 4.57605C12.1261 5.47376 11.818 6.2107 11.1761 6.84682L11.5281 7.20198C12.2641 6.47258 12.6261 5.60803 12.6261 4.57605H12.1261ZM11.1761 2.30542C11.818 2.94154 12.1261 3.67863 12.1261 4.57605H12.6261C12.6261 3.54436 12.2641 2.67966 11.5281 1.95027L11.1761 2.30542ZM8.88085 1.36343C9.78896 1.36343 10.534 1.66943 11.1762 2.30546L11.528 1.95023C10.7919 1.22104 9.92016 0.863426 8.88085 0.863426V1.36343Z" fill="#EFBBC2"/>
</g>
<g id="Shape_2">
<path fill-rule="evenodd" clip-rule="evenodd" d="M16.8058 13.4095C16.8829 13.836 16.9353 14.2398 16.9612 14.6101C16.9868 14.9719 16.9999 15.3495 17 15.7323C17 16.7244 16.6818 17.5276 16.0541 18.1194C15.4341 18.7037 14.6142 19 13.6171 19H4.38292C3.3855 19 2.56556 18.7037 1.94577 18.1194C1.31823 17.5272 1 16.7243 1 15.7325C1 15.3509 1.01288 14.9733 1.03833 14.6105C1.06423 14.2394 1.11647 13.8354 1.19372 13.4095C1.27156 12.9799 1.37178 12.5738 1.49161 12.2026C1.61569 11.8186 1.78424 11.4398 1.99245 11.0767C2.20841 10.6999 2.46241 10.3719 2.74743 10.1017C3.04576 9.81889 3.41081 9.59174 3.83249 9.42634C4.25285 9.26138 4.71871 9.17773 5.21735 9.17773C5.41312 9.17773 5.60245 9.25732 5.96779 9.49316C6.19619 9.64059 6.45955 9.80874 6.75057 9.99298C7.00135 10.1516 7.34183 10.3001 7.76175 10.4345C8.17216 10.566 8.58857 10.6327 8.99941 10.6327C9.41056 10.6327 9.82697 10.566 10.2371 10.4345C10.6574 10.3 10.9978 10.1514 11.249 9.99284C11.5428 9.80685 11.806 9.6387 12.031 9.49331C12.3967 9.25746 12.586 9.17788 12.7818 9.17788C13.2803 9.17788 13.7463 9.26138 14.1668 9.42619C14.5887 9.59188 14.9537 9.81903 15.2517 10.1016C15.5367 10.3716 15.7907 10.6998 16.0068 11.0767C16.2153 11.4398 16.3837 11.8187 16.5078 12.2024C16.6278 12.5737 16.728 12.9799 16.8058 13.4095ZM13.6169 17.8866C14.326 17.8866 14.8697 17.6988 15.2792 17.3127C15.6808 16.934 15.876 16.4171 15.8762 15.7325C15.876 15.3754 15.864 15.0241 15.8402 14.6879V14.6876C15.8171 14.3571 15.7696 13.9933 15.6997 13.6061C15.6306 13.2247 15.5424 12.8666 15.4375 12.5419C15.3371 12.2313 15.1999 11.9232 15.0297 11.6268C14.8675 11.3438 14.6808 11.1013 14.4748 10.9061C14.2821 10.7234 14.0392 10.5737 13.7532 10.4615C13.4883 10.3577 13.1909 10.3009 12.8678 10.2923C12.8284 10.313 12.7584 10.3528 12.6448 10.426C12.4138 10.5753 12.155 10.7405 11.8537 10.9313C11.5214 11.1412 11.094 11.3304 10.5828 11.494C10.0609 11.6612 9.52819 11.7461 8.99956 11.7461C8.47093 11.7461 7.93835 11.6612 7.41615 11.4939C6.90537 11.3305 6.47784 11.1412 6.146 10.9316C5.85162 10.7453 5.58533 10.5751 5.3543 10.426C5.24076 10.3526 5.17068 10.313 5.13132 10.2923C4.8084 10.3009 4.51095 10.3577 4.24626 10.4615C3.96007 10.5737 3.71719 10.7233 3.5245 10.9061C3.31849 11.1015 3.13179 11.344 2.96953 11.6267C2.79951 11.9232 2.66242 12.2311 2.5619 12.5421C2.45714 12.8663 2.36906 13.2245 2.29985 13.6062C2.22977 13.9927 2.18251 14.3564 2.15939 14.6875C2.13569 15.0249 2.12384 15.3764 2.12384 15.7325C2.12384 16.417 2.31902 16.934 2.72065 17.3128C3.13004 17.6988 3.67374 17.8866 4.38292 17.8866H13.6169Z" fill="#EFBBC2"/>
<path d="M16.9612 14.6101L16.7118 14.6275L16.7119 14.6277L16.9612 14.6101ZM16.8058 13.4095L17.0519 13.365L17.0518 13.3649L16.8058 13.4095ZM17 15.7323H17.25V15.7322L17 15.7323ZM16.0541 18.1194L16.2256 18.3013L16.2256 18.3013L16.0541 18.1194ZM1.94577 18.1194L1.7742 18.3012L1.77428 18.3013L1.94577 18.1194ZM1.03833 14.6105L1.28772 14.628L1.28773 14.6279L1.03833 14.6105ZM1.19372 13.4095L1.43971 13.4541L1.43972 13.4541L1.19372 13.4095ZM1.49161 12.2026L1.25372 12.1257L1.2537 12.1258L1.49161 12.2026ZM1.99245 11.0767L2.20933 11.201L2.20934 11.201L1.99245 11.0767ZM2.74743 10.1017L2.57543 9.92027L2.57543 9.92027L2.74743 10.1017ZM3.83249 9.42634L3.92378 9.65908L3.92382 9.65906L3.83249 9.42634ZM5.96779 9.49316L5.8322 9.7032L5.83221 9.70321L5.96779 9.49316ZM6.75057 9.99298L6.61684 10.2042L6.61696 10.2043L6.75057 9.99298ZM7.76175 10.4345L7.83802 10.1964L7.83794 10.1964L7.76175 10.4345ZM10.2371 10.4345L10.1609 10.1964L10.1608 10.1965L10.2371 10.4345ZM11.249 9.99284L11.3824 10.2042L11.3827 10.2041L11.249 9.99284ZM12.031 9.49331L11.8955 9.28322L11.8954 9.28333L12.031 9.49331ZM14.1668 9.42619L14.2582 9.19349L14.258 9.19343L14.1668 9.42619ZM15.2517 10.1016L15.0797 10.283L15.0797 10.283L15.2517 10.1016ZM16.0068 11.0767L15.7899 11.201L15.79 11.2012L16.0068 11.0767ZM16.5078 12.2024L16.7457 12.1256L16.7457 12.1255L16.5078 12.2024ZM15.2792 17.3127L15.1077 17.1308L15.1077 17.1308L15.2792 17.3127ZM15.8762 15.7325L16.1262 15.7325V15.7324L15.8762 15.7325ZM15.8402 14.6879H15.5902V14.6968L15.5908 14.7056L15.8402 14.6879ZM15.8402 14.6876H16.0902V14.6789L16.0896 14.6702L15.8402 14.6876ZM15.6997 13.6061L15.9457 13.5616L15.9457 13.5615L15.6997 13.6061ZM15.4375 12.5419L15.6754 12.4651L15.6754 12.4651L15.4375 12.5419ZM15.0297 11.6268L14.8129 11.7512L14.8129 11.7513L15.0297 11.6268ZM14.4748 10.9061L14.3028 11.0875L14.3028 11.0875L14.4748 10.9061ZM13.7532 10.4615L13.8444 10.2288L13.8444 10.2287L13.7532 10.4615ZM12.8678 10.2923L12.8744 10.0424L12.8091 10.0407L12.7513 10.0711L12.8678 10.2923ZM12.6448 10.426L12.5094 10.2159L12.5091 10.216L12.6448 10.426ZM11.8537 10.9313L11.9872 11.1427L11.9875 11.1425L11.8537 10.9313ZM10.5828 11.494L10.5066 11.2559L10.5066 11.2559L10.5828 11.494ZM7.41615 11.4939L7.49242 11.2558L7.49231 11.2558L7.41615 11.4939ZM6.146 10.9316L6.01233 11.1428L6.01249 11.143L6.146 10.9316ZM5.3543 10.426L5.21864 10.636L5.2187 10.636L5.3543 10.426ZM5.13132 10.2923L5.24782 10.0711L5.19001 10.0407L5.1247 10.0424L5.13132 10.2923ZM4.24626 10.4615L4.33751 10.6942L4.33753 10.6942L4.24626 10.4615ZM3.5245 10.9061L3.69654 11.0875L3.69655 11.0875L3.5245 10.9061ZM2.96953 11.6267L2.75271 11.5022L2.75264 11.5023L2.96953 11.6267ZM2.5619 12.5421L2.32402 12.4652L2.32401 12.4652L2.5619 12.5421ZM2.29985 13.6062L2.54584 13.6508L2.54584 13.6508L2.29985 13.6062ZM2.15939 14.6875L2.40878 14.705L2.40878 14.7049L2.15939 14.6875ZM2.72065 17.3128L2.54912 17.4947L2.54914 17.4947L2.72065 17.3128ZM17.2106 14.5926C17.184 14.2119 17.1303 13.7989 17.0519 13.365L16.5598 13.454C16.6356 13.873 16.6867 14.2678 16.7118 14.6275L17.2106 14.5926ZM17.25 15.7322C17.2499 15.3439 17.2366 14.9604 17.2106 14.5924L16.7119 14.6277C16.737 14.9833 16.7499 15.3551 16.75 15.7324L17.25 15.7322ZM16.2256 18.3013C16.9111 17.6551 17.25 16.7819 17.25 15.7323H16.75C16.75 16.6669 16.4525 17.4002 15.8826 17.9374L16.2256 18.3013ZM13.6171 19.25C14.6663 19.25 15.5514 18.9367 16.2256 18.3013L15.8826 17.9374C15.3169 18.4707 14.5621 18.75 13.6171 18.75V19.25ZM4.38292 19.25H13.6171V18.75H4.38292V19.25ZM1.77428 18.3013C2.44828 18.9367 3.33339 19.25 4.38292 19.25V18.75C3.43762 18.75 2.68283 18.4707 2.11727 17.9375L1.77428 18.3013ZM0.75 15.7325C0.75 16.7819 1.08898 17.6546 1.7742 18.3012L2.11735 17.9375C1.54749 17.3998 1.25 16.6667 1.25 15.7325H0.75ZM0.788947 14.593C0.76306 14.9619 0.75 15.3454 0.75 15.7325H1.25C1.25 15.3565 1.26269 14.9847 1.28772 14.628L0.788947 14.593ZM0.947734 13.3649C0.869099 13.7984 0.815567 14.2116 0.788941 14.5931L1.28773 14.6279C1.3129 14.2672 1.36383 13.8724 1.43971 13.4541L0.947734 13.3649ZM1.2537 12.1258C1.13009 12.5087 1.02731 12.9256 0.947724 13.3649L1.43972 13.4541C1.51581 13.0341 1.61347 12.6389 1.72953 12.2794L1.2537 12.1258ZM1.77557 10.9523C1.55907 11.3299 1.38334 11.7246 1.25372 12.1257L1.7295 12.2794C1.84804 11.9126 2.00942 11.5497 2.20933 11.201L1.77557 10.9523ZM2.57543 9.92027C2.27098 10.2089 2.00235 10.5567 1.77555 10.9524L2.20934 11.201C2.41446 10.8432 2.65383 10.5349 2.91942 10.2831L2.57543 9.92027ZM3.7412 9.1936C3.29266 9.36954 2.89941 9.61314 2.57543 9.92027L2.91942 10.2831C3.19211 10.0246 3.52896 9.81394 3.92378 9.65908L3.7412 9.1936ZM5.21735 8.92773C4.69071 8.92773 4.1935 9.01611 3.74116 9.19362L3.92382 9.65906C4.3122 9.50665 4.74672 9.42773 5.21735 9.42773V8.92773ZM6.10338 9.28313C5.73618 9.04608 5.49252 8.92773 5.21735 8.92773V9.42773C5.33372 9.42773 5.46872 9.46855 5.8322 9.7032L6.10338 9.28313ZM6.8843 9.78175C6.59374 9.5978 6.33101 9.43005 6.10337 9.28312L5.83221 9.70321C6.06137 9.85112 6.32537 10.0197 6.61684 10.2042L6.8843 9.78175ZM7.83794 10.1964C7.42938 10.0657 7.11061 9.92486 6.88419 9.78168L6.61696 10.2043C6.8921 10.3783 7.25427 10.5346 7.68555 10.6726L7.83794 10.1964ZM8.99941 10.3827C8.6157 10.3827 8.22499 10.3204 7.83802 10.1964L7.68548 10.6726C8.11932 10.8116 8.56143 10.8827 8.99941 10.8827V10.3827ZM10.1608 10.1965C9.77413 10.3204 9.38344 10.3827 8.99941 10.3827V10.8827C9.43768 10.8827 9.8798 10.8116 10.3134 10.6726L10.1608 10.1965ZM11.1155 9.78143C10.8886 9.92471 10.5698 10.0656 10.1609 10.1964L10.3133 10.6726C10.7451 10.5345 11.107 10.3781 11.3824 10.2042L11.1155 9.78143ZM11.8954 9.28333C11.6711 9.4282 11.4086 9.59593 11.1153 9.7816L11.3827 10.2041C11.677 10.0178 11.9409 9.8492 12.1667 9.70329L11.8954 9.28333ZM12.7818 8.92788C12.5066 8.92788 12.263 9.04621 11.8955 9.28322L12.1665 9.7034C12.5304 9.46871 12.6654 9.42788 12.7818 9.42788V8.92788ZM14.258 9.19343C13.8055 9.01609 13.3082 8.92788 12.7818 8.92788V9.42788C13.2523 9.42788 13.687 9.50666 14.0755 9.65895L14.258 9.19343ZM15.4237 9.92012C15.1 9.61329 14.7069 9.3697 14.2582 9.19349L14.0754 9.6589C14.4706 9.81406 14.8073 10.0248 15.0797 10.283L15.4237 9.92012ZM16.2237 10.9523C15.9968 10.5566 15.7282 10.2086 15.4236 9.92008L15.0797 10.283C15.3453 10.5346 15.5846 10.843 15.7899 11.201L16.2237 10.9523ZM16.7457 12.1255C16.6161 11.7248 16.4405 11.3299 16.2236 10.9522L15.79 11.2012C15.9901 11.5497 16.1514 11.9127 16.2699 12.2794L16.7457 12.1255ZM17.0518 13.3649C16.9723 12.9257 16.8695 12.5086 16.7457 12.1256L16.2699 12.2793C16.3861 12.6388 16.4838 13.034 16.5598 13.4541L17.0518 13.3649ZM15.1077 17.1308C14.7558 17.4626 14.2795 17.6366 13.6169 17.6366V18.1366C14.3725 18.1366 14.9836 17.935 15.4507 17.4945L15.1077 17.1308ZM15.6262 15.7324C15.626 16.3659 15.4477 16.8103 15.1077 17.1308L15.4507 17.4946C15.914 17.0578 16.126 16.4683 16.1262 15.7325L15.6262 15.7324ZM15.5908 14.7056C15.6142 15.0355 15.626 15.381 15.6262 15.7326L16.1262 15.7324C16.126 15.3699 16.1138 15.0126 16.0895 14.6702L15.5908 14.7056ZM15.5902 14.6876V14.6879H16.0902V14.6876H15.5902ZM15.4537 13.6505C15.5223 14.0305 15.5684 14.3852 15.5908 14.7051L16.0896 14.6702C16.0657 14.329 16.017 13.956 15.9457 13.5616L15.4537 13.6505ZM15.1996 12.6188C15.3007 12.9316 15.3864 13.2787 15.4537 13.6506L15.9457 13.5615C15.8749 13.1706 15.7842 12.8017 15.6754 12.4651L15.1996 12.6188ZM14.8129 11.7513C14.9748 12.0333 15.1048 12.3254 15.1996 12.6188L15.6754 12.4651C15.5694 12.1371 15.425 11.8132 15.2466 11.5023L14.8129 11.7513ZM14.3028 11.0875C14.4887 11.2637 14.6609 11.4862 14.8129 11.7512L15.2466 11.5024C15.074 11.2015 14.8728 10.9389 14.6467 10.7246L14.3028 11.0875ZM13.6619 10.6942C13.9225 10.7965 14.1368 10.9301 14.3028 11.0875L14.6468 10.7246C14.4274 10.5167 14.1559 10.3509 13.8444 10.2288L13.6619 10.6942ZM12.8612 10.5422C13.1592 10.5501 13.4275 10.6024 13.6619 10.6942L13.8444 10.2287C13.5491 10.113 13.2226 10.0516 12.8744 10.0424L12.8612 10.5422ZM12.7803 10.6361C12.8893 10.5658 12.9529 10.53 12.9843 10.5135L12.7513 10.0711C12.7039 10.0961 12.6274 10.1397 12.5094 10.2159L12.7803 10.6361ZM11.9875 11.1425C12.2891 10.9515 12.5486 10.7858 12.7805 10.6359L12.5091 10.216C12.2789 10.3648 12.0208 10.5296 11.72 10.7201L11.9875 11.1425ZM10.659 11.7321C11.1836 11.5642 11.6319 11.3671 11.9872 11.1427L11.7202 10.7199C11.411 10.9153 11.0045 11.0965 10.5066 11.2559L10.659 11.7321ZM8.99956 11.9961C9.55507 11.9961 10.1135 11.9068 10.6591 11.7321L10.5066 11.2559C10.0084 11.4155 9.50132 11.4961 8.99956 11.4961V11.9961ZM7.33989 11.732C7.88576 11.9068 8.44404 11.9961 8.99956 11.9961V11.4961C8.49782 11.4961 7.99094 11.4155 7.49242 11.2558L7.33989 11.732ZM6.01249 11.143C6.3674 11.3671 6.81582 11.5643 7.33999 11.732L7.49231 11.2558C6.99492 11.0967 6.58829 10.9153 6.27951 10.7202L6.01249 11.143ZM5.2187 10.636C5.45045 10.7856 5.71739 10.9562 6.01233 11.1428L6.27968 10.7203C5.98585 10.5344 5.72021 10.3646 5.4899 10.2159L5.2187 10.636ZM5.01482 10.5135C5.04632 10.5301 5.10994 10.5657 5.21864 10.636L5.48996 10.216C5.37158 10.1395 5.29503 10.096 5.24782 10.0711L5.01482 10.5135ZM4.33753 10.6942C4.57177 10.6024 4.84009 10.5501 5.13794 10.5422L5.1247 10.0424C4.77672 10.0516 4.45012 10.113 4.155 10.2287L4.33753 10.6942ZM3.69655 11.0875C3.86249 10.93 4.07665 10.7965 4.33751 10.6942L4.15502 10.2287C3.8435 10.3509 3.5719 10.5165 3.35244 10.7247L3.69655 11.0875ZM3.18635 11.7511C3.3383 11.4864 3.51056 11.2639 3.69654 11.0875L3.35245 10.7247C3.12642 10.9391 2.92528 11.2016 2.75271 11.5022L3.18635 11.7511ZM2.79978 12.619C2.89473 12.3253 3.02463 12.0332 3.18642 11.751L2.75264 11.5023C2.5744 11.8133 2.43011 12.137 2.32402 12.4652L2.79978 12.619ZM2.54584 13.6508C2.61335 13.2785 2.6989 12.9312 2.79979 12.6189L2.32401 12.4652C2.21538 12.8015 2.12477 13.1706 2.05386 13.5616L2.54584 13.6508ZM2.40878 14.7049C2.43116 14.3844 2.4771 14.0299 2.54584 13.6508L2.05386 13.5616C1.98244 13.9555 1.93386 14.3284 1.91 14.67L2.40878 14.7049ZM2.37384 15.7325C2.37384 15.3819 2.38551 15.0362 2.40878 14.705L1.91001 14.6699C1.88587 15.0136 1.87384 15.371 1.87384 15.7325H2.37384ZM2.89218 17.1309C2.55219 16.8103 2.37384 16.3658 2.37384 15.7325H1.87384C1.87384 16.4681 2.08584 17.0578 2.54912 17.4947L2.89218 17.1309ZM4.38292 17.6366C3.7202 17.6366 3.24393 17.4626 2.89216 17.1309L2.54914 17.4947C3.01614 17.935 3.62728 18.1366 4.38292 18.1366V17.6366ZM13.6169 17.6366H4.38292V18.1366H13.6169V17.6366Z" fill="#EFBBC2"/>
</g>
</g>
</svg>
