<svg width="18" height="18" viewBox="0 0 18 18" fill="none" xmlns="http://www.w3.org/2000/svg">
<g id="telephone">
<g id="Shape">
<path fill-rule="evenodd" clip-rule="evenodd" d="M9.90981 16.0584C7.73334 15.0075 5.82643 13.5222 4.24233 11.6357C2.93777 10.0742 2.0592 8.6121 1.47681 7.0373C1.09742 6.01948 0.950992 5.17737 1.01422 4.385C1.06747 3.75176 1.32372 3.20472 1.77632 2.75383L3.02097 1.51388C3.37706 1.17571 3.78307 1 4.20572 1C4.6317 1 5.03438 1.17571 5.37716 1.51057C5.60346 1.71944 5.83309 1.95151 6.05273 2.17696L6.06195 2.18642C6.17186 2.29913 6.27887 2.40887 6.39218 2.52176L7.38391 3.50974C7.74665 3.8678 7.93634 4.28222 7.93634 4.70327C7.93634 5.12433 7.74332 5.53875 7.38391 5.89681C7.28074 5.99959 7.17757 6.10236 7.07774 6.20514C6.79486 6.49358 6.502 6.78864 6.18917 7.07045C6.41215 7.58433 6.73163 8.08827 7.20753 8.68835C8.14933 9.83879 9.1344 10.7339 10.2193 11.4202C10.3291 11.4898 10.4523 11.5528 10.5854 11.6191L10.5854 11.6192C10.6919 11.6722 10.805 11.7286 10.9149 11.7915L12.1063 10.6046C12.4557 10.2565 12.865 10.0709 13.291 10.0709C13.717 10.0709 14.123 10.2565 14.4624 10.608L16.4625 12.6005C17.178 13.3133 17.178 14.2482 16.4692 14.9843C16.3161 15.1434 16.1564 15.2992 16 15.4484C15.9842 15.4637 15.9684 15.4789 15.9527 15.4941C15.7402 15.6994 15.5374 15.8954 15.3577 16.1115C15.3543 16.1181 15.3477 16.1247 15.3443 16.1281C14.8019 16.7149 14.1363 17 13.3076 17C13.2342 17 13.1638 16.9969 13.0906 16.9938L13.0813 16.9934C11.8467 16.9138 10.7385 16.4496 9.90981 16.0584ZM2.35538 3.32739C2.0359 3.64567 1.86618 4.01368 1.82624 4.45462C1.77299 5.12101 1.90278 5.85371 2.24556 6.76544C2.798 8.25073 3.63331 9.63655 4.87464 11.1252C6.3822 12.9221 8.19925 14.3378 10.2692 15.3357C11.0313 15.6971 12.0464 16.1214 13.1379 16.191C13.1945 16.1944 13.2544 16.1977 13.311 16.1977C13.9 16.1977 14.3559 16.0054 14.7387 15.5943C14.9463 15.3467 15.1748 15.1257 15.396 14.9118C15.4087 14.8995 15.4215 14.8871 15.4342 14.8748C15.5906 14.7257 15.737 14.5831 15.8768 14.4339C16.2828 14.0128 16.2862 13.5818 15.8868 13.184L13.8801 11.1881C13.7503 11.0489 13.5439 10.8931 13.291 10.8931C13.0847 10.8931 12.875 10.9959 12.682 11.1881L11.4373 12.4281C11.3808 12.4845 11.2077 12.6535 10.9415 12.6535C10.835 12.6535 10.7285 12.627 10.6187 12.5707C10.612 12.5673 10.6062 12.564 10.6004 12.5607C10.5945 12.5574 10.5887 12.5541 10.5821 12.5508C10.4722 12.4811 10.3491 12.4182 10.216 12.3518C10.192 12.3396 10.1676 12.3273 10.1431 12.315C10.0218 12.2538 9.89577 12.1904 9.7767 12.1131C8.61857 11.3804 7.56694 10.4289 6.56856 9.20224C6.01279 8.50601 5.6567 7.9225 5.40045 7.30916C5.39879 7.30419 5.39712 7.30004 5.39546 7.2959C5.3938 7.29175 5.39213 7.28761 5.39047 7.28264C5.32391 7.08371 5.28065 6.8218 5.55687 6.54662L5.57351 6.53005C5.86887 6.26951 6.13864 5.99764 6.42226 5.71181C6.44541 5.68848 6.46866 5.66505 6.49202 5.64153C6.5436 5.59014 6.59518 5.53793 6.64676 5.48571C6.69834 5.43349 6.74993 5.38127 6.80152 5.32988C7.00785 5.12433 7.11434 4.91546 7.11434 4.7099C7.11434 4.50435 7.00785 4.29548 6.80152 4.08993L5.80979 3.10195C5.75197 3.0427 5.69415 2.98427 5.63673 2.92625C5.57849 2.86739 5.52066 2.80895 5.46368 2.75052C5.43359 2.72009 5.40378 2.6899 5.3742 2.65994C5.18138 2.46461 4.99807 2.27892 4.80475 2.1007C4.61506 1.90841 4.40873 1.81227 4.20572 1.81227C3.99939 1.81227 3.7864 1.90841 3.59338 2.09407L2.35538 3.32739Z" fill="#C1C1C1"/>
<path d="M4.24233 11.6357L4.05047 11.796L4.05088 11.7965L4.24233 11.6357ZM9.90981 16.0584L9.8011 16.2836L9.80308 16.2845L9.90981 16.0584ZM1.47681 7.0373L1.71129 6.95058L1.71106 6.94998L1.47681 7.0373ZM1.01422 4.385L0.7651 4.36405L0.765016 4.36511L1.01422 4.385ZM1.77632 2.75383L1.95276 2.93094H1.95276L1.77632 2.75383ZM3.02097 1.51388L2.84877 1.33255L2.84453 1.33677L3.02097 1.51388ZM5.37716 1.51057L5.20239 1.68947L5.2076 1.69428L5.37716 1.51057ZM6.05273 2.17696L5.87366 2.35142L5.87374 2.35149L6.05273 2.17696ZM6.06195 2.18642L6.24094 2.01188L6.24094 2.01188L6.06195 2.18642ZM6.39218 2.52176L6.56862 2.34465L6.56862 2.34465L6.39218 2.52176ZM7.38391 3.50974L7.20746 3.68685L7.20828 3.68766L7.38391 3.50974ZM7.38391 5.89681L7.20746 5.7197H7.20746L7.38391 5.89681ZM7.07774 6.20514L7.25623 6.38019L7.25706 6.37933L7.07774 6.20514ZM6.18917 7.07045L6.02185 6.88471L5.88827 7.00504L5.95983 7.16996L6.18917 7.07045ZM7.20753 8.68835L7.01162 8.84372L7.01408 8.84672L7.20753 8.68835ZM10.2193 11.4202L10.3532 11.2091L10.353 11.2089L10.2193 11.4202ZM10.5854 11.6191L10.6972 11.3955L10.6969 11.3954L10.5854 11.6191ZM10.5854 11.6192L10.4736 11.8428L10.4739 11.8429L10.5854 11.6192ZM10.9149 11.7915L10.7905 12.0084L10.9561 12.1034L11.0913 11.9687L10.9149 11.7915ZM12.1063 10.6046L12.2827 10.7818L12.1063 10.6046ZM14.4624 10.608L14.2826 10.7817L14.286 10.7851L14.4624 10.608ZM16.4625 12.6005L16.639 12.4234L16.4625 12.6005ZM16.4692 14.9843L16.2891 14.8108L16.289 14.8109L16.4692 14.9843ZM16 15.4484L15.8274 15.2675L15.8261 15.2687L16 15.4484ZM15.9527 15.4941L15.779 15.3143L15.779 15.3143L15.9527 15.4941ZM15.3577 16.1115L15.1654 15.9516L15.1471 15.9737L15.1342 15.9993L15.3577 16.1115ZM15.3443 16.1281L15.1678 15.9508L15.1608 15.9584L15.3443 16.1281ZM13.0906 16.9938L13.1014 16.744H13.1014L13.0906 16.9938ZM13.0813 16.9934L13.0653 17.2429L13.0705 17.2431L13.0813 16.9934ZM1.82624 4.45462L1.57725 4.43207L1.57704 4.43471L1.82624 4.45462ZM2.35538 3.32739L2.53183 3.5045L2.35538 3.32739ZM2.24556 6.76544L2.47988 6.67828L2.47957 6.67746L2.24556 6.76544ZM4.87464 11.1252L4.68263 11.2853L4.68311 11.2858L4.87464 11.1252ZM10.2692 15.3357L10.1607 15.5609L10.1621 15.5616L10.2692 15.3357ZM13.1379 16.191L13.122 16.4405L13.1233 16.4406L13.1379 16.191ZM14.7387 15.5943L14.9219 15.7649L14.9302 15.7549L14.7387 15.5943ZM15.396 14.9118L15.5698 15.0915L15.5698 15.0915L15.396 14.9118ZM15.4342 14.8748L15.2616 14.6939L15.2603 14.6952L15.4342 14.8748ZM15.8768 14.4339L15.6968 14.2603L15.6944 14.263L15.8768 14.4339ZM15.8868 13.184L16.0632 13.0069L16.0631 13.0067L15.8868 13.184ZM13.8801 11.1881L13.697 11.3587L13.7038 11.3654L13.8801 11.1881ZM12.682 11.1881L12.8584 11.3653L12.682 11.1881ZM11.4373 12.4281L11.6138 12.6052L11.4373 12.4281ZM10.6187 12.5707L10.7328 12.3482L10.7301 12.3469L10.6187 12.5707ZM10.6004 12.5607L10.7241 12.3435L10.724 12.3434L10.6004 12.5607ZM10.5821 12.5508L10.4482 12.7619L10.4591 12.7688L10.4706 12.7745L10.5821 12.5508ZM10.216 12.3518L10.1024 12.5746L10.1045 12.5756L10.216 12.3518ZM10.1431 12.315L10.0307 12.5383L10.0307 12.5383L10.1431 12.315ZM9.7767 12.1131L9.91276 11.9034L9.91036 11.9019L9.7767 12.1131ZM6.56856 9.20224L6.37317 9.35821L6.37466 9.36005L6.56856 9.20224ZM5.40045 7.30916L5.16337 7.38848L5.16626 7.39712L5.16978 7.40553L5.40045 7.30916ZM5.39546 7.2959L5.62746 7.20275L5.62746 7.20275L5.39546 7.2959ZM5.39047 7.28264L5.15339 7.36196L5.15339 7.36197L5.39047 7.28264ZM5.55687 6.54662L5.38042 6.36951L5.38042 6.36951L5.55687 6.54662ZM5.57351 6.53005L5.40813 6.34256L5.40244 6.34758L5.39706 6.35293L5.57351 6.53005ZM6.42226 5.71181L6.24479 5.53572L6.24479 5.53572L6.42226 5.71181ZM6.49202 5.64153L6.31557 5.46441L6.31463 5.46536L6.49202 5.64153ZM6.64676 5.48571L6.4689 5.31002L6.64676 5.48571ZM6.80152 5.32988L6.62507 5.15277L6.62507 5.15277L6.80152 5.32988ZM6.80152 4.08993L6.62507 4.26704H6.62507L6.80152 4.08993ZM5.80979 3.10195L5.63085 3.27657L5.63335 3.27906L5.80979 3.10195ZM5.63673 2.92625L5.81444 2.7504L5.81444 2.7504L5.63673 2.92625ZM5.46368 2.75052L5.64268 2.57598L5.64141 2.5747L5.46368 2.75052ZM5.3742 2.65994L5.19629 2.83557L5.19629 2.83557L5.3742 2.65994ZM4.80475 2.1007L4.62657 2.27647L4.6353 2.28452L4.80475 2.1007ZM3.59338 2.09407L3.42004 1.91387L3.41694 1.91696L3.59338 2.09407ZM4.05088 11.7965C5.6574 13.7096 7.5924 15.217 9.80111 16.2836L10.0185 15.8333C7.87428 14.7979 5.99545 13.3347 4.43378 11.475L4.05088 11.7965ZM1.24233 7.12401C1.83644 8.73051 2.73131 10.217 4.05047 11.796L4.43419 11.4754C3.14424 9.93139 2.28196 8.49369 1.71129 6.95058L1.24233 7.12401ZM0.765016 4.36511C0.698028 5.20456 0.854774 6.08428 1.24255 7.12462L1.71106 6.94998C1.34007 5.95468 1.20396 5.15019 1.26343 4.40488L0.765016 4.36511ZM1.59988 2.57672C1.10576 3.06898 0.823364 3.67118 0.765103 4.36405L1.26334 4.40595C1.31158 3.83234 1.54169 3.34047 1.95276 2.93094L1.59988 2.57672ZM2.84453 1.33677L1.59988 2.57672L1.95276 2.93094L3.19741 1.69099L2.84453 1.33677ZM4.20572 0.75C3.70889 0.75 3.24347 0.957809 2.84882 1.3326L3.19313 1.69516C3.51065 1.39362 3.85726 1.25 4.20572 1.25V0.75ZM5.55185 1.33174C5.16881 0.957547 4.70547 0.75 4.20572 0.75V1.25C4.55793 1.25 4.89995 1.39388 5.20246 1.6894L5.55185 1.33174ZM6.23179 2.0025C6.01176 1.77665 5.77822 1.54053 5.54672 1.32686L5.2076 1.69428C5.42869 1.89834 5.65441 2.12638 5.87366 2.35142L6.23179 2.0025ZM6.24094 2.01188L6.23172 2.00242L5.87374 2.35149L5.88296 2.36095L6.24094 2.01188ZM6.56862 2.34465C6.4568 2.23325 6.35103 2.12478 6.24094 2.01188L5.88296 2.36095C5.99269 2.47348 6.10094 2.5845 6.21574 2.69887L6.56862 2.34465ZM7.56035 3.33263L6.56862 2.34465L6.21574 2.69887L7.20746 3.68685L7.56035 3.33263ZM8.18634 4.70327C8.18634 4.20276 7.96008 3.7272 7.55953 3.33182L7.20828 3.68766C7.53322 4.0084 7.68634 4.36168 7.68634 4.70327H8.18634ZM7.56035 6.07392C7.95601 5.67976 8.18634 5.20469 8.18634 4.70327H7.68634C7.68634 5.04397 7.53064 5.39774 7.20746 5.7197L7.56035 6.07392ZM7.25706 6.37933C7.35522 6.27828 7.45692 6.17696 7.56035 6.07392L7.20746 5.7197C7.10456 5.82222 6.99992 5.92645 6.89841 6.03094L7.25706 6.37933ZM6.3565 7.2562C6.67559 6.96875 6.97315 6.66882 7.25623 6.38019L6.89925 6.03009C6.61657 6.31833 6.32842 6.60854 6.02185 6.88471L6.3565 7.2562ZM7.4034 8.53301C6.93592 7.94353 6.63005 7.45846 6.41852 6.97094L5.95983 7.16996C6.19424 7.71021 6.52734 8.23301 7.01165 8.8437L7.4034 8.53301ZM10.353 11.2089C9.29413 10.5392 8.32859 9.6631 7.40097 8.52999L7.01408 8.84672C7.97008 10.0145 8.97468 10.9287 10.0857 11.6315L10.353 11.2089ZM10.6969 11.3954C10.5634 11.3289 10.4509 11.271 10.3532 11.2091L10.0855 11.6314C10.2074 11.7087 10.3411 11.7768 10.4739 11.8429L10.6969 11.3954ZM10.6972 11.3955L10.6972 11.3955L10.4736 11.8428L10.4736 11.8428L10.6972 11.3955ZM11.0392 11.5747C10.922 11.5075 10.8024 11.4479 10.6969 11.3954L10.4739 11.8429C10.5814 11.8965 10.688 11.9497 10.7905 12.0084L11.0392 11.5747ZM11.9298 10.4275L10.7384 11.6144L11.0913 11.9687L12.2827 10.7818L11.9298 10.4275ZM13.291 9.82087C12.7877 9.82087 12.3176 10.0413 11.9298 10.4275L12.2827 10.7818C12.5938 10.4718 12.9423 10.3209 13.291 10.3209V9.82087ZM14.6423 10.4343C14.263 10.0417 13.7947 9.82087 13.291 9.82087V10.3209C13.6393 10.3209 13.9829 10.4714 14.2826 10.7816L14.6423 10.4343ZM16.639 12.4234L14.6389 10.4308L14.286 10.7851L16.2861 12.7776L16.639 12.4234ZM16.6493 15.1577C17.0409 14.751 17.251 14.2733 17.25 13.7832C17.249 13.2925 17.0364 12.8194 16.639 12.4234L16.2861 12.7776C16.6041 13.0944 16.7493 13.4452 16.75 13.7842C16.7507 14.1237 16.6064 14.4814 16.2891 14.8108L16.6493 15.1577ZM16.1725 15.6293C16.3301 15.479 16.4928 15.3204 16.6494 15.1576L16.289 14.8109C16.1395 14.9664 15.9826 15.1195 15.8274 15.2675L16.1725 15.6293ZM16.1264 15.6739C16.1421 15.6587 16.1579 15.6434 16.1738 15.6281L15.8261 15.2687C15.8104 15.2839 15.7947 15.2991 15.779 15.3143L16.1264 15.6739ZM15.5499 16.2713C15.7194 16.0675 15.9122 15.8809 16.1264 15.6738L15.779 15.3143C15.5683 15.5179 15.3554 15.7232 15.1654 15.9516L15.5499 16.2713ZM15.5208 16.3052C15.5224 16.3036 15.5311 16.2951 15.5405 16.2841C15.5487 16.2746 15.5661 16.2534 15.5811 16.2236L15.1342 15.9993C15.1406 15.9866 15.1469 15.9772 15.151 15.9713C15.1553 15.9653 15.1591 15.9608 15.1615 15.958C15.166 15.9528 15.1697 15.9492 15.1679 15.9509L15.5208 16.3052ZM13.3076 17.25C14.2032 17.25 14.9362 16.9378 15.5279 16.2978L15.1608 15.9584C14.6675 16.4919 14.0694 16.75 13.3076 16.75V17.25ZM13.0797 17.2435C13.1522 17.2467 13.2279 17.25 13.3076 17.25V16.75C13.2405 16.75 13.1754 16.7472 13.1014 16.744L13.0797 17.2435ZM13.0705 17.2431L13.0798 17.2435L13.1014 16.744L13.0922 16.7436L13.0705 17.2431ZM9.80308 16.2845C10.6376 16.6785 11.7813 17.1601 13.0653 17.2429L13.0974 16.7439C11.912 16.6675 10.8393 16.2208 10.0165 15.8324L9.80308 16.2845ZM2.07522 4.47717C2.10992 4.0941 2.25431 3.78097 2.53183 3.5045L2.17894 3.15028C1.8175 3.51036 1.62244 3.93325 1.57726 4.43207L2.07522 4.47717ZM2.47957 6.67746C2.1447 5.78675 2.02609 5.09229 2.07545 4.47453L1.57704 4.43471C1.5199 5.14973 1.66087 5.92067 2.01155 6.85342L2.47957 6.67746ZM5.06664 10.965C3.83958 9.49355 3.02054 8.13191 2.47988 6.67829L2.01125 6.85259C2.57546 8.36954 3.42705 9.77956 4.68263 11.2853L5.06664 10.965ZM10.3778 15.1105C8.3402 14.1282 6.55129 12.7347 5.06616 10.9645L4.68311 11.2858C6.2131 13.1095 8.0583 14.5473 10.1607 15.5609L10.3778 15.1105ZM13.1538 15.9416C12.1122 15.8751 11.1331 15.4687 10.3763 15.1098L10.1621 15.5616C10.9295 15.9255 11.9805 16.3677 13.122 16.4405L13.1538 15.9416ZM13.311 15.9477C13.2627 15.9477 13.2097 15.9448 13.1525 15.9415L13.1233 16.4406C13.1793 16.4439 13.2461 16.4477 13.311 16.4477V15.9477ZM14.5557 15.4239C14.2229 15.7814 13.8346 15.9477 13.311 15.9477V16.4477C13.9654 16.4477 14.489 16.2294 14.9216 15.7646L14.5557 15.4239ZM15.2222 14.7321C15.0024 14.9447 14.7645 15.1744 14.5471 15.4336L14.9302 15.7549C15.1281 15.5189 15.3472 15.3068 15.5698 15.0915L15.2222 14.7321ZM15.2603 14.6952C15.2477 14.7075 15.235 14.7198 15.2222 14.7321L15.5698 15.0915C15.5825 15.0792 15.5953 15.0668 15.6081 15.0545L15.2603 14.6952ZM15.6944 14.263C15.5596 14.4069 15.4173 14.5455 15.2616 14.6939L15.6068 15.0557C15.764 14.9058 15.9145 14.7593 16.0593 14.6048L15.6944 14.263ZM15.7104 13.3611C15.8785 13.5286 15.9348 13.675 15.9338 13.7983C15.9328 13.9236 15.8723 14.0785 15.6969 14.2604L16.0568 14.6074C16.2874 14.3683 16.4315 14.0971 16.4338 13.8022C16.4362 13.5053 16.2944 13.2372 16.0632 13.0069L15.7104 13.3611ZM13.7038 11.3654L15.7105 13.3613L16.0631 13.0067L14.0563 11.0109L13.7038 11.3654ZM13.291 11.1431C13.441 11.1431 13.5854 11.2387 13.6972 11.3586L14.0629 11.0177C13.9151 10.8591 13.6469 10.6431 13.291 10.6431V11.1431ZM12.8584 11.3653C13.0212 11.2031 13.1711 11.1431 13.291 11.1431V10.6431C12.9983 10.6431 12.7288 10.7886 12.5055 11.011L12.8584 11.3653ZM11.6138 12.6052L12.8584 11.3653L12.5055 11.011L11.2609 12.251L11.6138 12.6052ZM10.9415 12.9035C11.3159 12.9035 11.5524 12.6663 11.6138 12.6052L11.2609 12.251C11.2091 12.3026 11.0995 12.4035 10.9415 12.4035V12.9035ZM10.5045 12.7931C10.6458 12.8656 10.7911 12.9035 10.9415 12.9035V12.4035C10.8788 12.4035 10.8112 12.3885 10.7328 12.3482L10.5045 12.7931ZM10.4767 12.778C10.482 12.781 10.4935 12.7876 10.5072 12.7944L10.7301 12.3469C10.7305 12.3471 10.7304 12.3471 10.7241 12.3435L10.4767 12.778ZM10.4706 12.7745C10.4702 12.7743 10.4703 12.7744 10.4767 12.778L10.724 12.3434C10.7187 12.3404 10.7072 12.3338 10.6935 12.327L10.4706 12.7745ZM10.1045 12.5756C10.2379 12.6421 10.3505 12.7 10.4482 12.7619L10.7159 12.3396C10.594 12.2623 10.4603 12.1942 10.3274 12.1281L10.1045 12.5756ZM10.0307 12.5383C10.0553 12.5507 10.079 12.5626 10.1025 12.5746L10.3295 12.1291C10.3049 12.1165 10.28 12.104 10.2556 12.0917L10.0307 12.5383ZM9.64064 12.3229C9.77298 12.4087 9.91115 12.4781 10.0307 12.5383L10.2556 12.0917C10.1324 12.0296 10.0186 11.972 9.91275 11.9034L9.64064 12.3229ZM6.37466 9.36005C7.38776 10.6048 8.45914 11.5754 9.64304 12.3244L9.91036 11.9019C8.77801 11.1855 7.74613 10.253 6.76246 9.04443L6.37466 9.36005ZM5.16978 7.40553C5.43704 8.04524 5.80672 8.64858 6.37318 9.3582L6.76394 9.04627C6.21887 8.36343 5.87637 7.79977 5.63113 7.21278L5.16978 7.40553ZM5.16346 7.38905L5.16337 7.38848L5.63753 7.22984C5.63325 7.21703 5.62901 7.2066 5.62746 7.20275L5.16346 7.38905ZM5.15339 7.36197C5.15768 7.37478 5.16192 7.38521 5.16346 7.38905L5.62746 7.20275L5.62755 7.20331L5.15339 7.36197ZM5.38042 6.36951C5.20666 6.54262 5.11989 6.72711 5.09701 6.91261C5.07491 7.09169 5.11547 7.24862 5.15339 7.36196L5.62755 7.20331C5.59891 7.11772 5.58456 7.04424 5.59324 6.97384C5.60114 6.90985 5.63085 6.8258 5.73331 6.72373L5.38042 6.36951ZM5.39706 6.35293L5.38042 6.36951L5.73331 6.72373L5.74995 6.70716L5.39706 6.35293ZM6.24479 5.53572C5.96025 5.82249 5.69624 6.08842 5.40813 6.34256L5.73888 6.71753C6.0415 6.4506 6.31703 6.17279 6.59972 5.8879L6.24479 5.53572ZM6.31463 5.46536C6.29123 5.48893 6.26794 5.51239 6.24479 5.53572L6.59972 5.8879C6.62288 5.86456 6.64609 5.84117 6.6694 5.81769L6.31463 5.46536ZM6.4689 5.31002C6.4172 5.36236 6.36633 5.41385 6.31558 5.46442L6.66846 5.81864C6.72087 5.76643 6.77315 5.7135 6.82461 5.66141L6.4689 5.31002ZM6.62507 5.15277C6.57266 5.20499 6.52037 5.25792 6.4689 5.31002L6.82461 5.66141C6.87632 5.60906 6.9272 5.55756 6.97796 5.50699L6.62507 5.15277ZM6.86434 4.7099C6.86434 4.82447 6.80512 4.9734 6.62507 5.15277L6.97796 5.50699C7.21057 5.27525 7.36434 5.00645 7.36434 4.7099H6.86434ZM6.62507 4.26704C6.80512 4.44641 6.86434 4.59534 6.86434 4.7099H7.36434C7.36434 4.41336 7.21057 4.14456 6.97796 3.91282L6.62507 4.26704ZM5.63335 3.27906L6.62507 4.26704L6.97796 3.91282L5.98623 2.92484L5.63335 3.27906ZM5.45903 3.1021C5.51654 3.16021 5.57376 3.21803 5.63087 3.27656L5.98871 2.92734C5.93018 2.86737 5.87175 2.80832 5.81444 2.7504L5.45903 3.1021ZM5.28469 2.92505C5.34242 2.98426 5.4009 3.04335 5.45903 3.1021L5.81444 2.7504C5.75608 2.69143 5.6989 2.63365 5.64267 2.57598L5.28469 2.92505ZM5.19629 2.83557C5.22585 2.86552 5.25575 2.8958 5.28595 2.92634L5.64141 2.5747C5.61142 2.54438 5.58171 2.51429 5.55212 2.48431L5.19629 2.83557ZM4.6353 2.28452C4.82356 2.45807 5.00275 2.63952 5.19629 2.83557L5.55212 2.48431C5.36001 2.28971 5.17258 2.09977 4.9742 1.91689L4.6353 2.28452ZM4.20572 2.06227C4.32504 2.06227 4.47079 2.11815 4.62677 2.27627L4.98273 1.92513C4.75933 1.69868 4.49241 1.56227 4.20572 1.56227V2.06227ZM3.76669 2.27425C3.92586 2.12115 4.07974 2.06227 4.20572 2.06227V1.56227C3.91904 1.56227 3.64694 1.69567 3.42007 1.9139L3.76669 2.27425ZM2.53183 3.5045L3.76982 2.27118L3.41694 1.91696L2.17894 3.15028L2.53183 3.5045Z" fill="#C1C1C1"/>
</g>
</g>
</svg>
