<svg width="41" height="40" viewBox="0 0 41 40" fill="none" xmlns="http://www.w3.org/2000/svg">
<g clip-path="url(#clip0_1_3721)">
<path d="M25.6254 15.1993C26.4334 16.938 26.2501 18.9847 25.3554 20.648C24.6214 22.0127 23.5261 23.1413 22.6234 24.3907C22.2107 24.9627 21.7941 25.5573 21.5107 26.2087C21.4167 26.4253 21.3354 26.6473 21.2554 26.87C21.1747 27.092 21.1061 27.3187 21.0287 27.542C20.9561 27.7513 20.8714 27.998 20.6107 28H20.6061C20.2954 27.9993 20.2201 27.6467 20.1427 27.4087C19.9534 26.826 19.7554 26.2667 19.4634 25.7253C19.1234 25.096 18.7001 24.514 18.2701 23.9447L25.6254 15.1993ZM18.3041 17.1367L15.6647 20.2747C16.1474 21.3013 16.8787 22.1833 17.5787 23.0613C17.7434 23.268 17.9081 23.476 18.0701 23.6853L21.3927 19.7353L21.3734 19.742C20.2127 20.1427 18.9127 19.548 18.4454 18.4173C18.3815 18.2639 18.3347 18.1038 18.3061 17.94C18.2641 17.6487 18.2547 17.4327 18.3034 17.1413L18.3041 17.1367ZM16.2687 14.0993L16.2667 14.102C14.9687 15.746 14.7461 18.022 15.5221 19.9487L18.7121 16.156L18.6734 16.1227L16.2687 14.0993ZM22.3814 12.2907L19.8227 15.3327C19.8286 15.3302 19.8346 15.3279 19.8407 15.326C20.9074 14.9587 22.1094 15.426 22.6541 16.41C22.7714 16.6227 22.8694 16.8653 22.9054 17.1067C22.9507 17.404 22.9621 17.622 22.9134 17.92L22.9114 17.9307L25.4687 14.89C24.8004 13.6711 23.7018 12.7451 22.3874 12.2927L22.3814 12.2907ZM18.9181 15.912L22.0487 12.19L22.0174 12.182C21.5541 12.0602 21.077 11.9991 20.5981 12C19.8225 12.0073 19.0567 12.1748 18.349 12.4922C17.6412 12.8095 17.0068 13.2698 16.4854 13.844L16.4747 13.856L18.9181 15.912Z" fill="black"/>
</g>
<defs>
<clipPath id="clip0_1_3721">
<rect width="16" height="16" fill="white" transform="translate(12.6074 12)"/>
</clipPath>
</defs>
</svg>
