<svg width="27" height="27" viewBox="0 0 27 27" fill="none" xmlns="http://www.w3.org/2000/svg">
<path d="M1 9.01513V6.15258C1 3.30149 3.30149 1 6.15258 1L9.01513 1" stroke="#004C5F" stroke-width="2" stroke-linecap="round" stroke-linejoin="round"/>
<path d="M17.0303 1L19.8928 1C22.7439 1 25.0454 3.30149 25.0454 6.15258V9.01513" stroke="#004C5F" stroke-width="2" stroke-linecap="round" stroke-linejoin="round"/>
<path d="M25.0454 17.7588V19.5804C25.0454 22.6043 22.6044 25.0453 19.5805 25.0453H17.7589" stroke="#004C5F" stroke-width="2" stroke-linecap="round" stroke-linejoin="round"/>
<path d="M9.01513 25.0454H6.15258C3.30149 25.0454 1 22.7439 1 19.8928V17.0303" stroke="#004C5F" stroke-width="2" stroke-linecap="round" stroke-linejoin="round"/>
<path d="M19.2162 10.4061V16.3678C19.2162 18.7524 17.9775 19.9448 15.5001 19.9448H10.5453C8.06793 19.9448 6.82922 18.7524 6.82922 16.3678V10.4061C6.82922 8.02143 8.06793 6.8291 10.5453 6.8291H15.5001C17.9775 6.8291 19.2162 8.02143 19.2162 10.4061Z" stroke="#004C5F" stroke-width="2" stroke-linecap="round" stroke-linejoin="round"/>
<path d="M21.4021 13.3867H4.64319" stroke="#004C5F" stroke-width="2" stroke-linecap="round" stroke-linejoin="round"/>
</svg>
