<svg width="24" height="24" viewBox="0 0 24 24" fill="none" xmlns="http://www.w3.org/2000/svg">
<g id="ic / placeholder">
<g id="declaration">
<path id="Shape" fill-rule="evenodd" clip-rule="evenodd" d="M19.3558 1.00225C19.3412 1.00128 5.43517 1 5.43517 1C3.56469 1 2.04297 2.52172 2.04297 4.3922V20.2511C2.04297 20.616 2.33883 20.9119 2.70376 20.9119H7.76984V22.8943C7.76984 23.2592 8.0657 23.5551 8.43063 23.5551H11.5143C11.8793 23.5551 12.1751 23.2592 12.1751 22.8943V20.9119H17.2412C17.6061 20.9119 17.902 20.616 17.902 20.2511V7.47564H21.295C21.6599 7.47564 21.9557 7.17978 21.9557 6.81485V3.68767C21.9557 2.23511 20.7972 1.04881 19.3558 1.00225ZM9.97248 19.5251C9.12204 19.5251 8.43019 18.8332 8.43019 17.9828C8.43019 17.1323 9.12204 16.4405 9.97248 16.4405C10.8229 16.4405 11.5148 17.1324 11.5148 17.9828C11.5148 18.8332 10.8229 19.5251 9.97248 19.5251ZM9.09143 20.7074V22.2335H10.8535V20.7074C10.5758 20.7974 10.2798 20.8467 9.97248 20.8467C9.66513 20.8467 9.36918 20.7974 9.09143 20.7074ZM16.5804 19.5903H12.3413C12.6535 19.1317 12.8364 18.5782 12.8364 17.9828C12.8364 16.4036 11.5516 15.1189 9.97248 15.1189C8.39332 15.1189 7.10861 16.4036 7.10861 17.9828C7.10861 18.5782 7.29143 19.1316 7.60363 19.5903H3.36455V4.3922C3.36455 3.25044 4.29341 2.32159 5.43517 2.32159H16.9548C16.7173 2.7222 16.5804 3.18912 16.5804 3.68767V19.5903ZM17.902 6.15405H20.6342V3.68767C20.6342 2.93441 20.0213 2.32159 19.2681 2.32159C18.5148 2.32159 17.902 2.93441 17.902 3.68767V4.39203V6.15405Z" fill="black"/>
<path id="Path" d="M7.21939 4.96514H12.726C13.0909 4.96514 13.3868 4.66928 13.3868 4.30435C13.3868 3.93941 13.0909 3.64355 12.726 3.64355H7.21939C6.85445 3.64355 6.55859 3.93941 6.55859 4.30435C6.55859 4.66928 6.85445 4.96514 7.21939 4.96514Z" fill="white"/>
<path id="Path_2" d="M14.5994 6.28613H5.34829C4.98336 6.28613 4.6875 6.58199 4.6875 6.94693C4.6875 7.31186 4.98336 7.60772 5.34829 7.60772H14.5994C14.9643 7.60772 15.2602 7.31186 15.2602 6.94693C15.2602 6.58199 14.9643 6.28613 14.5994 6.28613Z" fill="black"/>
<path id="Path_3" d="M14.5994 8.92969H5.34829C4.98336 8.92969 4.6875 9.22555 4.6875 9.59048C4.6875 9.95541 4.98336 10.2513 5.34829 10.2513H14.5994C14.9643 10.2513 15.2602 9.95541 15.2602 9.59048C15.2602 9.22555 14.9643 8.92969 14.5994 8.92969Z" fill="black"/>
<path id="Path_4" d="M14.5994 11.5723H5.34829C4.98336 11.5723 4.6875 11.8681 4.6875 12.2331C4.6875 12.598 4.98336 12.8939 5.34829 12.8939H14.5994C14.9643 12.8939 15.2602 12.598 15.2602 12.2331C15.2602 11.8681 14.9643 11.5723 14.5994 11.5723V11.5723Z" fill="black"/>
</g>
</g>
</svg>
