<svg width="26" height="26" viewBox="0 0 26 26" fill="none" xmlns="http://www.w3.org/2000/svg">
  <path fill-rule="evenodd" clip-rule="evenodd"
    d="M24.5938 13.2969C24.5938 19.536 19.5359 24.5937 13.2969 24.5938C7.05767 24.5938 2 19.536 2 13.2969C2 7.05767 7.05767 2 13.2969 2C19.5359 2 24.5937 7.05767 24.5938 13.2969Z"
    stroke="#19516c" stroke-width="2.3301" stroke-linecap="round" stroke-linejoin="round" />
  <path fill-rule="evenodd" clip-rule="evenodd"
    d="M17.8149 11.7908C17.8149 14.2864 15.7919 16.3096 13.2961 16.3096C10.8003 16.3096 8.77734 14.2864 8.77734 11.7908C8.77734 9.29524 10.8003 7.27212 13.2961 7.27212C15.7919 7.27212 17.8149 9.29524 17.8149 11.7908Z"
    stroke="#19516c" stroke-width="2.3301" stroke-linecap="round" stroke-linejoin="round" />
  <path
    d="M6.55859 22.3632C6.92 18.96 9.79962 16.3089 13.2986 16.3089C16.7977 16.3089 19.6773 18.9602 20.0385 22.3633"
    stroke="#19516c" stroke-width="2.3301" stroke-linecap="round" stroke-linejoin="round" />
</svg>
