<svg width="32" height="32" viewBox="0 0 32 32" fill="none" xmlns="http://www.w3.org/2000/svg">
  <g clip-path="url(#clip0_71_845)">
    <path
      d="M1.45456 11.6364C0.581835 11.6364 0 11.0545 0 10.1818V4.36362C0 1.89089 1.89089 0 4.36362 0H10.1818C11.0545 0 11.6364 0.581835 11.6364 1.45456C11.6364 2.32728 11.0545 2.90912 10.1818 2.90912H4.36362C3.49089 2.90912 2.90906 3.49095 2.90906 4.36368V10.1819C2.90912 11.0545 2.32728 11.6364 1.45456 11.6364ZM30.5454 11.6364C29.6727 11.6364 29.0909 11.0545 29.0909 10.1818V4.36362C29.0909 3.49089 28.509 2.90906 27.6363 2.90906H21.8181C20.9454 2.90906 20.3636 2.32722 20.3636 1.4545C20.3636 0.581776 20.9454 0 21.8181 0H27.6363C30.109 0 31.9999 1.89089 31.9999 4.36362V10.1818C32 11.0545 31.4182 11.6364 30.5454 11.6364ZM10.1818 32H4.36362C1.89089 32 0 30.1091 0 27.6364V21.8182C0 20.9455 0.581835 20.3636 1.45456 20.3636C2.32728 20.3636 2.90912 20.9455 2.90912 21.8182V27.6364C2.90912 28.5091 3.49095 29.0909 4.36368 29.0909H10.1819C11.0546 29.0909 11.6364 29.6728 11.6364 30.5455C11.6364 31.4182 11.0545 32 10.1818 32ZM27.6364 32H21.8182C20.9455 32 20.3636 31.4182 20.3636 30.5454C20.3636 29.6727 20.9455 29.0909 21.8182 29.0909H27.6364C28.5091 29.0909 29.0909 28.509 29.0909 27.6363V21.8181C29.0909 20.9454 29.6728 20.3636 30.5455 20.3636C31.4182 20.3636 32.0001 20.9454 32.0001 21.8181V27.6363C32 30.1091 30.1091 32 27.6364 32Z"
      fill="url(#paint0_linear_71_845)" />
    <path
      d="M13.0909 14.5455H7.27273C6.40001 14.5455 5.81818 13.9637 5.81818 13.091V7.2728C5.81818 6.40007 6.40001 5.81824 7.27273 5.81824H13.0909C13.9636 5.81824 14.5455 6.40007 14.5455 7.2728V13.091C14.5455 13.9637 13.9636 14.5455 13.0909 14.5455ZM8.72729 11.6364H11.6364V8.7273H8.72729V11.6364ZM13.0909 26.1819H7.27273C6.40001 26.1819 5.81818 25.6 5.81818 24.7273V18.9091C5.81818 18.0364 6.40001 17.4546 7.27273 17.4546H13.0909C13.9636 17.4546 14.5455 18.0364 14.5455 18.9091V24.7273C14.5455 25.6 13.9636 26.1819 13.0909 26.1819ZM8.72729 23.2728H11.6364V20.3636H8.72729V23.2728ZM24.7273 14.5455H18.9091C18.0364 14.5455 17.4545 13.9637 17.4545 13.091V7.2728C17.4545 6.40007 18.0364 5.81824 18.9091 5.81824H24.7273C25.6 5.81824 26.1818 6.40007 26.1818 7.2728V13.091C26.1818 13.9637 25.6 14.5455 24.7273 14.5455ZM20.3636 11.6364H23.2728V8.7273H20.3636V11.6364ZM18.9091 21.8182C18.0364 21.8182 17.4545 21.2364 17.4545 20.3636V18.9091C17.4545 18.0364 18.0364 17.4545 18.9091 17.4545C19.7818 17.4545 20.3636 18.0364 20.3636 18.9091V20.3636C20.3636 21.2364 19.7818 21.8182 18.9091 21.8182ZM24.7273 20.3637H23.2727C22.4 20.3637 21.8181 19.7819 21.8181 18.9091C21.8181 18.0364 22.4 17.4546 23.2727 17.4546H24.7273C25.6 17.4546 26.1818 18.0364 26.1818 18.9091C26.1818 19.7819 25.6 20.3637 24.7273 20.3637ZM24.7273 26.1819H20.3636C19.4909 26.1819 18.9091 25.6 18.9091 24.7273C18.9091 23.8546 19.4909 23.2728 20.3636 23.2728H24.7273C25.6 23.2728 26.1818 23.8546 26.1818 24.7273C26.1818 25.6 25.6 26.1819 24.7273 26.1819Z"
      fill="url(#paint1_linear_71_845)" />
  </g>
  <defs>
    <linearGradient id="paint0_linear_71_845" x1="-0.34689" y1="33.6414" x2="31.4689" y2="34.7036"
      gradientUnits="userSpaceOnUse">
      <stop stop-color="#286d8e" />
      <stop offset="1" stop-color="#19516c" />
    </linearGradient>
    <linearGradient id="paint1_linear_71_845" x1="5.59743" y1="27.2264" x2="25.8438" y2="27.9024"
      gradientUnits="userSpaceOnUse">
      <stop stop-color="#286d8e" />
      <stop offset="1" stop-color="#19516c" />
    </linearGradient>
    <clipPath id="clip0_71_845">
      <rect width="32" height="32" fill="white" />
    </clipPath>
  </defs>
</svg>
