<svg width="21" height="21" viewBox="0 0 21 21" fill="none" xmlns="http://www.w3.org/2000/svg">
  <path
    d="M4.98834 0.00315073C4.72841 0.0104551 4.4816 0.118943 4.30047 0.305513L0.305507 4.29291C0.211917 4.38568 0.137628 4.49607 0.0869312 4.6177C0.0362339 4.73933 0.0101318 4.8698 0.0101318 5.00158C0.0101318 5.13335 0.0362339 5.26382 0.0869312 5.38545C0.137628 5.50709 0.211917 5.61747 0.305507 5.71024L4.30047 9.7052C4.48792 9.89214 4.74195 9.99697 5.00669 9.99662C5.13777 9.99644 5.26754 9.97045 5.38857 9.92012C5.50961 9.8698 5.61955 9.79612 5.71212 9.70331C5.80469 9.61049 5.87807 9.50036 5.92807 9.37918C5.97807 9.25801 6.00372 9.12817 6.00354 8.99709C6.00336 8.86601 5.97737 8.73624 5.92705 8.6152C5.87672 8.49416 5.80305 8.38422 5.71023 8.29165L3.42362 6.00504H18.9839C19.2491 6.00504 19.5033 5.89972 19.6908 5.71224C19.8783 5.52476 19.9836 5.27049 19.9836 5.00536C19.9836 4.74022 19.8783 4.48595 19.6908 4.29847C19.5033 4.11099 19.2491 4.00567 18.9839 4.00567H3.41228L5.71023 1.71528C5.85393 1.57527 5.95208 1.39519 5.99188 1.19855C6.03168 1.0019 6.01127 0.797832 5.93332 0.612963C5.85538 0.428095 5.72351 0.271018 5.55494 0.162233C5.38636 0.0534484 5.1889 -0.00199105 4.98834 0.00315073ZM14.989 9.98866C14.7894 9.98809 14.5942 10.0474 14.4287 10.1589C14.2632 10.2704 14.1349 10.429 14.0604 10.6141C13.9859 10.7993 13.9687 11.0025 14.0109 11.1976C14.0532 11.3927 14.1529 11.5706 14.2973 11.7083L16.5802 13.9912H1.02362C0.758484 13.9912 0.50421 14.0965 0.316733 14.284C0.129255 14.4715 0.0239319 14.7257 0.0239319 14.9909C0.0239319 15.256 0.129255 15.5103 0.316733 15.6978C0.50421 15.8852 0.758484 15.9906 1.02362 15.9906H16.5953L14.3011 18.2847C14.2021 18.376 14.1226 18.4864 14.0673 18.6092C14.0121 18.732 13.9823 18.8648 13.9797 18.9994C13.9772 19.1341 14.0019 19.2679 14.0524 19.3927C14.103 19.5175 14.1782 19.6308 14.2737 19.7258C14.3692 19.8208 14.4829 19.8955 14.608 19.9453C14.7331 19.9952 14.867 20.0192 15.0017 20.0159C15.1363 20.0126 15.2689 19.9821 15.3914 19.9262C15.5139 19.8703 15.6239 19.7902 15.7146 19.6907L19.7096 15.7033C19.8032 15.6105 19.8775 15.5002 19.9282 15.3785C19.9789 15.2569 20.005 15.1264 20.005 14.9946C20.005 14.8629 19.9789 14.7324 19.9282 14.6108C19.8775 14.4891 19.8032 14.3788 19.7096 14.286L15.7109 10.291C15.6171 10.1946 15.5049 10.1181 15.3808 10.0661C15.2567 10.0141 15.1235 9.98781 14.989 9.98866Z"
    fill="url(#paint0_linear_6_421)" />
  <defs>
    <linearGradient id="paint0_linear_6_421" x1="-0.206618" y1="21.0427" x2="19.6732" y2="21.7058"
      gradientUnits="userSpaceOnUse">
      <stop stop-color="#286d8e" />
      <stop offset="1" stop-color="#19516c" />
    </linearGradient>
  </defs>
</svg>
