<svg width="12" height="16" viewBox="0 0 12 16" fill="none" xmlns="http://www.w3.org/2000/svg">
<path d="M5.75538 7.481C5.91607 7.481 6.04332 7.42743 6.14375 7.32697L8.9027 4.55466C9.01653 4.44083 9.0701 4.30689 9.0701 4.15289C9.0701 4.00555 9.00984 3.85823 8.9027 3.75109L6.14375 0.951974C6.05001 0.844831 5.91607 0.79126 5.74867 0.79126C5.45404 0.79126 5.22635 1.03235 5.22635 1.34037C5.22635 1.481 5.27321 1.61492 5.37367 1.72209L7.16161 3.47652C6.77992 3.40957 6.38484 3.3694 5.99644 3.3694C2.71518 3.3694 0.0834961 6.00109 0.0834961 9.28235C0.0834961 12.5703 2.71518 15.2087 5.99644 15.2087C9.27767 15.2087 11.9161 12.5703 11.9161 9.28235C11.9161 8.96092 11.6884 8.72655 11.3536 8.72655C11.0388 8.72655 10.838 8.96092 10.838 9.28235C10.838 11.9743 8.6817 14.1305 5.99644 14.1305C3.31118 14.1305 1.16161 11.9743 1.16161 9.28235C1.16161 6.59706 3.31118 4.44752 5.99644 4.44752C6.51207 4.44752 6.97413 4.48769 7.38261 4.57475L5.38035 6.56357C5.27321 6.67075 5.22635 6.80466 5.22635 6.94529C5.22635 7.25332 5.45404 7.481 5.75538 7.481Z" fill="#004C5F"/>
</svg>
