<svg width="24" height="24" viewBox="0 0 24 24" fill="none" xmlns="http://www.w3.org/2000/svg">
  <g id="satellite">
    <path id="Path"
      d="M16.8676 6.26102H20.875C21.2562 6.26102 21.5656 5.94983 21.5656 5.56537V1.39145C21.5656 1.00745 21.2562 0.695801 20.875 0.695801H16.8676C16.7254 0.695801 16.5868 0.740323 16.4703 0.822873L15.3047 1.64931V5.30797L16.4703 6.13441C16.5868 6.21696 16.7254 6.26102 16.8676 6.26102Z"
      fill="#19516c" />
    <path id="Path_2"
      d="M3.12413 6.26102H7.13155C7.2738 6.26102 7.41237 6.21696 7.52884 6.13441L8.69446 5.30798V1.6493L7.52884 0.822872C7.41237 0.740322 7.2738 0.695801 7.13155 0.695801H3.12413C2.74295 0.695801 2.43359 1.00745 2.43359 1.39145V5.56533C2.43359 5.94979 2.74291 6.26102 3.12413 6.26102Z"
      fill="#19516c" />
    <path id="Path_3"
      d="M11.7962 7.30435H12.2018C13.1449 7.30435 13.912 6.54895 13.912 5.62072V0.706417C13.912 0.316475 13.5906 0 13.1946 0H10.8033C10.4073 0 10.0859 0.316475 10.0859 0.706417V5.62072C10.0859 6.54895 10.8531 7.30435 11.7962 7.30435Z"
      fill="#19516c" />
    <path id="Path_4"
      d="M1.72298 14.7654C1.6139 14.2568 1.54133 13.7339 1.50724 13.2114C1.48078 12.8056 1.12161 12.4981 0.706513 12.5234C0.290713 12.5492 -0.0248594 12.8991 0.00154302 13.3048C0.040166 13.897 0.122441 14.4899 0.246206 15.0669C0.320635 15.414 0.634246 15.6524 0.983814 15.6524C1.03501 15.6524 1.08701 15.6473 1.13906 15.6367C1.54692 15.5534 1.80833 15.1633 1.72298 14.7654Z"
      fill="#19516c" />
    <path id="Path_5"
      d="M2.30514 17.0895C2.14317 16.7405 1.74455 16.5967 1.41492 16.7681C1.08521 16.9396 0.949307 17.3616 1.11128 17.7105C1.34518 18.2144 1.61565 18.7058 1.91517 19.1709C2.04393 19.3708 2.25278 19.4784 2.46534 19.4784C2.59433 19.4784 2.72473 19.4387 2.8394 19.356C3.14291 19.137 3.22121 18.699 3.01432 18.3777C2.75005 17.9674 2.51146 17.534 2.30514 17.0895Z"
      fill="#19516c" />
    <path id="Path_6"
      d="M0.870772 10.7678C0.917256 10.7778 0.963608 10.7826 1.00934 10.7826C1.3145 10.7826 1.58878 10.5686 1.65505 10.2562C1.75317 9.7934 1.88464 9.33544 2.04586 8.89509C2.17205 8.55045 1.99665 8.16813 1.65416 8.04115C1.31168 7.91426 0.931708 8.09063 0.805563 8.43535C0.622669 8.93495 0.473569 9.45418 0.36236 9.97869C0.286136 10.3379 0.513796 10.6912 0.870772 10.7678Z"
      fill="#19516c" />
    <path id="Path_7"
      d="M23.2944 12.5235C22.879 12.4978 22.5201 12.8056 22.4936 13.2113C22.4595 13.7341 22.387 14.2569 22.2779 14.7653C22.1925 15.1632 22.4539 15.5534 22.8617 15.6367C22.9138 15.6473 22.9658 15.6524 23.017 15.6524C23.3665 15.6524 23.6801 15.4141 23.7546 15.0669C23.8783 14.4902 23.9606 13.8973 23.9993 13.3049C24.0258 12.8992 23.7102 12.5493 23.2944 12.5235Z"
      fill="#19516c" />
    <path id="Path_8"
      d="M22.5861 16.7681C22.2565 16.5967 21.8578 16.7405 21.6959 17.0895C21.4896 17.534 21.251 17.9674 20.9867 18.3777C20.7798 18.699 20.8581 19.137 21.1616 19.356C21.2763 19.4388 21.4067 19.4784 21.5357 19.4784C21.7482 19.4784 21.9571 19.3708 22.0859 19.1709C22.3854 18.7058 22.6559 18.2144 22.8898 17.7105C23.0517 17.3615 22.9158 16.9396 22.5861 16.7681Z"
      fill="#19516c" />
    <path id="Path_9"
      d="M22.3458 10.2562C22.412 10.5686 22.6863 10.7826 22.9915 10.7826C23.0372 10.7826 23.0835 10.7778 23.13 10.7678C23.487 10.6912 23.7147 10.3379 23.6385 9.97865C23.5273 9.45414 23.3782 8.93487 23.1953 8.43528C23.0691 8.09065 22.6892 7.91428 22.3467 8.04113C22.0042 8.16811 21.8288 8.55043 21.955 8.8951C22.1162 9.3355 22.2477 9.79341 22.3458 10.2562Z"
      fill="#19516c" />
    <path id="Path_10"
      d="M12.1724 13.5654C11.5971 13.5654 11.1289 14.0335 11.1289 14.6087C11.1289 15.1843 11.5971 15.6524 12.1724 15.6524C12.7476 15.6524 13.2159 15.1843 13.2159 14.6087C13.2159 14.0335 12.7476 13.5654 12.1724 13.5654Z"
      fill="#19516c" />
    <path id="Shape" fill-rule="evenodd" clip-rule="evenodd"
      d="M6.26237 14.7279C6.26755 11.5927 8.83978 9.04346 12.0008 9.04346C15.1619 9.04346 17.7341 11.5927 17.7393 14.7279C17.7431 14.8888 17.7502 16.1826 17.1335 17.8955C16.5447 19.5312 15.2468 21.8961 12.4072 23.8728C12.2851 23.9574 12.1432 24 12.0008 24C11.8585 24 11.7166 23.9574 11.5945 23.8728C8.75492 21.8961 7.45702 19.5312 6.86818 17.8955C6.25152 16.1826 6.2586 14.8888 6.26237 14.7279ZM9.61673 14.7368C9.61673 16.0413 10.686 17.1027 12.0008 17.1027C13.3157 17.1027 14.385 16.0413 14.385 14.7368C14.385 13.4327 13.3157 12.3714 12.0008 12.3714C10.686 12.3714 9.61673 13.4327 9.61673 14.7368Z"
      fill="#19516c" />
  </g>
</svg>
