<svg width="24" height="24" viewBox="0 0 24 24" fill="none" xmlns="http://www.w3.org/2000/svg">
<path d="M12 9C13.6569 9 15 10.3431 15 12C15 13.6569 13.6569 15 12 15C10.3431 15 9 13.6569 9 12C9 10.3431 10.3431 9 12 9Z" stroke="white" stroke-opacity="0.5" stroke-width="2" stroke-miterlimit="10" stroke-linecap="round" stroke-linejoin="round"/>
<path d="M2 11.1201V12.8801C2 13.9201 2.85 14.7801 3.9 14.7801C5.71 14.7801 6.45 16.0601 5.54 17.6301C5.02 18.5301 5.33 19.7001 6.24 20.2201L7.97 21.2101C8.76 21.6801 9.78 21.4001 10.25 20.6101L10.36 20.4201C11.26 18.8501 12.74 18.8501 13.65 20.4201L13.76 20.6101C14.23 21.4001 15.25 21.6801 16.04 21.2101L17.77 20.2201C18.68 19.7001 18.99 18.5301 18.47 17.6301C17.56 16.0601 18.3 14.7801 20.11 14.7801C21.15 14.7801 22.01 13.9301 22.01 12.8801V11.1201C22.01 10.0801 21.16 9.2201 20.11 9.2201C18.3 9.2201 17.56 7.9401 18.47 6.3701C18.99 5.4601 18.68 4.3001 17.77 3.7801L16.04 2.7901C15.25 2.3201 14.23 2.6001 13.76 3.3901L13.65 3.5801C12.75 5.1501 11.27 5.1501 10.36 3.5801L10.25 3.3901C9.78 2.6001 8.76 2.3201 7.97 2.7901L6.24 3.7801C5.33 4.3001 5.02 5.4701 5.54 6.3701C6.45 7.9401 5.71 9.2201 3.9 9.2201C2.85 9.2201 2 10.0801 2 11.1201Z" stroke="white" stroke-opacity="0.5" stroke-width="2" stroke-miterlimit="10" stroke-linecap="round" stroke-linejoin="round"/>
</svg>
