<svg width="253" height="323" viewBox="0 0 253 323" fill="none" xmlns="http://www.w3.org/2000/svg">
<path d="M5 109.333C5 90.1262 20.5421 74.5557 39.7143 74.5557H213.286C232.458 74.5557 248 90.1262 248 109.333V265.833C248 294.645 224.688 318 195.929 318H57.0714C28.3132 318 5 294.645 5 265.833V109.333Z" stroke="#522B85" stroke-width="10" stroke-linecap="round" stroke-linejoin="round"/>
<path d="M178.571 74.5555V57.1667C178.571 28.3559 155.259 5 126.5 5C97.741 5 74.4286 28.3559 74.4286 57.1667V74.5555" stroke="#522B85" stroke-width="10" stroke-linecap="round" stroke-linejoin="round"/>
<path d="M74.4286 144.111V161.5C74.4286 190.312 97.741 213.667 126.5 213.667C155.259 213.667 178.571 190.312 178.571 161.5V144.111" stroke="#522B85" stroke-width="10" stroke-linecap="round" stroke-linejoin="round"/>
</svg>
