<svg width="41" height="41" viewBox="0 0 41 41" fill="none" xmlns="http://www.w3.org/2000/svg">
<g clip-path="url(#clip0_4_5205)">
<path d="M41 20.5C41 9.17816 31.8218 0 20.5 0C9.17816 0 0 9.17816 0 20.5C0 31.8218 9.17816 41 20.5 41C31.8218 41 41 31.8218 41 20.5Z" fill="#FBFBFB"/>
<path d="M13 18C13 16.8954 13.8954 16 15 16H25C26.1046 16 27 16.8954 27 18V27C27 28.6569 25.6569 30 24 30H16C14.3432 30 13 28.6569 13 27V18Z" stroke="#004C5F" stroke-linecap="round" stroke-linejoin="round"/>
<path d="M23 16V15C23 13.3432 21.6569 12 20 12C18.3431 12 17 13.3432 17 15V16" stroke="#004C5F" stroke-linecap="round" stroke-linejoin="round"/>
<path d="M17 20V21C17 22.6569 18.3431 24 20 24C21.6569 24 23 22.6569 23 21V20" stroke="#004C5F" stroke-linecap="round" stroke-linejoin="round"/>
</g>
<defs>
<clipPath id="clip0_4_5205">
<rect width="41" height="41" fill="white"/>
</clipPath>
</defs>
</svg>
