<svg width="24" height="24" viewBox="0 0 24 24" fill="none" xmlns="http://www.w3.org/2000/svg">
<g id="ic / placeholder">
<g id="log-out">
<path id="Path" fill-rule="evenodd" clip-rule="evenodd" d="M22.3293 15.6187C21.7466 15.3375 21.0418 15.5859 20.7598 16.1672C19.9798 17.7844 18.7675 19.1531 17.2497 20.1281C15.6944 21.1266 13.89 21.6562 12.0292 21.6562C6.69126 21.6562 2.34946 17.325 2.34946 12C2.34946 6.675 6.69126 2.34375 12.0292 2.34375C13.89 2.34375 15.6944 2.87344 17.2544 3.86719C18.7722 4.8375 19.9845 6.21094 20.7645 7.82812C21.0465 8.40938 21.7466 8.65781 22.334 8.37656C22.9166 8.09531 23.1657 7.39687 22.8837 6.81094C21.9158 4.8 20.4121 3.09844 18.5231 1.89375C16.5872 0.65625 14.3411 0 12.0292 0C8.81517 0 5.79377 1.24688 3.52419 3.51562C1.24991 5.77969 0 8.79375 0 12C0 15.2063 1.24991 18.2203 3.52419 20.4844C5.79846 22.7531 8.81517 24 12.0292 24C14.3411 24 16.5872 23.3438 18.5231 22.1016C20.4074 20.8922 21.9158 19.1906 22.8837 17.1844C23.161 16.5984 22.9166 15.9 22.3293 15.6187Z" fill="black"/>
<path id="Path_2" fill-rule="evenodd" clip-rule="evenodd" d="M12.9011 16.6508C13.1232 16.8852 13.4133 17 13.7033 17C13.9934 17 14.2835 16.8852 14.5056 16.6508L17.3564 13.642C17.7734 13.2019 18 12.6183 18 12.0012C18 11.3841 17.7689 10.7957 17.3564 10.3604L14.5056 7.35159C14.0614 6.8828 13.3453 6.8828 12.9011 7.35159C12.4569 7.82038 12.4569 8.57618 12.9011 9.04497L14.5735 10.8101H8.13309C7.50762 10.8101 7 11.3459 7 12.006C7 12.6661 7.50762 13.2019 8.13309 13.2019H14.5781L12.9056 14.967C12.4615 15.4262 12.4615 16.182 12.9011 16.6508Z" fill="black"/>
</g>
</g>
</svg>
