<svg width="41" height="40" viewBox="0 0 41 40" fill="none" xmlns="http://www.w3.org/2000/svg">
<path d="M28.3517 25.9741H15.8591C15.6784 25.9741 15.5051 25.9023 15.3773 25.7745C15.2495 25.6468 15.1777 25.4734 15.1777 25.2927V24.6641C15.1777 24.4834 15.2495 24.3101 15.3773 24.1823C15.5051 24.0545 15.6784 23.9827 15.8591 23.9827H28.3517C28.5325 23.9827 28.7058 24.0545 28.8336 24.1823C28.9613 24.3101 29.0331 24.4834 29.0331 24.6641V25.2927C29.0331 25.4734 28.9613 25.6468 28.8336 25.7745C28.7058 25.9023 28.5325 25.9741 28.3517 25.9741Z" fill="black"/>
<path d="M28.3517 20.9956H15.8591C15.6784 20.9956 15.5051 20.9238 15.3773 20.796C15.2495 20.6682 15.1777 20.4949 15.1777 20.3142V19.6856C15.1777 19.5049 15.2495 19.3316 15.3773 19.2038C15.5051 19.076 15.6784 19.0042 15.8591 19.0042H28.3517C28.5325 19.0042 28.7058 19.076 28.8336 19.2038C28.9613 19.3316 29.0331 19.5049 29.0331 19.6856V20.3142C29.0331 20.4949 28.9613 20.6682 28.8336 20.796C28.7058 20.9238 28.5325 20.9956 28.3517 20.9956Z" fill="black"/>
<path d="M28.3517 16.0176H15.8591C15.6784 16.0176 15.5051 15.9458 15.3773 15.818C15.2495 15.6902 15.1777 15.5169 15.1777 15.3362V14.7076C15.1777 14.5269 15.2495 14.3535 15.3773 14.2258C15.5051 14.098 15.6784 14.0262 15.8591 14.0262H28.3517C28.5325 14.0262 28.7058 14.098 28.8336 14.2258C28.9613 14.3535 29.0331 14.5269 29.0331 14.7076V15.3362C29.0331 15.5169 28.9613 15.6902 28.8335 15.8179C28.7057 15.9457 28.5324 16.0175 28.3517 16.0176Z" fill="black"/>
<path d="M13.1784 23.9815C13.729 23.9815 14.1752 24.4278 14.1752 24.9783C14.1752 25.5288 13.729 25.9751 13.1784 25.9751C12.6279 25.9751 12.1816 25.5288 12.1816 24.9783C12.1816 24.4278 12.6279 23.9815 13.1784 23.9815Z" fill="black"/>
<path d="M13.1784 19.2027C13.729 19.2027 14.1752 19.649 14.1752 20.1995C14.1752 20.75 13.729 21.1963 13.1784 21.1963C12.6279 21.1963 12.1816 20.75 12.1816 20.1995C12.1816 19.649 12.6279 19.2027 13.1784 19.2027Z" fill="black"/>
<path d="M13.1784 14.025C13.729 14.025 14.1752 14.4712 14.1752 15.0218C14.1752 15.5723 13.729 16.0186 13.1784 16.0186C12.6279 16.0186 12.1816 15.5723 12.1816 15.0218C12.1816 14.4712 12.6279 14.025 13.1784 14.025Z" fill="black"/>
</svg>
