<svg width="24" height="24" viewBox="0 0 24 24" fill="none" xmlns="http://www.w3.org/2000/svg">
<g id="ic / placeholder">
<g id="website">
<path id="Shape" d="M22.0774 7.60461C20.3772 3.72205 16.5026 1 12 1C7.49738 1 3.6228 3.72205 1.92261 7.60461C1.92102 7.60822 1.91913 7.61133 1.9176 7.61499C1.33038 8.95978 1 10.4413 1 12C1 13.5587 1.33038 15.0402 1.9176 16.385C1.91913 16.3887 1.92102 16.3918 1.92261 16.3954C3.6228 20.278 7.49738 23 12 23C16.5026 23 20.3772 20.278 22.0774 16.3954C22.079 16.3918 22.0809 16.3887 22.0824 16.385C22.6696 15.0402 23 13.5587 23 12C23 10.4413 22.6696 8.95978 22.0824 7.61499C22.0809 7.61133 22.079 7.60822 22.0774 7.60461Z" fill="black"/>
<path id="Path" fill-rule="evenodd" clip-rule="evenodd" d="M11.9818 21.7871C11.1196 21.7871 10.0076 20.1804 9.32812 17.4297H14.6356C13.9561 20.1804 12.8441 21.7871 11.9818 21.7871Z" fill="white"/>
<path id="Path_2" fill-rule="evenodd" clip-rule="evenodd" d="M8.92282 15.251C8.79204 14.2528 8.71484 13.1618 8.71484 11.9829C8.71484 10.8041 8.79204 9.71305 8.92282 8.71484H15.043C15.1738 9.71305 15.251 10.8041 15.251 11.9829C15.251 13.1618 15.1738 14.2528 15.043 15.251H8.92282Z" fill="white"/>
<path id="Path_3" fill-rule="evenodd" clip-rule="evenodd" d="M2.17969 11.9829C2.17969 10.8358 2.38807 9.73885 2.75176 8.71484H6.73733C6.60455 9.78825 6.53713 10.892 6.53713 11.9829C6.53713 13.0739 6.60455 14.1776 6.73733 15.251H2.75176C2.38807 14.227 2.17969 13.1301 2.17969 11.9829Z" fill="white"/>
<path id="Path_4" fill-rule="evenodd" clip-rule="evenodd" d="M11.9818 2.17871C12.8441 2.17871 13.9561 3.78543 14.6356 6.53616H9.32812C10.0076 3.78543 11.1196 2.17871 11.9818 2.17871Z" fill="white"/>
<path id="Path_5" fill-rule="evenodd" clip-rule="evenodd" d="M17.2305 8.71484H21.216C21.5797 9.73885 21.7881 10.8358 21.7881 11.9829C21.7881 13.1301 21.5797 14.227 21.216 15.251H17.2305C17.3632 14.1776 17.4307 13.0739 17.4307 11.9829C17.4307 10.892 17.3632 9.78825 17.2305 8.71484Z" fill="white"/>
<path id="Path_6" fill-rule="evenodd" clip-rule="evenodd" d="M20.1283 6.53633H16.8554C16.5538 5.16971 16.1336 3.91752 15.6016 2.87988C17.4536 3.61905 19.0313 4.90123 20.1283 6.53633Z" fill="white"/>
<path id="Path_7" fill-rule="evenodd" clip-rule="evenodd" d="M8.36267 2.87988C7.83062 3.91752 7.41047 5.16971 7.10881 6.53633H3.83594C4.93288 4.90123 6.51061 3.61905 8.36267 2.87988Z" fill="white"/>
<path id="Path_8" fill-rule="evenodd" clip-rule="evenodd" d="M3.83594 17.4297H7.10881C7.41047 18.7963 7.83062 20.0485 8.36267 21.0861C6.51061 20.347 4.93288 19.0648 3.83594 17.4297Z" fill="white"/>
<path id="Path_9" fill-rule="evenodd" clip-rule="evenodd" d="M15.6016 21.0861C16.1336 20.0485 16.5538 18.7963 16.8554 17.4297H20.1283C19.0313 19.0648 17.4536 20.347 15.6016 21.0861Z" fill="white"/>
</g>
</g>
</svg>
