<svg width="24" height="24" viewBox="0 0 24 24" fill="none" xmlns="http://www.w3.org/2000/svg">
<g id="ic / placeholder">
<g id="bill">
<path id="Shape" fill-rule="evenodd" clip-rule="evenodd" d="M19 12.4H16V5.8C16 4.80589 15.1941 4 14.2 4H5.8C4.80589 4 4 4.80589 4 5.8V17.8C4 18.5956 4.31607 19.3587 4.87868 19.9213C5.44129 20.4839 6.20435 20.8 7 20.8H17.8C19.4569 20.8 20.8 19.4569 20.8 17.8V14.2C20.8 13.2059 19.9941 12.4 19 12.4ZM5.2 17.8V5.8C5.2 5.46863 5.46863 5.2 5.8 5.2H14.2C14.5314 5.2 14.8 5.46863 14.8 5.8V17.8C14.7965 18.4497 15.0074 19.0824 15.4 19.6H7C6.00589 19.6 5.2 18.7941 5.2 17.8ZM17.8 19.6C18.7941 19.6 19.6 18.7941 19.6 17.8V14.2C19.6 13.8686 19.3314 13.6 19 13.6H16V17.8C16 18.7941 16.8059 19.6 17.8 19.6Z" fill="black"/>
<path id="Path" d="M6.99844 7.60039H9.39844C9.72981 7.60039 9.99844 7.33176 9.99844 7.00039C9.99844 6.66902 9.72981 6.40039 9.39844 6.40039H6.99844C6.66707 6.40039 6.39844 6.66902 6.39844 7.00039C6.39844 7.33176 6.66707 7.60039 6.99844 7.60039Z" fill="black"/>
<path id="Path_2" d="M12.9984 10.5996H6.99844C6.66707 10.5996 6.39844 10.8682 6.39844 11.1996C6.39844 11.531 6.66707 11.7996 6.99844 11.7996H12.9984C13.3298 11.7996 13.5984 11.531 13.5984 11.1996C13.5984 10.8682 13.3298 10.5996 12.9984 10.5996Z" fill="black"/>
<path id="Path_3" d="M12.9984 13H6.99844C6.66707 13 6.39844 13.2686 6.39844 13.6C6.39844 13.9314 6.66707 14.2 6.99844 14.2H12.9984C13.3298 14.2 13.5984 13.9314 13.5984 13.6C13.5984 13.2686 13.3298 13 12.9984 13Z" fill="black"/>
<path id="Path_4" d="M12.9984 15.4004H9.99844C9.66707 15.4004 9.39844 15.669 9.39844 16.0004C9.39844 16.3318 9.66707 16.6004 9.99844 16.6004H12.9984C13.3298 16.6004 13.5984 16.3318 13.5984 16.0004C13.5984 15.669 13.3298 15.4004 12.9984 15.4004Z" fill="black"/>
</g>
</g>
</svg>
