<svg width="16" height="16" viewBox="0 0 16 16" fill="none" xmlns="http://www.w3.org/2000/svg">
  <g id="price-tag-3">
    <path id="Shape" fill-rule="evenodd" clip-rule="evenodd"
      d="M14.6666 0H9.12485C8.75825 0 8.24587 0.212384 7.98685 0.471213L0.389089 8.06901C-0.129696 8.58722 -0.129696 9.43683 0.389089 9.95441L6.04624 15.6114C6.56385 16.1296 7.41264 16.1296 7.93103 15.6108L15.5288 8.01421C15.7876 7.75542 16 7.24221 16 6.87639V1.3334C16 0.600197 15.3998 0 14.6666 0ZM11.9998 5.33342C11.2634 5.33342 10.6664 4.7358 10.6664 4.00001C10.6664 3.26302 11.2634 2.66661 11.9998 2.66661C12.7362 2.66661 13.3334 3.26302 13.3334 4.00001C13.3334 4.7358 12.7362 5.33342 11.9998 5.33342Z"
      fill="url(#paint0_linear_0_3896)" />
  </g>
  <defs>
    <linearGradient id="paint0_linear_0_3896" x1="-0.173444" y1="16.8207" x2="15.7344" y2="17.3518"
      gradientUnits="userSpaceOnUse">
      <stop stop-color="#286d8e" />
      <stop offset="1" stop-color="#19516c" />
    </linearGradient>
  </defs>
</svg>
