<svg width="136" height="136" viewBox="0 0 136 136" fill="none" xmlns="http://www.w3.org/2000/svg">
<path d="M74.6213 94.8872H62.7524C58.6279 94.8115 54.7015 93.105 51.8324 90.1411C48.9633 87.1772 47.3852 83.1973 47.4437 79.0726C47.4437 77.8143 47.9435 76.6075 48.8332 75.7178C49.723 74.8281 50.9297 74.3282 52.188 74.3282C53.4463 74.3282 54.6531 74.8281 55.5428 75.7178C56.4325 76.6075 56.9324 77.8143 56.9324 79.0726C56.8689 80.6823 57.4456 82.2516 58.5363 83.4371C59.627 84.6226 61.143 85.3278 62.7524 85.3984H74.6213C75.8632 85.331 77.0276 84.7732 77.8583 83.8476C78.6891 82.922 79.1183 81.7043 79.0515 80.4623C79.0515 77.0438 78.1037 76.538 75.9525 75.7819L56.9324 69.1419C53.9987 68.3428 51.4408 66.5346 49.709 64.0353C47.9773 61.536 47.1826 58.506 47.4649 55.4785C47.4135 51.7244 48.8474 48.102 51.4544 45.4002C54.0614 42.6985 57.6303 41.1362 61.3839 41.0537H73.2741C77.3985 41.1293 81.325 42.8359 84.1941 45.7998C87.0632 48.7637 88.6413 52.7436 88.5828 56.8683C88.5828 58.1266 88.083 59.3333 87.1932 60.2231C86.3035 61.1128 85.0968 61.6127 83.8385 61.6127C82.5802 61.6127 81.3734 61.1128 80.4837 60.2231C79.5939 59.3333 79.0941 58.1266 79.0941 56.8683C79.1576 55.2586 78.5809 53.6893 77.4902 52.5037C76.3994 51.3182 74.8835 50.613 73.2741 50.5425H61.3573C60.1153 50.6098 58.951 51.1677 58.1202 52.0933C57.2895 53.0189 56.8603 54.2365 56.9271 55.4785C56.9271 58.897 57.8749 59.4029 60.0261 60.159L79.0728 66.799C82.0105 67.5938 84.5732 69.4004 86.3092 71.9C88.0451 74.3997 88.8428 77.432 88.5615 80.4623C88.6228 84.2229 87.1892 87.8541 84.5755 90.5586C81.9619 93.2632 78.3818 94.8199 74.6213 94.8872Z" fill="#522B85"/>
<path d="M67.9973 101.209C66.7429 101.196 65.5434 100.692 64.6564 99.8054C63.7693 98.9184 63.2654 97.7188 63.253 96.4644V39.532C63.253 38.2737 63.7528 37.0669 64.6426 36.1772C65.5323 35.2874 66.739 34.7876 67.9973 34.7876C69.2556 34.7876 70.4624 35.2874 71.3521 36.1772C72.2419 37.0669 72.7417 38.2737 72.7417 39.532V96.4644C72.7292 97.7188 72.2254 98.9184 71.3383 99.8054C70.4513 100.692 69.2517 101.196 67.9973 101.209Z" fill="#522B85"/>
<path d="M68.0027 136.005C59.0724 136.005 50.2296 134.246 41.9792 130.829C33.7287 127.411 26.2321 122.402 19.9175 116.088C13.6029 109.773 8.59385 102.277 5.17639 94.0262C1.75894 85.7757 0 76.9329 0 68.0027C0 59.0724 1.75894 50.2296 5.17639 41.9792C8.59385 33.7287 13.6029 26.2321 19.9175 19.9175C26.2321 13.6029 33.7287 8.59385 41.9792 5.17639C50.2296 1.75894 59.0724 -1.88191e-07 68.0027 0C69.2609 0 70.4677 0.499852 71.3574 1.38959C72.2472 2.27934 72.747 3.48609 72.747 4.74437C72.747 6.00266 72.2472 7.20941 71.3574 8.09915C70.4677 8.98889 69.2609 9.48874 68.0027 9.48874C56.4295 9.48769 45.1159 12.9186 35.4926 19.3475C25.8694 25.7765 18.3687 34.9147 13.9391 45.6067C9.50946 56.2986 8.34993 68.064 10.6071 79.4149C12.8643 90.7658 18.4368 101.193 26.6199 109.376C34.803 117.56 45.2291 123.134 56.5799 125.392C67.9306 127.65 79.6961 126.492 90.3884 122.063C101.081 117.634 110.22 110.134 116.65 100.512C123.079 90.8891 126.511 79.5758 126.511 68.0027C126.511 66.7444 127.011 65.5376 127.901 64.6479C128.791 63.7581 129.997 63.2583 131.256 63.2583C132.514 63.2583 133.721 63.7581 134.61 64.6479C135.5 65.5376 136 66.7444 136 68.0027C135.984 86.0324 128.816 103.319 116.067 116.069C103.319 128.818 86.0324 135.988 68.0027 136.005Z" fill="#522B85"/>
<path d="M124.921 41.124L99.6178 41.124C98.3634 41.1115 97.1639 40.6077 96.2769 39.7206C95.3898 38.8336 94.886 37.6341 94.8735 36.3796L94.8735 11.0763C94.8735 9.81805 95.3733 8.6113 96.2631 7.72156C97.1528 6.83181 98.3596 6.33196 99.6178 6.33196C100.876 6.33196 102.083 6.83182 102.973 7.72156C103.862 8.6113 104.362 9.81805 104.362 11.0763L104.362 31.6353L124.921 31.6353C126.176 31.6478 127.375 32.1516 128.262 33.0387C129.149 33.9257 129.653 35.1252 129.666 36.3797C129.653 37.6341 129.149 38.8336 128.262 39.7206C127.375 40.6077 126.176 41.1115 124.921 41.124Z" fill="#522B85"/>
<path d="M99.6102 41.1342C98.9868 41.1371 98.369 41.0157 97.793 40.7771C97.217 40.5384 96.6944 40.1874 96.2556 39.7445C95.3792 38.8489 94.8883 37.6456 94.8883 36.3925C94.8883 35.1394 95.3792 33.9361 96.2556 33.0406L127.885 1.41143C128.325 0.970893 128.848 0.621444 129.424 0.383029C129.999 0.144615 130.616 0.0219035 131.239 0.0219036C131.862 0.0219036 132.479 0.144615 133.055 0.38303C133.63 0.621444 134.153 0.970894 134.594 1.41143C135.484 2.30112 135.984 3.50781 135.984 4.76603C135.984 6.02426 135.484 7.23095 134.594 8.12064L102.954 39.7445C102.517 40.1861 101.996 40.5364 101.422 40.775C100.848 41.0136 100.232 41.1357 99.6102 41.1342Z" fill="#522B85"/>
</svg>
