<svg width="24" height="20" viewBox="0 0 24 20" fill="none" xmlns="http://www.w3.org/2000/svg">
  <g id="upload">
    <path id="Shape" fill-rule="evenodd" clip-rule="evenodd"
      d="M20.3154 6.35608C21.299 6.77588 22.1566 7.45619 22.8006 8.32758C23.5811 9.38034 24.0026 10.6677 24 11.9909C23.9963 15.3539 21.3429 18.0792 18.0687 18.083H14.636C14.2217 18.083 13.8859 17.7381 13.8859 17.3126C13.8859 16.8872 14.2217 16.5422 14.636 16.5422H18.0687C20.5148 16.5394 22.4971 14.5034 22.4999 11.9909C22.4999 10.002 21.2005 8.20966 19.3403 7.63236C19.0076 7.52892 18.7877 7.20421 18.809 6.84782C18.9578 4.34673 17.3334 2.21942 14.8586 1.67448C11.7712 0.99452 8.4494 2.92591 7.45376 5.97975L7.14906 6.91383C7.04667 7.22791 6.7603 7.43962 6.43783 7.43962H5.92976C3.48249 7.43962 1.49858 9.47731 1.49858 11.9909C1.49858 14.5046 3.48249 16.5422 5.92976 16.5422H9.36249C9.77673 16.5422 10.1125 16.8872 10.1125 17.3126C10.1125 17.7381 9.77673 18.083 9.36249 18.083H5.92976C2.66081 18.0821 0.0088019 15.3648 4.33886e-05 12.0073C-0.00871512 8.64969 2.62908 5.91781 5.89798 5.89895L6.03111 5.49056C7.26161 1.71661 11.3626 -0.671091 15.1729 0.167901C16.7347 0.511924 18.1051 1.38366 19.0315 2.62257C19.8316 3.69711 20.281 5.00374 20.3154 6.35608ZM13.6497 13.0301C13.7921 13.2061 14.0035 13.3077 14.2263 13.3074H14.2264C14.5174 13.3072 14.782 13.1342 14.9053 12.8636C15.0287 12.5929 14.9885 12.2734 14.8022 12.0438L12.5755 9.29932C12.433 9.12366 12.2219 9.0221 11.9993 9.0221C11.7767 9.0221 11.5656 9.12366 11.4231 9.29932L9.19636 12.0438C9.02279 12.255 8.97268 12.5455 9.06505 12.8051C9.15741 13.0647 9.3781 13.2536 9.64336 13.3001C9.90862 13.3466 10.1778 13.2436 10.3488 13.0301L11.2492 11.9203V19.2296C11.2492 19.6551 11.585 20 11.9992 20C12.4135 20 12.7493 19.6551 12.7493 19.2296V11.9203L13.6497 13.0301Z"
      fill="#19516c" />
  </g>
</svg>
