<svg width="43" height="27" viewBox="0 0 43 27" fill="none" xmlns="http://www.w3.org/2000/svg">
<path d="M42.7998 25.1631C42.7998 26.0322 42.0961 26.736 41.2269 26.736H1.97245C1.10391 26.736 0.399902 26.0322 0.399902 25.1631V1.5728C0.399902 0.704254 1.10391 0 1.97245 0H41.227C42.0961 0 42.7999 0.704254 42.7999 1.5728V25.1631H42.7998Z" fill="#21246E"/>
<path d="M16.5152 7.74143L11.7976 18.9988H8.71835L6.39843 10.0157C6.25557 9.46171 6.13349 9.26018 5.70526 9.02496C5.00382 8.64564 3.8499 8.28983 2.83105 8.06827L2.90232 7.74151H7.85634C8.48818 7.74151 9.0562 8.16295 9.19905 8.88947L10.4257 15.405L13.4556 7.74151H16.5152V7.74143ZM28.5765 15.3216C28.5902 12.3521 24.4676 12.1905 24.4972 10.862C24.5053 10.4566 24.8896 10.0274 25.7314 9.91908C26.1493 9.86346 27.2996 9.82274 28.6033 10.4212L29.1143 8.03516C28.4129 7.78057 27.5112 7.53675 26.3906 7.53675C23.5124 7.53675 21.4861 9.06767 21.4691 11.2581C21.4502 12.878 22.9147 13.7819 24.0193 14.3214C25.1537 14.8734 25.5329 15.2259 25.5289 15.7209C25.5215 16.4764 24.6239 16.8067 23.7867 16.8215C22.3222 16.8443 21.4728 16.4257 20.7945 16.1098L20.2672 18.5779C20.9467 18.8899 22.2047 19.1608 23.5067 19.1768C26.5656 19.1767 28.5668 17.6621 28.5765 15.3216ZM36.1772 18.9987H38.8713L36.5205 7.74134H34.0335C33.4747 7.74134 33.0036 8.06727 32.7937 8.56652L28.4265 18.9986H31.4832L32.0899 17.3174H35.8264L36.1772 18.9987ZM32.9277 15.0102L34.4612 10.7833L35.3434 15.0102H32.9277ZM20.6769 7.74143L18.2675 18.9987H15.3548L17.7648 7.74134H20.6769V7.74143Z" fill="white"/>
</svg>
