<svg width="24" height="24" viewBox="0 0 24 24" fill="none" xmlns="http://www.w3.org/2000/svg">
  <path fill-rule="evenodd" clip-rule="evenodd"
    d="M22.5938 11.4955V8.66463C22.5938 7.27385 21.4876 6.1373 20.1094 6.08768V4.3501C20.1094 3.44503 19.3734 2.7087 18.4688 2.7087H13.952L13.3687 1.08666C13.22 0.673032 12.9189 0.342501 12.5211 0.155991C12.1232 -0.0305659 11.6767 -0.0504503 11.2638 0.0999019L3.0675 3.08448C2.65509 3.23465 2.32608 3.53662 2.14102 3.93478C1.95595 4.33293 1.93716 4.77925 2.08814 5.19157L2.41744 6.09082C1.07048 6.17416 0 7.29641 0 8.66463V21.4207C0 22.8429 1.15655 24 2.57812 24H20.0156C21.4372 24 22.5938 22.8429 22.5938 21.4207V18.496C23.3877 18.3819 24 17.6971 24 16.8716V13.1199C24 12.2944 23.3877 11.6096 22.5938 11.4955ZM22.5938 16.8716C22.5938 17.0009 22.4886 17.1061 22.3594 17.1061H18.6094C17.4463 17.1061 16.5 16.1594 16.5 14.9957C16.5 13.8321 17.4463 12.8854 18.6094 12.8854H22.3594C22.4886 12.8854 22.5938 12.9906 22.5938 13.1199V16.8716ZM3.40856 4.70759C3.37945 4.6281 3.40078 4.56099 3.41611 4.52802C3.43144 4.4951 3.46898 4.4355 3.54848 4.40656L11.7448 1.42198C11.8244 1.39304 11.8914 1.41457 11.9244 1.43C11.9573 1.44543 12.0168 1.48323 12.0455 1.56295L12.4575 2.70874H12.1406C11.236 2.70874 10.5 3.44508 10.5 4.35014V6.08534H3.91308L3.40856 4.70759ZM18.7031 4.3501V6.08529H11.9062V4.3501C11.9062 4.2208 12.0114 4.11561 12.1406 4.11561H18.4688C18.598 4.11561 18.7031 4.2208 18.7031 4.3501ZM20.0156 22.5931H2.57812C1.93195 22.5931 1.40625 22.0671 1.40625 21.4207V8.66463C1.40625 8.01816 1.93195 7.49221 2.57812 7.49221H20.0156C20.6618 7.49221 21.1875 8.01816 21.1875 8.66463V11.4785H18.6094C16.6709 11.4785 15.0938 13.0563 15.0938 14.9957C15.0938 16.9352 16.6709 18.513 18.6094 18.513H21.1875V21.4207C21.1875 22.0671 20.6618 22.5931 20.0156 22.5931Z"
    fill="url(#paint0_linear_0_3047)" />
  <ellipse cx="18.6094" cy="14.9964" rx="0.703125" ry="0.703457" fill="#19516c" />
  <defs>
    <linearGradient id="paint0_linear_0_3047" x1="-0.260167" y1="25.231" x2="23.6017" y2="26.0277"
      gradientUnits="userSpaceOnUse">
      <stop stop-color="#286d8e" />
      <stop offset="1" stop-color="#19516c" />
    </linearGradient>
  </defs>
</svg>
