<svg width="16" height="15" viewBox="0 0 16 15" fill="none" xmlns="http://www.w3.org/2000/svg">
  <g id="withdraw">
    <path id="Shape" fill-rule="evenodd" clip-rule="evenodd"
      d="M1.11628 3.65385C1.11628 2.27314 2.19912 1.15385 3.53488 1.15385H12.4651C13.8009 1.15385 14.8837 2.27314 14.8837 3.65385C14.8837 4.83599 14.0899 5.8265 13.0233 6.08695V3.65385C13.0233 3.50084 12.9645 3.35409 12.8598 3.2459C12.7551 3.13771 12.6131 3.07692 12.4651 3.07692H3.53488C3.38686 3.07692 3.24489 3.13771 3.14022 3.2459C3.03555 3.35409 2.97674 3.50084 2.97674 3.65385V6.08695C1.91006 5.8265 1.11628 4.836 1.11628 3.65385ZM2.97674 7.2624C3.15855 7.29221 3.34497 7.30769 3.53488 7.30769V6.15385C3.34278 6.15385 3.15591 6.1307 2.97674 6.08695V7.2624ZM2.97674 12.8846V7.2624C1.28968 6.9858 0 5.4755 0 3.65385C0 1.63588 1.58262 0 3.53488 0H12.4651C14.4174 0 16 1.63588 16 3.65385C16 5.4755 14.7103 6.9858 13.0233 7.2624V6.73077V6.08695C12.8441 6.1307 12.6572 6.15385 12.4651 6.15385V7.30769C12.655 7.30769 12.8415 7.29221 13.0233 7.2624V12.8846C13.0233 14.0529 12.107 15 10.9767 15H5.02326C3.893 15 2.97674 14.0529 2.97674 12.8846ZM5.02326 13.8462H10.9767C11.4905 13.8462 11.907 13.4157 11.907 12.8846V6.73077V4.23077H12.4651V3.65385L11.907 3.65385V4.23077H4.09302V3.65385L3.53488 3.65385V4.23077H4.09302V12.8846C4.09302 13.4157 4.5095 13.8462 5.02326 13.8462Z"
      fill="#19516c" />
    <path id="Shape_2" fill-rule="evenodd" clip-rule="evenodd"
      d="M7.44223 11.0276C7.44223 11.3462 7.69212 11.6045 8.00037 11.6045C8.30861 11.6045 8.5585 11.3462 8.5585 11.0276V7.80495L9.0941 8.35857C9.31207 8.58388 9.66544 8.58388 9.8834 8.35857C10.1014 8.13326 10.1014 7.76803 9.8834 7.54272L8.92122 6.54818C8.41264 6.02249 7.58809 6.02249 7.07951 6.54818L6.11735 7.54272C5.89938 7.76803 5.89938 8.13326 6.11735 8.35857C6.33532 8.58388 6.68866 8.58388 6.90664 8.35857L7.44223 7.80495V11.0276ZM7.44223 7.18142V7.80495L7.86879 7.36403C7.9415 7.28895 8.05923 7.28895 8.13194 7.36403L8.5585 7.80495V7.18142C8.5585 7.1049 8.54409 7.03187 8.51792 6.96505C8.43512 6.75364 8.23459 6.60449 8.00037 6.60449C7.76614 6.60449 7.56561 6.75364 7.48281 6.96505C7.45664 7.03187 7.44223 7.1049 7.44223 7.18142Z"
      fill="#19516c" />
  </g>
</svg>
