<svg width="20" height="20" viewBox="0 0 20 20" fill="none" xmlns="http://www.w3.org/2000/svg">
  <path fill-rule="evenodd" clip-rule="evenodd"
    d="M14.2579 3.65805H8.53437C7.74412 3.65805 7.10349 4.29727 7.10349 5.08579C7.10349 5.87431 7.74412 6.51353 8.53437 6.51353H10.8095L6.08756 11.2108C5.52647 11.7706 5.52647 12.6783 6.08756 13.2382C6.64864 13.798 7.55833 13.798 8.11942 13.2382L12.827 8.52664V10.7967C12.827 11.5853 13.4677 12.2245 14.2579 12.2245C15.0482 12.2245 15.6888 11.5853 15.6888 10.7967V5.08579C15.6865 4.89922 15.6477 4.7149 15.5743 4.54325C15.4291 4.19438 15.1513 3.91715 14.8017 3.77227C14.6296 3.69911 14.4449 3.66031 14.2579 3.65805ZM18.8839 7.76971C18.805 7.33249 18.3859 7.04185 17.9477 7.12055C17.5095 7.19925 17.2182 7.61749 17.2971 8.05471C17.3904 8.5297 17.4435 9.01167 17.4558 9.49554C17.4558 13.8678 13.9036 17.4122 9.52167 17.4122C5.13978 17.4122 1.58757 13.8678 1.58757 9.49554C1.58757 5.1233 5.13978 1.5789 9.52167 1.5789C9.76218 1.56686 10.0032 1.56686 10.2437 1.5789C10.6686 1.62115 11.0508 1.32025 11.1085 0.89807C11.1283 0.687924 11.0632 0.478584 10.9276 0.316555C10.7921 0.154526 10.5972 0.0532248 10.3865 0.0351562C10.1009 0.0351562 9.81523 0.0351562 9.52167 0.0351562C5.51196 0.0350489 1.93192 2.5416 0.568122 6.30395C-0.795678 10.0663 0.349089 14.278 3.43115 16.8373C6.51321 19.3965 10.8719 19.7547 14.3321 17.7332C17.7923 15.7116 19.6123 11.7436 18.8839 7.80929V7.76971Z"
    fill="url(#paint0_linear_0_3097)" />
  <defs>
    <linearGradient id="paint0_linear_0_3097" x1="-0.20643" y1="20.0097" x2="18.7267" y2="20.6433"
      gradientUnits="userSpaceOnUse">
      <stop stop-color="#286d8e" />
      <stop offset="1" stop-color="#19516c" />
    </linearGradient>
  </defs>
</svg>
